{"glyphs":{"0":{"ha":856,"x_min":69,"x_max":786,"o":"m 696 111 q 428 -22 606 -22 q 160 111 249 -22 q 69 494 69 246 q 160 878 69 743 q 428 1011 249 1011 q 696 878 606 1011 q 786 494 786 743 q 696 111 786 246 m 428 906 q 310 906 428 906 q 192 494 192 906 q 428 83 192 83 q 664 494 664 83 q 428 906 664 906 z "},"1":{"ha":496,"x_min":64,"x_max":406,"o":"m 311 989 l 406 989 l 406 0 l 289 0 l 289 738 l 64 738 l 64 829 l 86 831 q 243 872 192 838 q 311 989 294 907 z "},"2":{"ha":761,"x_min":63,"x_max":718,"o":"m 196 106 l 718 106 l 718 0 l 65 0 l 68 54 q 124 264 76 176 q 283 417 171 351 l 408 489 q 542 597 503 544 q 582 725 582 650 q 530 856 582 807 q 386 906 478 906 q 179 693 179 906 l 64 693 q 149 928 63 844 q 389 1011 235 1011 q 617 932 529 1011 q 704 725 704 850 q 479 403 704 533 l 374 342 q 242 234 282 286 q 196 106 201 182 z "},"3":{"ha":797,"x_min":61,"x_max":749,"o":"m 583 526 q 749 278 749 440 q 654 61 749 143 q 408 -22 561 -22 q 152 64 243 -22 q 63 299 61 150 l 178 299 q 240 138 181 193 q 408 83 300 83 q 567 136 508 83 q 626 278 626 189 q 566 422 626 368 q 401 475 506 475 l 328 475 l 328 572 l 394 572 q 547 617 493 572 q 600 740 600 661 q 547 862 600 818 q 401 906 493 906 q 253 858 308 906 q 194 717 199 810 l 78 717 q 166 931 79 851 q 401 1011 253 1011 q 631 940 544 1011 q 718 743 718 868 q 583 526 718 601 z "},"4":{"ha":808,"x_min":35,"x_max":781,"o":"m 647 353 l 781 353 l 781 247 l 647 247 l 647 0 l 531 0 l 531 247 l 35 247 l 35 360 l 521 989 l 647 989 l 647 353 m 531 353 l 531 836 l 157 353 l 531 353 z "},"5":{"ha":804,"x_min":69,"x_max":749,"o":"m 413 644 q 660 551 571 644 q 749 311 749 458 q 656 72 749 165 q 406 -22 561 -22 q 171 60 264 -22 q 69 275 78 140 l 186 275 q 256 135 194 186 q 406 83 317 83 q 565 147 503 83 q 626 311 626 210 q 565 476 626 413 q 406 539 503 539 q 203 419 260 539 l 94 419 l 178 989 l 689 989 l 689 883 l 272 883 l 225 572 q 413 644 306 644 z "},"6":{"ha":838,"x_min":69,"x_max":775,"o":"m 438 644 q 685 550 593 644 q 775 311 775 456 q 683 72 775 167 q 435 -22 589 -22 q 217 47 306 -22 q 103 220 136 113 q 69 490 69 328 q 165 874 69 736 q 438 1011 260 1011 q 653 940 567 1011 q 761 744 739 869 l 647 744 q 576 864 631 822 q 438 906 521 906 q 186 510 190 906 q 297 607 226 569 q 438 644 367 644 m 276 147 q 435 83 339 83 q 592 147 532 83 q 653 311 653 213 q 592 475 653 410 q 435 539 532 539 q 276 476 339 539 q 214 311 214 411 q 276 147 214 210 z "},"7":{"ha":690,"x_min":28,"x_max":663,"o":"m 28 883 l 28 989 l 663 989 l 663 897 q 307 0 321 514 l 186 0 q 276 470 193 257 q 528 883 358 683 l 28 883 z "},"8":{"ha":814,"x_min":49,"x_max":765,"o":"m 582 531 q 717 433 668 497 q 765 281 765 368 q 667 60 765 142 q 407 -22 568 -22 q 147 60 246 -22 q 49 281 49 142 q 97 433 49 368 q 232 531 146 497 q 89 740 89 593 q 179 940 89 867 q 407 1011 269 1011 q 635 940 544 1011 q 725 740 725 867 q 582 531 725 593 m 553 863 q 407 906 497 906 q 261 863 317 906 q 204 740 204 818 q 261 618 204 663 q 407 575 317 575 q 553 618 497 575 q 610 740 610 663 q 553 863 610 818 m 235 136 q 407 83 300 83 q 579 136 514 83 q 643 281 643 188 q 579 426 643 375 q 407 478 515 478 q 235 426 299 478 q 171 281 171 375 q 235 136 171 188 z "},"9":{"ha":838,"x_min":63,"x_max":768,"o":"m 621 931 q 735 758 701 865 q 768 488 768 650 q 674 105 768 243 q 407 -33 581 -33 q 186 38 274 -33 q 76 233 99 108 l 190 233 q 263 114 207 156 q 407 72 319 72 q 651 468 647 72 q 541 371 611 408 q 400 333 471 333 q 154 428 244 333 q 63 667 63 522 q 156 906 63 813 q 403 1000 247 1000 q 621 931 532 1000 m 246 503 q 403 439 306 439 q 561 503 499 439 q 624 667 624 565 q 561 832 624 767 q 403 894 499 894 q 246 831 306 894 q 185 667 185 765 q 246 503 185 568 z "},"\u0000":{"ha":0,"x_min":0,"x_max":0,"o":""},"\r":{"ha":264,"x_min":0,"x_max":0,"o":""}," ":{"ha":264,"x_min":0,"x_max":0,"o":""},"!":{"ha":265,"x_min":63,"x_max":203,"o":"m 167 258 l 94 258 l 75 717 l 75 989 l 192 989 l 192 717 l 167 258 m 203 0 l 63 0 l 63 139 l 203 139 l 203 0 z "},"\"":{"ha":558,"x_min":90,"x_max":468,"o":"m 192 635 l 106 635 l 90 989 l 207 989 l 192 635 m 453 635 l 367 635 l 351 989 l 468 989 l 453 635 z "},"#":{"ha":878,"x_min":42,"x_max":836,"o":"m 836 692 l 817 597 l 678 597 l 635 392 l 775 392 l 756 297 l 617 297 l 556 0 l 444 0 l 506 297 l 293 297 l 232 0 l 121 0 l 182 297 l 42 297 l 61 392 l 200 392 l 243 597 l 103 597 l 122 692 l 261 692 l 322 989 l 433 989 l 372 692 l 585 692 l 646 989 l 757 989 l 696 692 l 836 692 m 311 392 l 524 392 l 567 597 l 354 597 l 311 392 z "},"$":{"ha":858,"x_min":42,"x_max":824,"o":"m 824 268 q 735 63 824 140 q 486 -21 646 -14 l 486 -161 l 389 -161 l 389 -19 q 134 81 225 -7 q 42 326 43 168 l 163 326 q 389 88 167 110 l 389 464 l 375 467 q 150 567 225 501 q 75 753 75 633 q 159 935 75 865 q 389 1011 243 1004 l 389 1150 l 486 1150 l 486 1007 q 799 701 789 978 l 679 701 q 627 840 672 792 q 486 901 582 889 l 486 557 l 515 550 q 751 447 679 514 q 824 268 824 379 m 196 753 q 238 645 196 683 q 389 579 279 607 l 389 906 q 245 860 294 900 q 196 753 196 821 m 486 442 l 486 85 q 703 268 703 100 q 653 374 703 335 q 486 442 604 414 z "},"%":{"ha":1235,"x_min":28,"x_max":1207,"o":"m 436 483 q 261 403 376 403 q 88 483 146 403 q 28 701 28 561 q 88 923 28 844 q 261 1001 147 1001 q 435 923 375 1001 q 494 701 494 844 q 436 483 494 563 m 407 0 l 300 0 l 828 989 l 935 989 l 407 0 m 135 701 q 261 490 135 490 q 388 701 388 490 q 261 914 388 914 q 135 701 135 914 m 1149 68 q 974 -12 1089 -12 q 800 68 858 -12 q 740 286 740 146 q 800 508 740 429 q 974 586 860 586 q 1147 508 1088 586 q 1207 286 1207 429 q 1149 68 1207 147 m 847 286 q 974 75 847 75 q 1100 286 1100 75 q 974 499 1100 499 q 847 286 847 499 z "},"&":{"ha":914,"x_min":42,"x_max":914,"o":"m 722 214 l 914 0 l 764 0 l 660 117 q 340 -22 542 -22 q 124 58 204 -22 q 42 253 42 138 q 95 417 42 350 q 272 553 149 483 q 181 681 208 625 q 154 793 154 736 q 221 949 154 883 q 397 1011 286 1011 q 568 954 496 1011 q 639 797 639 897 q 436 533 639 650 l 642 304 q 669 478 669 385 l 782 478 q 722 214 778 329 m 396 911 q 306 878 340 911 q 271 793 271 846 q 371 607 271 719 q 486 694 450 650 q 522 793 522 739 q 486 878 522 844 q 396 911 450 911 m 347 83 q 586 200 501 83 l 338 479 q 201 379 242 428 q 160 258 160 331 q 211 134 160 185 q 347 83 263 83 z "},"'":{"ha":297,"x_min":90,"x_max":207,"o":"m 192 635 l 106 635 l 90 989 l 207 989 l 192 635 z "},"(":{"ha":382,"x_min":69,"x_max":368,"o":"m 368 -272 l 264 -272 q 69 407 69 -3 q 264 1086 69 818 l 368 1086 q 229 769 271 929 q 188 407 188 608 q 229 46 188 204 q 368 -272 271 -115 z "},")":{"ha":382,"x_min":14,"x_max":313,"o":"m 118 -272 l 14 -272 q 153 46 111 -115 q 194 407 194 204 q 153 769 194 608 q 14 1086 111 929 l 118 1086 q 313 407 313 818 q 118 -272 313 -3 z "},"*":{"ha":669,"x_min":56,"x_max":614,"o":"m 335 626 l 203 444 l 133 500 l 267 685 l 56 753 l 85 836 l 290 769 l 290 989 l 379 989 l 379 769 l 585 836 l 614 753 l 403 685 l 536 500 l 467 444 l 335 626 z "},"+":{"ha":735,"x_min":56,"x_max":679,"o":"m 422 544 l 679 544 l 679 444 l 422 444 l 422 188 l 314 188 l 314 444 l 56 444 l 56 544 l 314 544 l 314 801 l 422 801 l 422 544 z "},",":{"ha":265,"x_min":63,"x_max":203,"o":"m 63 0 l 63 139 l 203 139 l 203 -12 q 76 -192 203 -179 l 63 -193 l 63 -118 l 72 -117 q 124 -22 124 -111 l 124 0 l 63 0 z "},"-":{"ha":513,"x_min":56,"x_max":457,"o":"m 457 342 l 56 342 l 56 442 l 457 442 l 457 342 z "},".":{"ha":265,"x_min":63,"x_max":203,"o":"m 203 0 l 63 0 l 63 139 l 203 139 l 203 0 z "},"/":{"ha":504,"x_min":21,"x_max":483,"o":"m 129 0 l 21 0 l 375 989 l 483 989 l 129 0 z "},":":{"ha":265,"x_min":63,"x_max":203,"o":"m 203 543 l 63 543 l 63 682 l 203 682 l 203 543 m 203 0 l 63 0 l 63 139 l 203 139 l 203 0 z "},";":{"ha":265,"x_min":63,"x_max":203,"o":"m 63 542 l 63 681 l 203 681 l 203 542 l 63 542 m 124 0 l 63 0 l 63 139 l 203 139 l 203 -12 q 76 -192 203 -179 l 63 -193 l 63 -118 l 72 -117 q 124 -22 124 -111 l 124 0 z "},"<":{"ha":735,"x_min":56,"x_max":679,"o":"m 679 821 l 679 701 l 476 618 q 172 496 325 556 q 476 372 286 450 l 679 289 l 679 169 l 56 438 l 56 553 l 679 821 z "},"=":{"ha":735,"x_min":56,"x_max":679,"o":"m 679 564 l 56 564 l 56 664 l 679 664 l 679 564 m 679 325 l 56 325 l 56 425 l 679 425 l 679 325 z "},">":{"ha":735,"x_min":56,"x_max":679,"o":"m 56 701 l 56 821 l 679 553 l 679 438 l 56 169 l 56 289 l 258 372 q 563 496 449 450 q 258 618 410 556 l 56 701 z "},"?":{"ha":704,"x_min":35,"x_max":663,"o":"m 394 258 l 285 258 q 310 424 285 361 q 422 560 333 481 q 508 647 489 619 q 525 674 517 658 q 544 747 544 710 q 361 906 544 906 q 208 855 260 906 q 149 685 156 804 l 35 685 q 121 928 36 844 q 357 1011 206 1011 q 581 943 500 1011 q 663 749 663 875 q 628 622 663 678 q 517 500 593 565 q 413 382 436 432 q 394 258 397 349 m 410 0 l 269 0 l 269 139 l 410 139 l 410 0 z "},"@":{"ha":1286,"x_min":49,"x_max":1238,"o":"m 649 1011 q 1072 864 907 1011 q 1238 488 1238 715 q 1174 221 1238 322 q 988 117 1108 117 q 874 147 919 117 q 815 235 829 178 q 621 113 757 113 q 435 196 504 113 q 365 424 365 279 q 435 651 365 568 q 621 735 504 735 q 793 642 738 735 l 793 717 l 901 717 l 901 338 q 992 211 901 211 q 1095 283 1058 211 q 1132 482 1132 356 q 1000 793 1132 668 q 649 917 868 917 q 292 776 429 917 q 154 417 154 635 q 296 61 154 197 q 657 -74 435 -74 q 911 -28 797 -74 l 911 -122 q 651 -168 792 -168 q 215 -4 381 -168 q 49 417 49 163 q 215 843 49 675 q 649 1011 382 1011 m 633 204 q 752 264 708 204 q 796 424 796 324 q 752 583 796 524 q 633 643 708 643 q 514 585 556 643 q 472 424 472 526 q 514 263 472 321 q 633 204 556 204 z "},"A":{"ha":967,"x_min":21,"x_max":946,"o":"m 946 0 l 822 0 l 707 288 l 257 288 l 143 0 l 21 0 l 415 989 l 546 989 l 946 0 m 303 404 l 299 393 l 665 393 l 660 406 q 479 863 625 490 q 303 404 381 599 z "},"B":{"ha":878,"x_min":90,"x_max":843,"o":"m 672 514 q 843 278 843 449 q 759 74 843 149 q 522 0 675 0 l 90 0 l 90 989 l 501 989 q 724 917 644 989 q 803 731 803 846 q 672 514 803 582 m 493 883 l 207 883 l 207 557 l 493 557 q 639 601 589 557 q 689 726 689 646 q 638 842 689 800 q 493 883 588 883 m 207 106 l 517 106 q 673 150 619 106 q 726 278 726 194 q 515 453 726 453 l 207 453 l 207 106 z "},"C":{"ha":974,"x_min":49,"x_max":932,"o":"m 506 -22 q 176 118 304 -22 q 49 494 49 258 q 176 871 49 731 q 506 1011 304 1011 q 778 924 665 1011 q 926 671 890 838 l 808 671 q 506 904 746 904 q 263 796 354 904 q 171 494 171 686 q 263 194 171 303 q 506 85 354 85 q 708 156 619 85 q 815 360 796 224 l 932 360 q 792 78 913 175 q 506 -22 669 -22 z "},"D":{"ha":957,"x_min":90,"x_max":908,"o":"m 90 989 l 424 989 q 779 858 649 989 q 908 494 908 728 q 779 132 908 264 q 424 0 647 0 l 90 0 l 90 989 m 207 106 l 424 106 q 692 208 599 106 q 786 494 786 311 q 692 781 786 678 q 424 883 599 883 l 207 883 l 207 106 z "},"E":{"ha":813,"x_min":90,"x_max":778,"o":"m 778 989 l 778 883 l 207 883 l 207 568 l 722 568 l 722 463 l 207 463 l 207 106 l 772 106 l 772 0 l 90 0 l 90 989 l 778 989 z "},"F":{"ha":772,"x_min":90,"x_max":744,"o":"m 744 989 l 744 883 l 207 883 l 207 568 l 689 568 l 689 463 l 207 463 l 207 0 l 90 0 l 90 989 l 744 989 z "},"G":{"ha":1038,"x_min":49,"x_max":961,"o":"m 540 403 l 540 508 l 961 508 l 961 0 l 865 0 l 840 133 q 517 -22 731 -22 q 178 121 304 -22 q 49 494 49 263 q 176 869 49 725 q 518 1011 303 1011 q 810 917 694 1011 q 950 665 925 822 l 829 665 q 724 840 811 775 q 518 904 639 904 q 265 793 360 904 q 171 494 171 682 q 265 196 171 307 q 518 85 360 85 q 757 175 658 85 q 856 403 856 265 l 540 403 z "},"H":{"ha":965,"x_min":90,"x_max":875,"o":"m 758 564 l 758 989 l 875 989 l 875 0 l 758 0 l 758 456 l 207 456 l 207 0 l 90 0 l 90 989 l 207 989 l 207 564 l 758 564 z "},"I":{"ha":297,"x_min":90,"x_max":207,"o":"m 207 0 l 90 0 l 90 989 l 207 989 l 207 0 z "},"J":{"ha":721,"x_min":42,"x_max":644,"o":"m 564 60 q 342 -22 482 -22 q 121 60 200 -22 q 42 281 42 142 l 42 346 l 156 346 l 156 281 q 204 134 156 185 q 342 83 253 83 q 479 134 431 83 q 528 281 528 185 l 528 989 l 644 989 l 644 281 q 564 60 644 140 z "},"K":{"ha":922,"x_min":90,"x_max":901,"o":"m 747 989 l 901 989 l 479 586 l 901 0 l 758 0 l 394 508 l 207 329 l 207 0 l 90 0 l 90 989 l 207 989 l 207 469 l 747 989 z "},"L":{"ha":732,"x_min":90,"x_max":704,"o":"m 207 989 l 207 106 l 704 106 l 704 0 l 90 0 l 90 989 l 207 989 z "},"M":{"ha":1165,"x_min":90,"x_max":1075,"o":"m 701 443 l 922 989 l 1075 989 l 1075 0 l 961 0 l 961 317 q 965 821 961 629 q 878 596 932 729 l 633 0 l 533 0 l 288 596 q 200 821 233 729 q 204 317 204 629 l 204 0 l 90 0 l 90 989 l 243 989 l 472 426 q 585 142 524 300 q 701 443 669 367 z "},"N":{"ha":967,"x_min":90,"x_max":876,"o":"m 761 656 l 761 989 l 876 989 l 876 0 l 735 0 l 407 510 q 201 844 265 735 q 206 333 206 650 l 206 0 l 90 0 l 90 989 l 232 989 l 560 479 q 765 144 701 254 q 761 656 761 339 z "},"O":{"ha":1044,"x_min":49,"x_max":996,"o":"m 867 121 q 522 -22 736 -22 q 179 121 308 -22 q 49 494 49 261 q 179 869 49 726 q 522 1011 308 1011 q 867 869 736 1011 q 996 494 996 725 q 867 121 996 263 m 267 196 q 522 85 363 85 q 778 196 682 85 q 874 494 874 306 q 778 793 874 683 q 522 904 682 904 q 267 793 363 904 q 171 494 171 683 q 267 196 171 306 z "},"P":{"ha":876,"x_min":90,"x_max":829,"o":"m 90 989 l 501 989 q 744 907 658 989 q 829 685 829 825 q 744 463 829 544 q 501 381 658 381 l 207 381 l 207 0 l 90 0 l 90 989 m 207 486 l 501 486 q 656 537 604 486 q 708 685 708 588 q 656 833 708 782 q 501 883 604 883 l 207 883 l 207 486 z "},"Q":{"ha":1044,"x_min":49,"x_max":996,"o":"m 996 494 q 861 114 996 257 l 989 -21 l 918 -92 l 783 50 q 522 -22 669 -22 q 179 121 308 -22 q 49 494 49 261 q 179 869 49 726 q 522 1011 308 1011 q 867 869 736 1011 q 996 494 996 725 m 522 85 q 704 133 626 85 l 579 265 l 650 336 l 781 199 q 874 494 874 308 q 778 793 874 683 q 522 904 682 904 q 267 793 363 904 q 171 494 171 683 q 267 196 171 306 q 522 85 363 85 z "},"R":{"ha":897,"x_min":90,"x_max":863,"o":"m 817 286 l 826 126 q 863 0 833 43 l 742 0 q 710 132 711 44 l 706 238 q 661 380 701 338 q 529 422 621 422 l 207 422 l 207 0 l 90 0 l 90 989 l 508 989 q 752 918 661 989 q 843 719 843 847 q 799 567 843 629 q 681 481 756 506 q 817 286 806 442 m 207 528 l 522 528 q 669 576 615 528 q 722 713 722 624 q 666 840 722 797 q 508 883 610 883 l 207 883 l 207 528 z "},"S":{"ha":858,"x_min":42,"x_max":824,"o":"m 453 -22 q 151 65 260 -22 q 42 326 43 153 l 163 326 q 453 83 167 83 q 638 131 574 83 q 703 268 703 178 q 649 378 703 339 q 463 447 596 418 l 375 467 q 150 567 225 501 q 75 753 75 633 q 167 941 75 871 q 413 1011 258 1011 q 594 986 517 1011 q 714 916 671 961 q 777 818 757 871 q 799 701 797 765 l 679 701 q 610 856 671 807 q 413 906 550 906 q 252 865 308 906 q 196 753 196 825 q 244 640 196 681 q 428 569 292 600 l 515 550 q 751 447 679 514 q 824 268 824 379 q 725 56 824 133 q 453 -22 626 -22 z "},"T":{"ha":849,"x_min":28,"x_max":821,"o":"m 28 989 l 821 989 l 821 883 l 485 883 l 485 0 l 364 0 l 364 883 l 28 883 l 28 989 z "},"U":{"ha":931,"x_min":76,"x_max":854,"o":"m 854 367 q 753 81 854 182 q 465 -21 651 -21 q 178 81 279 -21 q 76 367 76 182 l 76 989 l 193 989 l 193 367 q 465 85 193 85 q 738 367 738 85 l 738 989 l 854 989 l 854 367 z "},"V":{"ha":911,"x_min":21,"x_max":890,"o":"m 543 363 l 768 989 l 890 989 l 524 0 l 393 0 l 21 989 l 144 989 l 374 363 q 458 117 436 186 q 543 363 479 186 z "},"W":{"ha":1328,"x_min":21,"x_max":1307,"o":"m 1051 501 l 1186 989 l 1307 989 l 1026 0 l 896 0 l 754 504 q 664 839 694 718 q 574 504 633 718 l 432 0 l 301 0 l 21 989 l 142 989 l 276 501 q 369 147 340 275 q 464 504 418 333 l 599 989 l 729 989 l 864 504 q 958 147 911 333 q 1051 501 988 275 z "},"X":{"ha":888,"x_min":21,"x_max":867,"o":"m 847 989 l 513 511 l 867 0 l 731 0 l 583 214 q 443 419 550 261 q 301 214 403 360 l 151 0 l 21 0 l 378 507 l 40 989 l 176 989 l 311 793 q 444 596 399 668 q 581 794 488 661 l 717 989 l 847 989 z "},"Y":{"ha":914,"x_min":21,"x_max":893,"o":"m 617 758 l 761 989 l 893 989 l 515 397 l 515 0 l 399 0 l 399 397 l 21 989 l 154 989 l 300 757 q 458 501 394 610 q 617 758 547 651 z "},"Z":{"ha":833,"x_min":35,"x_max":799,"o":"m 460 106 l 799 106 l 799 0 l 35 0 l 35 106 l 471 665 q 644 886 496 699 q 361 883 519 883 l 60 883 l 60 989 l 789 989 l 789 883 l 350 324 q 176 103 325 290 q 460 106 301 106 z "},"[":{"ha":439,"x_min":90,"x_max":411,"o":"m 411 -272 l 90 -272 l 90 1086 l 411 1086 l 411 989 l 201 989 l 201 -175 l 411 -175 l 411 -272 z "},"\\":{"ha":504,"x_min":21,"x_max":483,"o":"m 483 0 l 375 0 l 21 989 l 129 989 l 483 0 z "},"]":{"ha":439,"x_min":28,"x_max":349,"o":"m 349 -272 l 28 -272 l 28 -175 l 238 -175 l 238 989 l 28 989 l 28 1086 l 349 1086 l 349 -272 z "},"^":{"ha":604,"x_min":7,"x_max":597,"o":"m 242 989 l 363 989 l 597 569 l 479 569 l 336 833 l 303 894 q 297 885 301 893 q 285 863 293 878 q 268 833 276 849 l 125 569 l 7 569 l 242 989 z "},"_":{"ha":581,"x_min":-1,"x_max":582,"o":"m 582 -236 l -1 -236 l -1 -139 l 582 -139 l 582 -236 z "},"`":{"ha":556,"x_min":143,"x_max":413,"o":"m 413 825 l 314 825 l 143 1025 l 293 1025 l 413 825 z "},"a":{"ha":724,"x_min":42,"x_max":710,"o":"m 669 90 l 710 90 l 710 0 q 649 -4 682 -4 q 528 99 536 -4 q 294 -17 453 -17 q 109 38 176 -17 q 42 193 42 93 q 307 415 42 388 l 410 426 q 522 525 522 439 q 485 611 522 585 q 361 638 449 638 q 227 606 268 638 q 181 496 186 575 l 69 496 q 361 733 83 733 q 631 525 631 733 l 631 125 q 669 90 631 90 m 300 78 q 456 132 389 78 q 522 283 522 185 l 522 368 q 428 338 492 344 l 324 325 q 195 283 233 314 q 157 196 157 253 q 193 109 157 140 q 300 78 229 78 z "},"b":{"ha":817,"x_min":83,"x_max":768,"o":"m 435 733 q 678 632 586 733 q 768 358 768 529 q 678 86 768 189 q 435 -17 586 -17 q 189 111 275 -17 l 189 0 l 83 0 l 83 989 l 194 989 l 194 614 q 435 733 281 733 m 421 83 q 588 159 525 83 q 651 364 651 235 q 590 562 651 490 q 421 633 528 633 q 253 561 315 633 q 190 358 190 489 q 253 157 190 229 q 421 83 315 83 z "},"c":{"ha":724,"x_min":49,"x_max":689,"o":"m 381 -17 q 140 86 232 -17 q 49 358 49 189 q 140 632 49 531 q 381 733 229 733 q 590 664 508 733 q 689 474 672 594 l 574 474 q 508 592 561 550 q 381 633 454 633 q 224 562 282 633 q 165 358 165 490 q 224 156 165 228 q 381 83 283 83 q 508 126 454 83 q 575 246 563 169 l 689 246 q 587 54 671 125 q 381 -17 503 -17 z "},"d":{"ha":817,"x_min":49,"x_max":733,"o":"m 622 614 l 622 989 l 733 989 l 733 0 l 628 0 l 628 111 q 382 -17 542 -17 q 140 86 231 -17 q 49 358 49 189 q 140 632 49 531 q 382 733 229 733 q 622 614 536 733 m 165 353 q 228 154 165 225 q 396 83 290 83 q 564 157 501 83 q 626 358 626 229 q 564 560 626 486 q 396 633 501 633 q 228 558 292 633 q 165 353 165 482 z "},"e":{"ha":757,"x_min":49,"x_max":708,"o":"m 708 358 l 708 319 l 164 319 q 229 144 172 203 q 385 85 286 85 q 575 218 533 85 l 690 218 q 582 47 661 110 q 382 -17 503 -17 q 142 85 233 -17 q 49 358 49 186 q 140 631 49 528 q 379 733 231 733 q 621 626 533 733 q 708 358 708 519 m 379 632 q 236 577 292 632 q 167 419 181 522 l 589 419 q 525 573 581 514 q 379 632 469 632 z "},"f":{"ha":444,"x_min":21,"x_max":410,"o":"m 410 894 l 346 894 q 250 793 250 894 l 250 717 l 403 717 l 403 619 l 250 619 l 250 0 l 139 0 l 139 619 l 21 619 l 21 717 l 139 717 l 139 790 q 339 992 139 992 q 410 989 365 992 l 410 894 z "},"g":{"ha":817,"x_min":49,"x_max":733,"o":"m 628 613 l 628 717 l 733 717 l 733 28 q 647 -204 733 -119 q 400 -289 561 -289 q 186 -228 267 -289 q 94 -58 106 -167 l 206 -58 q 400 -194 226 -194 q 622 28 622 -194 l 622 97 q 382 -17 538 -17 q 140 86 231 -17 q 49 358 49 189 q 140 632 49 531 q 382 733 229 733 q 628 613 542 733 m 396 83 q 564 157 501 83 q 626 358 626 231 q 564 560 626 486 q 396 633 501 633 q 228 558 292 633 q 165 358 165 483 q 228 158 165 233 q 396 83 292 83 z "},"h":{"ha":750,"x_min":83,"x_max":667,"o":"m 414 733 q 600 668 533 733 q 667 485 667 603 l 667 0 l 556 0 l 556 474 q 392 633 556 633 q 254 575 314 633 q 194 406 194 517 l 194 0 l 83 0 l 83 989 l 194 989 l 194 618 q 414 733 276 733 z "},"i":{"ha":278,"x_min":79,"x_max":197,"o":"m 197 825 l 79 825 l 79 961 l 197 961 l 197 825 m 194 0 l 83 0 l 83 717 l 194 717 l 194 0 z "},"j":{"ha":278,"x_min":-31,"x_max":197,"o":"m 197 825 l 79 825 l 79 961 l 197 961 l 197 825 m 29 -276 q -31 -275 -15 -276 l -31 -179 l 15 -179 q 83 -118 83 -179 l 83 717 l 194 717 l 194 -128 q 29 -276 194 -276 z "},"k":{"ha":700,"x_min":83,"x_max":693,"o":"m 693 0 l 564 0 l 322 385 l 194 265 l 194 0 l 83 0 l 83 989 l 194 989 l 194 396 l 526 717 l 674 717 l 401 458 l 693 0 z "},"l":{"ha":278,"x_min":83,"x_max":194,"o":"m 194 0 l 83 0 l 83 989 l 194 989 l 194 0 z "},"m":{"ha":1167,"x_min":83,"x_max":1083,"o":"m 838 733 q 1019 666 954 733 q 1083 486 1083 599 l 1083 0 l 972 0 l 972 475 q 822 633 972 633 q 691 570 743 633 q 639 392 639 507 l 639 0 l 528 0 l 528 475 q 378 633 528 633 q 247 570 300 633 q 194 392 194 507 l 194 0 l 83 0 l 83 717 l 189 717 l 189 611 q 396 733 260 733 q 617 599 557 733 q 838 733 692 733 z "},"n":{"ha":750,"x_min":83,"x_max":667,"o":"m 414 733 q 600 668 533 733 q 667 485 667 603 l 667 0 l 556 0 l 556 474 q 392 633 556 633 q 254 575 314 633 q 194 406 194 517 l 194 0 l 83 0 l 83 717 l 189 717 l 189 610 q 414 733 271 733 z "},"o":{"ha":792,"x_min":49,"x_max":743,"o":"m 646 86 q 396 -17 547 -17 q 146 86 244 -17 q 49 358 49 188 q 146 631 49 529 q 396 733 244 733 q 646 631 547 733 q 743 358 743 529 q 646 86 743 188 m 228 157 q 396 83 290 83 q 564 157 501 83 q 626 358 626 229 q 564 561 626 489 q 396 633 501 633 q 228 561 290 633 q 165 358 165 489 q 228 157 165 229 z "},"p":{"ha":817,"x_min":83,"x_max":768,"o":"m 435 733 q 678 632 586 733 q 768 358 768 529 q 678 86 768 189 q 435 -17 586 -17 q 194 103 281 -17 l 194 -272 l 83 -272 l 83 717 l 189 717 l 189 606 q 435 733 275 733 m 421 83 q 588 159 525 83 q 651 364 651 235 q 590 562 651 490 q 421 633 528 633 q 253 561 315 633 q 190 358 190 489 q 253 157 190 229 q 421 83 315 83 z "},"q":{"ha":817,"x_min":49,"x_max":733,"o":"m 628 606 l 628 717 l 733 717 l 733 -272 l 622 -272 l 622 103 q 382 -17 536 -17 q 140 86 231 -17 q 49 358 49 189 q 140 632 49 531 q 382 733 229 733 q 628 606 542 733 m 165 353 q 228 154 165 225 q 396 83 290 83 q 564 157 501 83 q 626 358 626 229 q 564 560 626 486 q 396 633 501 633 q 228 558 292 633 q 165 353 165 482 z "},"r":{"ha":492,"x_min":83,"x_max":457,"o":"m 419 728 q 457 726 447 728 l 457 619 l 429 619 q 256 565 318 619 q 194 408 194 510 l 194 0 l 83 0 l 83 717 l 189 717 l 189 590 q 419 728 261 728 z "},"s":{"ha":649,"x_min":32,"x_max":621,"o":"m 336 -17 q 32 228 49 -17 l 144 228 q 198 113 154 147 q 336 79 242 79 q 508 190 508 79 q 473 264 508 239 q 344 307 438 289 l 278 319 q 54 531 54 361 q 124 678 54 624 q 315 733 194 733 q 607 496 600 733 l 496 496 q 449 606 492 574 q 315 638 406 638 q 204 610 243 638 q 165 532 165 582 q 199 461 165 485 q 310 421 232 438 l 374 408 q 563 333 506 382 q 621 197 621 285 q 545 40 621 96 q 336 -17 469 -17 z "},"t":{"ha":432,"x_min":21,"x_max":397,"o":"m 397 717 l 397 619 l 250 619 l 250 154 q 332 93 250 93 l 397 93 l 397 0 q 318 -4 351 -4 q 139 144 139 -4 l 139 619 l 21 619 l 21 717 l 139 717 l 139 919 l 250 919 l 250 717 l 397 717 z "},"u":{"ha":750,"x_min":83,"x_max":667,"o":"m 556 311 l 556 717 l 667 717 l 667 0 l 561 0 l 561 107 q 336 -17 479 -17 q 150 49 217 -17 q 83 232 83 114 l 83 717 l 194 717 l 194 243 q 358 83 194 83 q 496 142 436 83 q 556 311 556 200 z "},"v":{"ha":693,"x_min":7,"x_max":686,"o":"m 449 399 l 567 717 l 686 717 l 404 0 l 288 0 l 7 717 l 128 717 l 246 397 q 347 119 333 163 q 449 399 372 193 z "},"w":{"ha":1081,"x_min":7,"x_max":1074,"o":"m 853 393 l 954 717 l 1074 717 l 835 0 l 718 0 l 613 332 q 540 575 558 508 q 467 332 508 461 l 363 0 l 246 0 l 7 717 l 126 717 l 228 393 q 306 132 265 275 q 382 393 350 290 l 482 717 l 599 717 l 699 393 q 776 135 775 139 q 853 393 788 178 z "},"x":{"ha":689,"x_min":7,"x_max":682,"o":"m 668 717 l 408 367 l 682 0 l 551 0 l 513 54 q 344 288 411 199 q 174 53 244 153 l 136 0 l 7 0 l 281 367 l 21 717 l 151 717 l 207 640 q 346 446 300 515 q 485 640 451 594 l 539 717 l 668 717 z "},"y":{"ha":665,"x_min":7,"x_max":658,"o":"m 436 419 l 538 717 l 658 717 l 356 -112 q 268 -240 324 -203 q 122 -276 213 -276 q 56 -272 92 -276 l 56 -179 l 121 -179 q 251 -90 217 -179 l 276 -24 l 7 717 l 129 717 l 231 418 q 333 108 285 260 q 436 419 374 238 z "},"z":{"ha":676,"x_min":49,"x_max":628,"o":"m 340 97 l 628 97 l 628 0 l 49 0 l 49 83 l 376 506 q 432 575 400 535 q 469 622 464 615 q 317 619 400 619 l 63 619 l 63 717 l 608 717 l 608 633 l 281 211 q 225 142 257 182 q 188 94 193 101 q 340 97 257 97 z "},"{":{"ha":479,"x_min":56,"x_max":451,"o":"m 451 -272 l 358 -272 q 169 -99 169 -272 l 169 271 q 143 335 169 314 q 56 358 117 357 l 56 456 q 143 478 117 457 q 169 543 169 500 l 169 913 q 358 1086 169 1086 l 451 1086 l 451 989 l 363 989 q 281 907 281 989 l 281 526 q 255 440 281 468 q 172 408 229 411 l 172 406 q 255 374 229 403 q 281 288 281 346 l 281 -93 q 363 -175 281 -175 l 451 -175 l 451 -272 z "},"|":{"ha":281,"x_min":90,"x_max":190,"o":"m 190 -272 l 90 -272 l 90 1107 l 190 1107 l 190 -272 z "},"}":{"ha":479,"x_min":28,"x_max":424,"o":"m 121 -272 l 28 -272 l 28 -175 l 117 -175 q 199 -93 199 -175 l 199 288 q 224 374 199 346 q 307 406 250 403 l 307 408 q 224 440 250 411 q 199 526 199 468 l 199 907 q 117 989 199 989 l 28 989 l 28 1086 l 121 1086 q 310 913 310 1086 l 310 543 q 336 478 310 500 q 424 456 363 457 l 424 358 q 336 335 363 357 q 310 271 310 314 l 310 -99 q 121 -272 310 -272 z "},"~":{"ha":735,"x_min":56,"x_max":679,"o":"m 501 399 q 351 451 444 399 q 233 496 274 496 q 153 406 165 496 l 56 406 q 109 549 63 497 q 233 600 156 600 q 389 546 286 600 q 501 503 469 503 q 582 593 567 503 l 679 593 q 626 450 672 501 q 501 399 579 399 z "}," ":{"ha":264,"x_min":0,"x_max":0,"o":""},"¡":{"ha":265,"x_min":63,"x_max":203,"o":"m 203 675 l 63 675 l 63 814 l 203 814 l 203 675 m 192 -175 l 75 -175 l 75 97 l 94 556 l 167 556 l 192 97 l 192 -175 z "},"¢":{"ha":724,"x_min":49,"x_max":689,"o":"m 428 628 l 428 89 q 575 246 550 115 l 689 246 q 603 69 674 139 q 428 -14 533 0 l 428 -161 l 331 -161 l 331 -14 q 125 104 201 4 q 49 358 49 204 q 124 615 49 515 q 331 731 200 714 l 331 872 l 428 872 l 428 731 q 605 650 536 718 q 689 474 674 582 l 574 474 q 522 576 561 536 q 428 628 483 617 m 165 358 q 210 176 165 246 q 331 89 254 107 l 331 628 q 209 542 253 611 q 165 358 165 472 z "},"£":{"ha":763,"x_min":42,"x_max":728,"o":"m 326 346 q 197 106 326 218 l 728 106 l 728 0 l 58 0 l 58 106 q 173 215 138 161 q 208 346 208 269 q 204 390 208 369 l 42 390 l 42 486 l 174 486 q 150 535 172 493 q 86 749 86 658 q 169 939 86 867 q 390 1011 251 1011 q 639 928 554 1011 q 728 701 724 844 l 607 701 q 547 855 599 804 q 385 906 494 906 q 251 863 299 906 q 204 749 204 821 q 258 576 204 692 q 299 486 286 515 l 603 486 l 603 390 l 324 390 q 326 346 326 354 z "},"¤":{"ha":811,"x_min":49,"x_max":763,"o":"m 763 796 l 654 688 q 721 494 721 607 q 654 301 721 383 l 763 193 l 690 121 l 579 232 q 410 185 501 185 q 236 236 313 185 l 121 121 l 49 193 l 161 306 q 99 494 99 390 q 161 683 99 599 l 49 796 l 121 868 l 236 753 q 410 804 313 804 q 579 757 501 804 l 690 868 l 763 796 m 271 633 q 215 494 215 578 q 271 356 215 411 q 410 300 325 300 q 550 356 494 300 q 604 494 604 411 q 550 633 604 578 q 410 689 494 689 q 271 633 325 689 z "},"¥":{"ha":914,"x_min":21,"x_max":893,"o":"m 761 989 l 893 989 l 576 493 l 758 493 l 758 397 l 515 397 l 515 293 l 758 293 l 758 199 l 515 199 l 515 0 l 399 0 l 399 199 l 156 199 l 156 293 l 399 293 l 399 397 l 156 397 l 156 493 l 338 493 l 21 989 l 154 989 l 300 757 q 458 501 394 610 q 617 758 547 651 l 761 989 z "},"¦":{"ha":281,"x_min":90,"x_max":190,"o":"m 190 553 l 90 553 l 90 1107 l 190 1107 l 190 553 m 190 -283 l 90 -283 l 90 271 l 190 271 l 190 -283 z "},"§":{"ha":785,"x_min":42,"x_max":750,"o":"m 750 281 q 579 74 750 140 q 661 -87 661 3 q 593 -235 661 -181 q 406 -289 525 -289 q 208 -228 276 -289 q 136 -51 139 -167 l 247 -51 q 291 -160 251 -128 q 407 -193 331 -193 q 550 -87 550 -193 q 479 21 550 -29 q 406 67 461 33 l 286 138 q 99 283 156 215 q 42 442 42 351 q 213 649 42 582 q 131 810 131 719 q 199 957 131 903 q 386 1011 267 1011 q 584 950 515 1011 q 656 774 653 889 l 544 774 q 501 883 540 850 q 385 915 461 915 q 242 810 242 915 q 313 703 242 750 q 386 656 329 690 l 506 585 q 693 439 636 507 q 750 281 750 371 m 497 132 q 603 188 567 147 q 640 281 640 229 q 603 380 640 336 q 476 479 565 424 l 354 553 q 294 590 319 574 q 188 534 225 575 q 151 442 151 493 q 189 342 151 386 q 315 243 226 299 l 438 169 q 497 132 472 149 z "},"¨":{"ha":556,"x_min":97,"x_max":458,"o":"m 215 825 l 97 825 l 97 961 l 215 961 l 215 825 m 458 825 l 340 825 l 340 961 l 458 961 l 458 825 z "},"©":{"ha":1138,"x_min":49,"x_max":1089,"o":"m 940 128 q 568 -22 792 -22 q 197 128 344 -22 q 49 494 49 276 q 197 863 49 711 q 568 1013 344 1013 q 940 863 792 1013 q 1089 494 1089 711 q 940 128 1089 276 m 568 65 q 874 189 753 65 q 994 494 994 311 q 874 801 994 678 q 568 925 753 925 q 264 801 385 925 q 143 494 143 678 q 264 189 143 311 q 568 65 385 65 m 574 182 q 374 268 449 182 q 297 494 297 353 q 372 722 297 638 q 574 807 447 807 q 749 748 681 807 q 832 588 818 689 l 731 588 q 677 685 719 650 q 574 719 635 719 q 445 660 492 719 q 399 494 399 600 q 445 330 399 389 q 574 271 492 271 q 678 306 635 271 q 731 404 721 340 l 832 404 q 747 242 817 303 q 574 182 678 182 z "},"ª":{"ha":653,"x_min":42,"x_max":639,"o":"m 606 449 l 639 449 l 639 364 q 583 360 610 360 q 468 453 476 360 q 261 350 403 350 q 101 398 160 350 q 42 532 42 446 q 274 726 42 703 l 365 736 q 440 761 417 742 q 463 819 463 781 q 431 891 463 868 q 328 914 400 914 q 214 887 249 914 q 175 793 179 860 l 67 793 q 328 1001 78 1001 q 569 819 569 1001 l 569 483 q 606 449 569 449 m 275 436 q 409 483 356 436 q 463 613 463 529 l 463 682 q 381 656 438 661 l 292 646 q 154 536 154 632 q 185 463 154 489 q 275 436 217 436 z "},"«":{"ha":701,"x_min":90,"x_max":611,"o":"m 326 100 l 90 293 l 90 422 l 326 615 l 326 486 l 168 358 l 326 229 l 326 100 m 375 422 l 611 615 l 611 486 l 453 358 l 611 229 l 611 100 l 375 293 l 375 422 z "},"¬":{"ha":735,"x_min":56,"x_max":679,"o":"m 56 486 l 56 586 l 679 586 l 679 229 l 571 229 l 571 486 l 56 486 z "},"­":{"ha":513,"x_min":56,"x_max":457,"o":"m 457 342 l 56 342 l 56 442 l 457 442 l 457 342 z "},"®":{"ha":790,"x_min":56,"x_max":735,"o":"m 154 915 q 396 1011 253 1011 q 638 915 539 1011 q 735 682 735 819 q 638 449 735 544 q 396 353 539 353 q 154 449 253 353 q 56 682 56 544 q 154 915 56 819 m 396 418 q 588 494 511 418 q 665 682 665 572 q 588 871 665 793 q 396 947 511 947 q 203 871 279 947 q 125 682 125 793 q 203 494 125 572 q 396 418 279 418 m 528 615 l 532 564 q 549 510 533 533 l 486 510 q 472 564 474 526 l 469 600 q 456 640 467 629 q 421 651 446 651 l 325 651 l 325 510 l 264 510 l 264 863 l 414 863 q 505 837 472 863 q 538 764 538 811 q 486 681 538 703 q 528 615 524 667 m 325 707 l 419 707 q 475 757 475 707 q 414 807 475 807 l 325 807 l 325 707 z "},"¯":{"ha":556,"x_min":76,"x_max":479,"o":"m 479 825 l 76 825 l 76 918 l 479 918 l 479 825 z "},"°":{"ha":467,"x_min":56,"x_max":411,"o":"m 411 831 q 411 795 411 831 q 360 710 411 760 q 233 660 308 660 q 107 710 158 660 q 56 831 56 760 q 107 951 56 901 q 233 1000 160 1000 q 360 951 307 1000 q 411 831 411 901 m 233 743 q 296 768 271 743 q 321 831 321 793 q 296 892 321 868 q 233 917 271 917 q 171 892 196 917 q 146 831 146 868 q 172 768 146 793 q 233 743 197 743 z "},"±":{"ha":735,"x_min":56,"x_max":679,"o":"m 421 801 l 421 563 l 679 563 l 679 463 l 421 463 l 421 225 l 313 225 l 313 463 l 56 463 l 56 563 l 313 563 l 313 801 l 421 801 m 679 0 l 56 0 l 56 100 l 679 100 l 679 0 z "},"²":{"ha":463,"x_min":14,"x_max":442,"o":"m 125 821 l 442 821 l 442 733 l 14 733 l 15 772 q 60 920 19 861 q 197 1018 101 979 l 236 1033 q 335 1144 335 1074 q 228 1232 335 1232 q 148 1203 175 1232 q 121 1128 121 1175 l 21 1128 q 76 1267 22 1215 q 231 1319 129 1319 q 382 1271 328 1319 q 436 1147 436 1222 q 278 953 436 1022 l 229 932 q 156 886 179 911 q 125 821 132 861 z "},"³":{"ha":485,"x_min":14,"x_max":460,"o":"m 364 1039 q 434 987 408 1024 q 460 899 460 950 q 400 770 460 819 q 240 721 340 721 q 74 773 133 721 q 14 919 15 825 l 115 919 q 240 804 115 804 q 326 830 294 804 q 357 901 357 856 q 235 994 357 994 l 197 994 l 197 1071 l 238 1071 q 346 1156 346 1071 q 318 1215 346 1193 q 242 1236 290 1236 q 135 1149 142 1236 l 33 1149 q 94 1275 39 1231 q 242 1319 149 1319 q 391 1278 336 1319 q 446 1165 446 1236 q 364 1039 446 1081 z "},"´":{"ha":556,"x_min":143,"x_max":413,"o":"m 242 825 l 143 825 l 263 1025 l 413 1025 l 242 825 z "},"µ":{"ha":750,"x_min":83,"x_max":667,"o":"m 556 311 l 556 717 l 667 717 l 667 0 l 561 0 l 561 107 q 336 -17 479 -17 q 194 33 256 -17 l 194 -272 l 83 -272 l 83 717 l 194 717 l 194 243 q 358 83 194 83 q 496 142 436 83 q 556 311 556 200 z "},"¶":{"ha":735,"x_min":47,"x_max":644,"o":"m 454 0 l 351 0 l 351 504 q 130 567 213 504 q 47 743 47 631 q 375 989 47 989 l 644 989 l 644 0 l 542 0 l 542 883 l 454 883 l 454 0 z "},"·":{"ha":265,"x_min":63,"x_max":203,"o":"m 203 425 l 63 425 l 63 564 l 203 564 l 203 425 z "},"¸":{"ha":556,"x_min":142,"x_max":417,"o":"m 279 -60 l 292 -60 q 383 -90 349 -60 q 417 -169 417 -121 q 226 -303 417 -303 q 142 -294 183 -303 l 142 -231 q 222 -236 181 -236 q 286 -219 263 -236 q 310 -172 310 -203 q 231 -115 310 -115 q 192 -117 204 -115 l 192 -64 l 247 7 l 338 7 l 279 -60 z "},"¹":{"ha":301,"x_min":21,"x_max":267,"o":"m 178 1307 l 267 1307 l 267 733 l 160 733 l 160 1143 l 21 1143 l 21 1218 q 123 1237 89 1218 q 178 1307 157 1256 z "},"º":{"ha":721,"x_min":56,"x_max":665,"o":"m 361 350 q 140 439 225 350 q 56 675 56 528 q 140 913 56 824 q 361 1001 225 1001 q 581 913 496 1001 q 665 675 665 824 q 581 439 665 528 q 361 350 496 350 m 222 507 q 361 444 275 444 q 500 507 447 444 q 551 675 551 567 q 500 845 551 783 q 361 907 449 907 q 221 845 272 907 q 169 675 169 783 q 222 507 169 568 z "},"»":{"ha":701,"x_min":90,"x_max":611,"o":"m 249 358 l 90 486 l 90 615 l 326 422 l 326 293 l 90 100 l 90 229 l 249 358 m 375 486 l 375 615 l 611 422 l 611 293 l 375 100 l 375 229 l 533 358 l 375 486 z "},"¼":{"ha":1018,"x_min":21,"x_max":997,"o":"m 267 989 l 267 415 l 160 415 l 160 825 l 21 825 l 21 900 q 123 919 89 900 q 178 989 157 938 l 267 989 m 161 0 l 689 989 l 793 989 l 265 0 l 161 0 m 914 226 l 997 226 l 997 139 l 914 139 l 914 0 l 808 0 l 808 139 l 519 139 l 519 240 l 807 574 l 914 574 l 914 226 m 813 226 l 813 457 l 614 226 l 813 226 z "},"½":{"ha":1060,"x_min":21,"x_max":1039,"o":"m 267 989 l 267 415 l 160 415 l 160 825 l 21 825 l 21 900 q 123 919 89 900 q 178 989 157 938 l 267 989 m 161 0 l 689 989 l 793 989 l 265 0 l 161 0 m 722 88 l 1039 88 l 1039 0 l 611 0 l 613 39 q 658 187 617 128 q 794 285 699 246 l 833 300 q 932 411 932 340 q 825 499 932 499 q 745 470 772 499 q 718 394 718 442 l 618 394 q 673 534 619 482 q 828 586 726 586 q 979 538 925 586 q 1033 414 1033 489 q 875 219 1033 289 l 826 199 q 753 153 776 178 q 722 88 729 128 z "},"¾":{"ha":1150,"x_min":14,"x_max":1129,"o":"m 460 581 q 400 452 460 501 q 240 403 340 403 q 74 455 133 403 q 14 601 15 507 l 115 601 q 240 486 115 486 q 326 512 294 486 q 357 583 357 538 q 235 676 357 676 l 197 676 l 197 753 l 238 753 q 346 838 346 753 q 318 897 346 875 q 242 918 290 918 q 135 831 142 918 l 33 831 q 94 957 39 913 q 242 1001 149 1001 q 391 960 336 1001 q 446 847 446 918 q 424 774 446 808 q 364 721 401 740 q 434 669 408 706 q 460 581 460 632 m 297 0 l 825 989 l 929 989 l 401 0 l 297 0 m 1046 226 l 1129 226 l 1129 139 l 1046 139 l 1046 0 l 940 0 l 940 139 l 651 139 l 651 240 l 939 574 l 1046 574 l 1046 226 m 944 226 l 944 457 l 746 226 l 944 226 z "},"¿":{"ha":704,"x_min":42,"x_max":669,"o":"m 435 675 l 294 675 l 294 814 l 435 814 l 435 675 m 347 -197 q 123 -129 204 -197 q 42 65 42 -61 q 76 192 42 136 q 188 314 111 249 q 292 432 268 382 q 310 556 307 465 l 419 556 q 394 390 419 453 q 282 254 371 333 q 271 244 278 250 q 190 157 211 190 l 181 140 q 160 67 160 104 q 343 -92 160 -92 q 497 -41 444 -92 q 556 129 549 10 l 669 129 q 583 -114 668 -31 q 347 -197 499 -197 z "},"À":{"ha":967,"x_min":21,"x_max":946,"o":"m 404 1249 l 524 1049 l 425 1049 l 254 1249 l 404 1249 m 946 0 l 822 0 l 707 288 l 257 288 l 143 0 l 21 0 l 415 989 l 546 989 l 946 0 m 303 404 l 299 393 l 665 393 l 660 406 q 479 863 625 490 q 303 404 381 599 z "},"Á":{"ha":967,"x_min":21,"x_max":946,"o":"m 549 1249 l 699 1249 l 528 1049 l 429 1049 l 549 1249 m 946 0 l 822 0 l 707 288 l 257 288 l 143 0 l 21 0 l 415 989 l 546 989 l 946 0 m 303 404 l 299 393 l 665 393 l 660 406 q 479 863 625 490 q 303 404 381 599 z "},"Â":{"ha":967,"x_min":21,"x_max":946,"o":"m 610 1049 l 479 1183 l 349 1049 l 238 1049 l 396 1249 l 563 1249 l 721 1049 l 610 1049 m 946 0 l 822 0 l 707 288 l 257 288 l 143 0 l 21 0 l 415 989 l 546 989 l 946 0 m 303 404 l 299 393 l 665 393 l 660 406 q 479 863 625 490 q 303 404 381 599 z "},"Ã":{"ha":967,"x_min":21,"x_max":946,"o":"m 378 1118 q 339 1049 339 1118 l 244 1049 q 369 1219 244 1219 q 490 1181 414 1219 q 578 1150 547 1150 q 617 1219 617 1150 l 711 1219 q 586 1049 711 1049 q 460 1089 547 1049 q 378 1118 399 1118 m 946 0 l 822 0 l 707 288 l 257 288 l 143 0 l 21 0 l 415 989 l 546 989 l 946 0 m 303 404 l 299 393 l 665 393 l 660 406 q 479 863 625 490 q 303 404 381 599 z "},"Ä":{"ha":967,"x_min":21,"x_max":946,"o":"m 297 1185 l 415 1185 l 415 1049 l 297 1049 l 297 1185 m 540 1185 l 658 1185 l 658 1049 l 540 1049 l 540 1185 m 946 0 l 822 0 l 707 288 l 257 288 l 143 0 l 21 0 l 415 989 l 546 989 l 946 0 m 303 404 l 299 393 l 665 393 l 660 406 q 479 863 625 490 q 303 404 381 599 z "},"Å":{"ha":967,"x_min":21,"x_max":946,"o":"m 946 0 l 822 0 l 707 288 l 257 288 l 143 0 l 21 0 l 392 929 q 303 1078 303 976 q 353 1199 303 1150 q 479 1247 404 1247 q 605 1199 554 1247 q 656 1078 656 1150 q 569 931 656 979 l 946 0 m 543 1142 q 479 1167 517 1167 q 415 1142 442 1167 q 389 1078 389 1115 q 415 1015 389 1040 q 479 989 442 989 q 543 1015 517 989 q 569 1078 569 1040 q 543 1142 569 1115 m 303 404 l 299 393 l 665 393 l 660 406 q 479 863 625 490 q 303 404 381 599 z "},"Æ":{"ha":1433,"x_min":21,"x_max":1399,"o":"m 1399 989 l 1399 883 l 869 883 l 869 568 l 1343 568 l 1343 463 l 869 463 l 869 106 l 1393 106 l 1393 0 l 753 0 l 753 288 l 304 288 l 150 0 l 21 0 l 556 989 l 1399 989 m 625 883 l 361 393 l 753 393 l 753 883 l 625 883 z "},"Ç":{"ha":974,"x_min":49,"x_max":932,"o":"m 815 360 l 932 360 q 808 93 915 192 q 553 -19 703 -4 l 499 -82 l 511 -82 q 602 -112 568 -82 q 636 -192 636 -143 q 446 -325 636 -325 q 361 -317 403 -325 l 361 -253 q 442 -258 400 -258 q 506 -242 482 -258 q 529 -194 529 -225 q 450 -137 529 -137 q 411 -139 424 -137 l 411 -86 l 463 -21 q 164 133 279 -7 q 49 494 49 272 q 176 871 49 731 q 506 1011 304 1011 q 778 924 665 1011 q 926 671 890 838 l 808 671 q 506 904 746 904 q 263 796 354 904 q 171 494 171 686 q 263 194 171 303 q 506 85 354 85 q 708 156 619 85 q 815 360 796 224 z "},"È":{"ha":813,"x_min":90,"x_max":778,"o":"m 360 1249 l 479 1049 l 381 1049 l 210 1249 l 360 1249 m 778 989 l 778 883 l 207 883 l 207 568 l 722 568 l 722 463 l 207 463 l 207 106 l 772 106 l 772 0 l 90 0 l 90 989 l 778 989 z "},"É":{"ha":813,"x_min":90,"x_max":778,"o":"m 504 1249 l 654 1249 l 483 1049 l 385 1049 l 504 1249 m 778 989 l 778 883 l 207 883 l 207 568 l 722 568 l 722 463 l 207 463 l 207 106 l 772 106 l 772 0 l 90 0 l 90 989 l 778 989 z "},"Ê":{"ha":813,"x_min":90,"x_max":778,"o":"m 565 1049 l 435 1183 l 304 1049 l 193 1049 l 351 1249 l 518 1249 l 676 1049 l 565 1049 m 778 989 l 778 883 l 207 883 l 207 568 l 722 568 l 722 463 l 207 463 l 207 106 l 772 106 l 772 0 l 90 0 l 90 989 l 778 989 z "},"Ë":{"ha":813,"x_min":90,"x_max":778,"o":"m 253 1185 l 371 1185 l 371 1049 l 253 1049 l 253 1185 m 496 1185 l 614 1185 l 614 1049 l 496 1049 l 496 1185 m 778 989 l 778 883 l 207 883 l 207 568 l 722 568 l 722 463 l 207 463 l 207 106 l 772 106 l 772 0 l 90 0 l 90 989 l 778 989 z "},"Ì":{"ha":297,"x_min":-22,"x_max":207,"o":"m 192 1049 l 101 1049 l -22 1249 l 114 1249 l 192 1049 m 207 0 l 90 0 l 90 989 l 207 989 l 207 0 z "},"Í":{"ha":297,"x_min":90,"x_max":318,"o":"m 318 1249 l 194 1049 l 104 1049 l 182 1249 l 318 1249 m 207 0 l 90 0 l 90 989 l 207 989 l 207 0 z "},"Î":{"ha":297,"x_min":-61,"x_max":358,"o":"m 69 1249 l 228 1249 l 358 1049 l 254 1049 l 147 1185 l 43 1049 l -61 1049 l 69 1249 m 207 0 l 90 0 l 90 989 l 207 989 l 207 0 z "},"Ï":{"ha":297,"x_min":-14,"x_max":311,"o":"m 104 1049 l -14 1049 l -14 1185 l 104 1185 l 104 1049 m 311 1049 l 193 1049 l 193 1185 l 311 1185 l 311 1049 m 207 0 l 90 0 l 90 989 l 207 989 l 207 0 z "},"Ð":{"ha":983,"x_min":0,"x_max":935,"o":"m 117 989 l 450 989 q 806 858 675 989 q 935 494 935 728 q 806 132 935 264 q 450 0 674 0 l 117 0 l 117 464 l 0 464 l 0 554 l 117 554 l 117 989 m 233 106 l 450 106 q 719 208 625 106 q 813 494 813 311 q 719 781 813 678 q 450 883 625 883 l 233 883 l 233 554 l 507 554 l 507 464 l 233 464 l 233 106 z "},"Ñ":{"ha":967,"x_min":90,"x_max":876,"o":"m 382 1118 q 343 1049 343 1118 l 249 1049 q 374 1219 249 1219 q 494 1181 418 1219 q 582 1150 551 1150 q 621 1219 621 1150 l 715 1219 q 590 1049 715 1049 q 464 1089 551 1049 q 382 1118 404 1118 m 761 656 l 761 989 l 876 989 l 876 0 l 735 0 l 407 510 q 201 844 265 735 q 206 333 206 650 l 206 0 l 90 0 l 90 989 l 232 989 l 560 479 q 765 144 701 254 q 761 656 761 339 z "},"Ò":{"ha":1044,"x_min":49,"x_max":996,"o":"m 567 1071 l 468 1071 l 297 1271 l 447 1271 l 567 1071 m 867 121 q 522 -22 736 -22 q 179 121 308 -22 q 49 494 49 261 q 179 869 49 726 q 522 1011 308 1011 q 867 869 736 1011 q 996 494 996 725 q 867 121 996 263 m 267 196 q 522 85 363 85 q 778 196 682 85 q 874 494 874 306 q 778 793 874 683 q 522 904 682 904 q 267 793 363 904 q 171 494 171 683 q 267 196 171 306 z "},"Ó":{"ha":1044,"x_min":49,"x_max":996,"o":"m 571 1071 l 472 1071 l 592 1271 l 742 1271 l 571 1071 m 867 121 q 522 -22 736 -22 q 179 121 308 -22 q 49 494 49 261 q 179 869 49 726 q 522 1011 308 1011 q 867 869 736 1011 q 996 494 996 725 q 867 121 996 263 m 267 196 q 522 85 363 85 q 778 196 682 85 q 874 494 874 306 q 778 793 874 683 q 522 904 682 904 q 267 793 363 904 q 171 494 171 683 q 267 196 171 306 z "},"Ô":{"ha":1044,"x_min":49,"x_max":996,"o":"m 653 1071 l 522 1206 l 392 1071 l 281 1071 l 439 1271 l 606 1271 l 764 1071 l 653 1071 m 179 869 q 522 1011 308 1011 q 867 869 736 1011 q 996 494 996 725 q 867 121 996 263 q 522 -22 736 -22 q 179 121 308 -22 q 49 494 49 261 q 179 869 49 726 m 267 196 q 522 85 363 85 q 778 196 682 85 q 874 494 874 306 q 778 793 874 683 q 522 904 682 904 q 267 793 363 904 q 171 494 171 683 q 267 196 171 306 z "},"Õ":{"ha":1044,"x_min":49,"x_max":996,"o":"m 382 1071 l 288 1071 q 413 1242 288 1242 q 533 1203 457 1242 q 621 1172 590 1172 q 660 1242 660 1172 l 754 1242 q 629 1071 754 1071 q 503 1111 590 1071 q 421 1140 442 1140 q 382 1071 382 1140 m 867 121 q 522 -22 736 -22 q 179 121 308 -22 q 49 494 49 261 q 179 869 49 726 q 522 1011 308 1011 q 867 869 736 1011 q 996 494 996 725 q 867 121 996 263 m 267 196 q 522 85 363 85 q 778 196 682 85 q 874 494 874 306 q 778 793 874 683 q 522 904 682 904 q 267 793 363 904 q 171 494 171 683 q 267 196 171 306 z "},"Ö":{"ha":1044,"x_min":49,"x_max":996,"o":"m 458 1071 l 340 1071 l 340 1207 l 458 1207 l 458 1071 m 701 1071 l 583 1071 l 583 1207 l 701 1207 l 701 1071 m 867 121 q 522 -22 736 -22 q 179 121 308 -22 q 49 494 49 261 q 179 869 49 726 q 522 1011 308 1011 q 867 869 736 1011 q 996 494 996 725 q 867 121 996 263 m 267 196 q 522 85 363 85 q 778 196 682 85 q 874 494 874 306 q 778 793 874 683 q 522 904 682 904 q 267 793 363 904 q 171 494 171 683 q 267 196 171 306 z "},"×":{"ha":735,"x_min":88,"x_max":647,"o":"m 576 774 l 647 703 l 439 494 l 647 286 l 576 215 l 368 424 l 158 215 l 88 286 l 296 494 l 88 703 l 158 774 l 368 565 l 576 774 z "},"Ø":{"ha":1044,"x_min":22,"x_max":1022,"o":"m 949 1049 l 1022 983 l 893 838 q 996 494 996 697 q 867 121 996 263 q 522 -22 736 -22 q 221 79 343 -22 l 96 -61 l 22 4 l 153 151 q 49 494 49 288 q 179 869 49 726 q 522 1011 308 1011 q 825 908 699 1011 l 949 1049 m 171 494 q 233 242 171 343 l 749 824 q 522 904 658 904 q 267 793 363 904 q 171 494 171 683 m 874 494 q 813 746 874 640 l 297 165 q 522 85 388 85 q 778 196 682 85 q 874 494 874 306 z "},"Ù":{"ha":931,"x_min":76,"x_max":854,"o":"m 510 1049 l 411 1049 l 240 1249 l 390 1249 l 510 1049 m 854 367 q 753 81 854 182 q 465 -21 651 -21 q 178 81 279 -21 q 76 367 76 182 l 76 989 l 193 989 l 193 367 q 465 85 193 85 q 738 367 738 85 l 738 989 l 854 989 l 854 367 z "},"Ú":{"ha":931,"x_min":76,"x_max":854,"o":"m 514 1049 l 415 1049 l 535 1249 l 685 1249 l 514 1049 m 854 367 q 753 81 854 182 q 465 -21 651 -21 q 178 81 279 -21 q 76 367 76 182 l 76 989 l 193 989 l 193 367 q 465 85 193 85 q 738 367 738 85 l 738 989 l 854 989 l 854 367 z "},"Û":{"ha":931,"x_min":76,"x_max":854,"o":"m 596 1049 l 465 1183 l 335 1049 l 224 1049 l 382 1249 l 549 1249 l 707 1049 l 596 1049 m 738 367 l 738 989 l 854 989 l 854 367 q 753 81 854 182 q 465 -21 651 -21 q 178 81 279 -21 q 76 367 76 182 l 76 989 l 193 989 l 193 367 q 465 85 193 85 q 738 367 738 85 z "},"Ü":{"ha":931,"x_min":76,"x_max":854,"o":"m 401 1049 l 283 1049 l 283 1185 l 401 1185 l 401 1049 m 644 1049 l 526 1049 l 526 1185 l 644 1185 l 644 1049 m 854 367 q 753 81 854 182 q 465 -21 651 -21 q 178 81 279 -21 q 76 367 76 182 l 76 989 l 193 989 l 193 367 q 465 85 193 85 q 738 367 738 85 l 738 989 l 854 989 l 854 367 z "},"Ý":{"ha":914,"x_min":21,"x_max":893,"o":"m 526 1249 l 676 1249 l 506 1049 l 407 1049 l 526 1249 m 617 758 l 761 989 l 893 989 l 515 397 l 515 0 l 399 0 l 399 397 l 21 989 l 154 989 l 300 757 q 458 501 394 610 q 617 758 547 651 z "},"Þ":{"ha":876,"x_min":90,"x_max":829,"o":"m 207 799 l 501 799 q 744 717 658 799 q 829 494 829 635 q 744 272 829 354 q 501 190 658 190 l 207 190 l 207 0 l 90 0 l 90 989 l 207 989 l 207 799 m 207 296 l 501 296 q 656 347 604 296 q 708 494 708 397 q 656 642 708 592 q 501 693 604 693 l 207 693 l 207 296 z "},"ß":{"ha":761,"x_min":83,"x_max":713,"o":"m 517 536 q 660 440 608 506 q 713 288 713 374 q 619 74 713 151 q 367 -4 526 -4 q 296 0 342 -4 l 296 97 q 367 93 336 93 q 534 144 472 93 q 596 288 596 194 q 537 426 596 374 q 369 478 478 478 l 319 478 l 319 579 l 367 579 q 495 625 446 579 q 544 749 544 671 q 497 867 544 821 q 369 914 449 914 q 240 863 286 914 q 194 725 194 811 l 194 0 l 83 0 l 83 718 q 159 933 83 854 q 369 1011 235 1011 q 579 938 499 1011 q 657 761 657 863 q 517 536 657 607 z "},"à":{"ha":724,"x_min":42,"x_max":710,"o":"m 293 1025 l 413 825 l 314 825 l 143 1025 l 293 1025 m 669 90 l 710 90 l 710 0 q 649 -4 682 -4 q 528 99 536 -4 q 294 -17 453 -17 q 109 38 176 -17 q 42 193 42 93 q 307 415 42 388 l 410 426 q 522 525 522 439 q 485 611 522 585 q 361 638 449 638 q 227 606 268 638 q 181 496 186 575 l 69 496 q 361 733 83 733 q 631 525 631 733 l 631 125 q 669 90 631 90 m 300 78 q 456 132 389 78 q 522 283 522 185 l 522 368 q 428 338 492 344 l 324 325 q 195 283 233 314 q 157 196 157 253 q 193 109 157 140 q 300 78 229 78 z "},"á":{"ha":724,"x_min":42,"x_max":710,"o":"m 435 1025 l 585 1025 l 414 825 l 315 825 l 435 1025 m 669 90 l 710 90 l 710 0 q 649 -4 682 -4 q 528 99 536 -4 q 294 -17 453 -17 q 109 38 176 -17 q 42 193 42 93 q 307 415 42 388 l 410 426 q 522 525 522 439 q 485 611 522 585 q 361 638 449 638 q 227 606 268 638 q 181 496 186 575 l 69 496 q 361 733 83 733 q 631 525 631 733 l 631 125 q 669 90 631 90 m 300 78 q 456 132 389 78 q 522 283 522 185 l 522 368 q 428 338 492 344 l 324 325 q 195 283 233 314 q 157 196 157 253 q 193 109 157 140 q 300 78 229 78 z "},"â":{"ha":724,"x_min":42,"x_max":710,"o":"m 492 825 l 361 960 l 231 825 l 119 825 l 278 1025 l 444 1025 l 603 825 l 492 825 m 669 90 l 710 90 l 710 0 q 649 -4 682 -4 q 528 99 536 -4 q 294 -17 453 -17 q 109 38 176 -17 q 42 193 42 93 q 307 415 42 388 l 410 426 q 522 525 522 439 q 485 611 522 585 q 361 638 449 638 q 227 606 268 638 q 181 496 186 575 l 69 496 q 361 733 83 733 q 631 525 631 733 l 631 125 q 669 90 631 90 m 300 78 q 456 132 389 78 q 522 283 522 185 l 522 368 q 428 338 492 344 l 324 325 q 195 283 233 314 q 157 196 157 253 q 193 109 157 140 q 300 78 229 78 z "},"ã":{"ha":724,"x_min":42,"x_max":710,"o":"m 260 894 q 221 825 221 894 l 126 825 q 251 996 126 996 q 372 957 296 996 q 460 926 429 926 q 499 996 499 926 l 593 996 q 468 825 593 825 q 342 865 429 825 q 260 894 281 894 m 669 90 l 710 90 l 710 0 q 649 -4 682 -4 q 528 99 536 -4 q 294 -17 453 -17 q 109 38 176 -17 q 42 193 42 93 q 307 415 42 388 l 410 426 q 522 525 522 439 q 485 611 522 585 q 361 638 449 638 q 227 606 268 638 q 181 496 186 575 l 69 496 q 361 733 83 733 q 631 525 631 733 l 631 125 q 669 90 631 90 m 300 78 q 456 132 389 78 q 522 283 522 185 l 522 368 q 428 338 492 344 l 324 325 q 195 283 233 314 q 157 196 157 253 q 193 109 157 140 q 300 78 229 78 z "},"ä":{"ha":724,"x_min":42,"x_max":710,"o":"m 179 961 l 297 961 l 297 825 l 179 825 l 179 961 m 422 961 l 540 961 l 540 825 l 422 825 l 422 961 m 669 90 l 710 90 l 710 0 q 649 -4 682 -4 q 528 99 536 -4 q 294 -17 453 -17 q 109 38 176 -17 q 42 193 42 93 q 307 415 42 388 l 410 426 q 522 525 522 439 q 485 611 522 585 q 361 638 449 638 q 227 606 268 638 q 181 496 186 575 l 69 496 q 361 733 83 733 q 631 525 631 733 l 631 125 q 669 90 631 90 m 300 78 q 456 132 389 78 q 522 283 522 185 l 522 368 q 428 338 492 344 l 324 325 q 195 283 233 314 q 157 196 157 253 q 193 109 157 140 q 300 78 229 78 z "},"å":{"ha":724,"x_min":42,"x_max":710,"o":"m 488 867 q 361 818 435 818 q 236 867 288 818 q 185 988 185 914 q 236 1108 185 1061 q 361 1157 288 1157 q 488 1108 435 1157 q 538 988 538 1061 q 488 867 538 914 m 425 1051 q 361 1076 399 1076 q 297 1051 324 1076 q 271 988 271 1025 q 297 925 271 950 q 361 899 324 899 q 425 925 399 899 q 451 988 451 950 q 425 1051 451 1025 m 669 90 l 710 90 l 710 0 q 649 -4 682 -4 q 528 99 536 -4 q 294 -17 453 -17 q 109 38 176 -17 q 42 193 42 93 q 307 415 42 388 l 410 426 q 522 525 522 439 q 485 611 522 585 q 361 638 449 638 q 227 606 268 638 q 181 496 186 575 l 69 496 q 361 733 83 733 q 631 525 631 733 l 631 125 q 669 90 631 90 m 300 78 q 456 132 389 78 q 522 283 522 185 l 522 368 q 428 338 492 344 l 324 325 q 195 283 233 314 q 157 196 157 253 q 193 109 157 140 q 300 78 229 78 z "},"æ":{"ha":1199,"x_min":42,"x_max":1150,"o":"m 1150 358 l 1150 319 l 632 319 q 694 144 640 203 q 842 85 749 85 q 1022 218 983 85 l 1132 218 q 1030 47 1107 110 q 839 -17 953 -17 q 576 132 664 -17 q 457 22 531 61 q 294 -17 383 -17 q 109 38 176 -17 q 42 193 42 93 q 307 415 42 388 l 410 426 q 522 525 522 439 q 485 611 522 585 q 361 638 449 638 q 227 606 268 638 q 181 496 186 575 l 69 496 q 361 733 83 733 q 607 628 551 733 q 836 733 694 733 q 1067 626 983 733 q 1150 358 1150 521 m 836 632 q 700 577 753 632 q 635 419 647 522 l 1036 419 q 975 574 1028 515 q 836 632 922 632 m 300 78 q 456 132 389 78 q 522 283 522 185 l 522 368 q 428 338 492 344 l 324 325 q 195 283 233 314 q 157 196 157 253 q 193 109 157 140 q 300 78 229 78 z "},"ç":{"ha":724,"x_min":49,"x_max":689,"o":"m 381 83 q 508 126 454 83 q 575 246 563 169 l 689 246 q 609 74 674 142 q 444 -11 544 6 l 388 -76 l 400 -76 q 491 -107 457 -76 q 525 -186 525 -137 q 335 -319 525 -319 q 250 -311 292 -319 l 250 -247 q 331 -253 289 -253 q 394 -236 371 -253 q 418 -189 418 -219 q 339 -132 418 -132 q 300 -133 313 -132 l 300 -81 l 351 -15 q 131 97 213 -4 q 49 358 49 197 q 140 632 49 531 q 381 733 229 733 q 590 664 508 733 q 689 474 672 594 l 574 474 q 508 592 561 550 q 381 633 454 633 q 224 562 282 633 q 165 358 165 490 q 224 156 165 228 q 381 83 283 83 z "},"è":{"ha":757,"x_min":49,"x_max":708,"o":"m 311 1025 l 431 825 l 332 825 l 161 1025 l 311 1025 m 708 358 l 708 319 l 164 319 q 229 144 172 203 q 385 85 286 85 q 575 218 533 85 l 690 218 q 582 47 661 110 q 382 -17 503 -17 q 142 85 233 -17 q 49 358 49 186 q 140 631 49 528 q 379 733 231 733 q 621 626 533 733 q 708 358 708 519 m 379 632 q 236 577 292 632 q 167 419 181 522 l 589 419 q 525 573 581 514 q 379 632 469 632 z "},"é":{"ha":757,"x_min":49,"x_max":708,"o":"m 453 1025 l 603 1025 l 432 825 l 333 825 l 453 1025 m 708 358 l 708 319 l 164 319 q 229 144 172 203 q 385 85 286 85 q 575 218 533 85 l 690 218 q 582 47 661 110 q 382 -17 503 -17 q 142 85 233 -17 q 49 358 49 186 q 140 631 49 528 q 379 733 231 733 q 621 626 533 733 q 708 358 708 519 m 379 632 q 236 577 292 632 q 167 419 181 522 l 589 419 q 525 573 581 514 q 379 632 469 632 z "},"ê":{"ha":757,"x_min":49,"x_max":708,"o":"m 510 825 l 379 960 l 249 825 l 138 825 l 296 1025 l 463 1025 l 621 825 l 510 825 m 708 358 l 708 319 l 164 319 q 229 144 172 203 q 385 85 286 85 q 575 218 533 85 l 690 218 q 582 47 661 110 q 382 -17 503 -17 q 142 85 233 -17 q 49 358 49 186 q 140 631 49 528 q 379 733 231 733 q 621 626 533 733 q 708 358 708 519 m 379 632 q 236 577 292 632 q 167 419 181 522 l 589 419 q 525 573 581 514 q 379 632 469 632 z "},"ë":{"ha":757,"x_min":49,"x_max":708,"o":"m 197 961 l 315 961 l 315 825 l 197 825 l 197 961 m 440 961 l 558 961 l 558 825 l 440 825 l 440 961 m 708 358 l 708 319 l 164 319 q 229 144 172 203 q 385 85 286 85 q 575 218 533 85 l 690 218 q 582 47 661 110 q 382 -17 503 -17 q 142 85 233 -17 q 49 358 49 186 q 140 631 49 528 q 379 733 231 733 q 621 626 533 733 q 708 358 708 519 m 379 632 q 236 577 292 632 q 167 419 181 522 l 589 419 q 525 573 581 514 q 379 632 469 632 z "},"ì":{"ha":278,"x_min":-32,"x_max":194,"o":"m 182 825 l 92 825 l -32 1025 l 104 1025 l 182 825 m 194 0 l 83 0 l 83 717 l 194 717 l 194 0 z "},"í":{"ha":278,"x_min":83,"x_max":310,"o":"m 186 825 l 96 825 l 174 1025 l 310 1025 l 186 825 m 194 0 l 83 0 l 83 717 l 194 717 l 194 0 z "},"î":{"ha":278,"x_min":-71,"x_max":349,"o":"m 60 1025 l 218 1025 l 349 825 l 244 825 l 138 961 l 33 825 l -71 825 l 60 1025 m 194 0 l 83 0 l 83 717 l 194 717 l 194 0 z "},"ï":{"ha":278,"x_min":-24,"x_max":301,"o":"m 94 825 l -24 825 l -24 961 l 94 961 l 94 825 m 301 825 l 183 825 l 183 961 l 301 961 l 301 825 m 194 0 l 83 0 l 83 717 l 194 717 l 194 0 z "},"ð":{"ha":788,"x_min":49,"x_max":739,"o":"m 667 901 l 515 854 q 739 364 739 589 q 644 85 739 186 q 396 -17 551 -17 q 146 83 244 -17 q 49 343 49 181 q 146 604 49 506 q 394 703 242 703 q 544 656 481 703 q 418 822 496 736 l 215 758 l 215 851 l 350 894 l 261 989 l 393 989 l 450 926 l 667 996 l 667 901 m 229 154 q 396 83 292 83 q 564 154 500 83 q 626 343 626 222 q 565 533 626 463 q 396 603 503 603 q 228 533 292 603 q 165 343 165 463 q 229 154 165 222 z "},"ñ":{"ha":750,"x_min":83,"x_max":667,"o":"m 276 894 q 238 825 238 894 l 143 825 q 268 996 143 996 q 389 957 313 996 q 476 926 446 926 q 515 996 515 926 l 610 996 q 485 825 610 825 q 358 865 446 825 q 276 894 299 894 m 414 733 q 600 668 533 733 q 667 485 667 603 l 667 0 l 556 0 l 556 474 q 392 633 556 633 q 254 575 314 633 q 194 406 194 517 l 194 0 l 83 0 l 83 717 l 189 717 l 189 610 q 414 733 271 733 z "},"ò":{"ha":792,"x_min":49,"x_max":743,"o":"m 447 825 l 349 825 l 178 1025 l 328 1025 l 447 825 m 646 86 q 396 -17 547 -17 q 146 86 244 -17 q 49 358 49 188 q 146 631 49 529 q 396 733 244 733 q 646 631 547 733 q 743 358 743 529 q 646 86 743 188 m 228 157 q 396 83 290 83 q 564 157 501 83 q 626 358 626 229 q 564 561 626 489 q 396 633 501 633 q 228 561 290 633 q 165 358 165 489 q 228 157 165 229 z "},"ó":{"ha":792,"x_min":49,"x_max":743,"o":"m 449 825 l 350 825 l 469 1025 l 619 1025 l 449 825 m 646 86 q 396 -17 547 -17 q 146 86 244 -17 q 49 358 49 188 q 146 631 49 529 q 396 733 244 733 q 646 631 547 733 q 743 358 743 529 q 646 86 743 188 m 228 157 q 396 83 290 83 q 564 157 501 83 q 626 358 626 229 q 564 561 626 489 q 396 633 501 633 q 228 561 290 633 q 165 358 165 489 q 228 157 165 229 z "},"ô":{"ha":792,"x_min":49,"x_max":743,"o":"m 526 825 l 396 960 l 265 825 l 154 825 l 313 1025 l 479 1025 l 638 825 l 526 825 m 146 631 q 396 733 244 733 q 646 631 547 733 q 743 358 743 529 q 646 86 743 188 q 396 -17 547 -17 q 146 86 244 -17 q 49 358 49 188 q 146 631 49 529 m 228 157 q 396 83 290 83 q 564 157 501 83 q 626 358 626 229 q 564 561 626 489 q 396 633 501 633 q 228 561 290 633 q 165 358 165 489 q 228 157 165 229 z "},"õ":{"ha":792,"x_min":49,"x_max":743,"o":"m 256 825 l 161 825 q 286 996 161 996 q 407 957 331 996 q 494 926 464 926 q 533 996 533 926 l 628 996 q 503 825 628 825 q 376 865 464 825 q 294 894 315 894 q 256 825 256 894 m 646 86 q 396 -17 547 -17 q 146 86 244 -17 q 49 358 49 188 q 146 631 49 529 q 396 733 244 733 q 646 631 547 733 q 743 358 743 529 q 646 86 743 188 m 228 157 q 396 83 290 83 q 564 157 501 83 q 626 358 626 229 q 564 561 626 489 q 396 633 501 633 q 228 561 290 633 q 165 358 165 489 q 228 157 165 229 z "},"ö":{"ha":792,"x_min":49,"x_max":743,"o":"m 332 825 l 214 825 l 214 961 l 332 961 l 332 825 m 575 825 l 457 825 l 457 961 l 575 961 l 575 825 m 646 86 q 396 -17 547 -17 q 146 86 244 -17 q 49 358 49 188 q 146 631 49 529 q 396 733 244 733 q 646 631 547 733 q 743 358 743 529 q 646 86 743 188 m 228 157 q 396 83 290 83 q 564 157 501 83 q 626 358 626 229 q 564 561 626 489 q 396 633 501 633 q 228 561 290 633 q 165 358 165 489 q 228 157 165 229 z "},"÷":{"ha":735,"x_min":56,"x_max":679,"o":"m 424 671 l 311 671 l 311 801 l 424 801 l 424 671 m 679 444 l 56 444 l 56 544 l 679 544 l 679 444 m 424 188 l 311 188 l 311 318 l 424 318 l 424 188 z "},"ø":{"ha":790,"x_min":28,"x_max":763,"o":"m 693 774 l 763 713 l 668 604 q 743 358 743 503 q 646 86 743 188 q 396 -17 547 -17 q 189 47 275 -17 l 97 -58 l 28 3 l 124 113 q 49 358 49 214 q 146 631 49 529 q 396 733 244 733 q 603 669 517 733 l 693 774 m 165 358 q 199 201 165 264 l 533 589 q 396 633 476 633 q 228 560 290 633 q 165 358 165 486 m 626 358 q 593 517 626 447 l 258 128 q 396 83 315 83 q 564 157 501 83 q 626 358 626 231 z "},"ù":{"ha":750,"x_min":83,"x_max":667,"o":"m 300 1025 l 419 825 l 321 825 l 150 1025 l 300 1025 m 556 311 l 556 717 l 667 717 l 667 0 l 561 0 l 561 107 q 336 -17 479 -17 q 150 49 217 -17 q 83 232 83 114 l 83 717 l 194 717 l 194 243 q 358 83 194 83 q 496 142 436 83 q 556 311 556 200 z "},"ú":{"ha":750,"x_min":83,"x_max":667,"o":"m 442 1025 l 592 1025 l 421 825 l 322 825 l 442 1025 m 556 311 l 556 717 l 667 717 l 667 0 l 561 0 l 561 107 q 336 -17 479 -17 q 150 49 217 -17 q 83 232 83 114 l 83 717 l 194 717 l 194 243 q 358 83 194 83 q 496 142 436 83 q 556 311 556 200 z "},"û":{"ha":750,"x_min":83,"x_max":667,"o":"m 499 825 l 368 960 l 238 825 l 126 825 l 285 1025 l 451 1025 l 610 825 l 499 825 m 556 311 l 556 717 l 667 717 l 667 0 l 561 0 l 561 107 q 336 -17 479 -17 q 150 49 217 -17 q 83 232 83 114 l 83 717 l 194 717 l 194 243 q 358 83 194 83 q 496 142 436 83 q 556 311 556 200 z "},"ü":{"ha":750,"x_min":83,"x_max":667,"o":"m 186 961 l 304 961 l 304 825 l 186 825 l 186 961 m 429 961 l 547 961 l 547 825 l 429 825 l 429 961 m 556 311 l 556 717 l 667 717 l 667 0 l 561 0 l 561 107 q 336 -17 479 -17 q 150 49 217 -17 q 83 232 83 114 l 83 717 l 194 717 l 194 243 q 358 83 194 83 q 496 142 436 83 q 556 311 556 200 z "},"ý":{"ha":665,"x_min":7,"x_max":658,"o":"m 407 1025 l 557 1025 l 386 825 l 288 825 l 407 1025 m 436 419 l 538 717 l 658 717 l 356 -112 q 268 -240 324 -203 q 122 -276 213 -276 q 56 -272 92 -276 l 56 -179 l 121 -179 q 251 -90 217 -179 l 276 -24 l 7 717 l 129 717 l 231 418 q 333 108 285 260 q 436 419 374 238 z "},"þ":{"ha":817,"x_min":83,"x_max":768,"o":"m 435 733 q 678 632 586 733 q 768 358 768 529 q 678 86 768 189 q 435 -17 586 -17 q 194 103 281 -17 l 194 -272 l 83 -272 l 83 989 l 194 989 l 194 614 q 435 733 281 733 m 421 83 q 588 159 525 83 q 651 364 651 235 q 590 562 651 490 q 421 633 528 633 q 253 561 315 633 q 190 358 190 489 q 253 157 190 229 q 421 83 315 83 z "},"ÿ":{"ha":665,"x_min":7,"x_max":658,"o":"m 151 961 l 269 961 l 269 825 l 151 825 l 151 961 m 394 961 l 513 961 l 513 825 l 394 825 l 394 961 m 436 419 l 538 717 l 658 717 l 356 -112 q 268 -240 324 -203 q 122 -276 213 -276 q 56 -272 92 -276 l 56 -179 l 121 -179 q 251 -90 217 -179 l 276 -24 l 7 717 l 129 717 l 231 418 q 333 108 285 260 q 436 419 374 238 z "},"Ā":{"ha":967,"x_min":21,"x_max":946,"o":"m 278 1142 l 681 1142 l 681 1049 l 278 1049 l 278 1142 m 946 0 l 822 0 l 707 288 l 257 288 l 143 0 l 21 0 l 415 989 l 546 989 l 946 0 m 303 404 l 299 393 l 665 393 l 660 406 q 479 863 625 490 q 303 404 381 599 z "},"ā":{"ha":724,"x_min":42,"x_max":710,"o":"m 160 918 l 563 918 l 563 825 l 160 825 l 160 918 m 669 90 l 710 90 l 710 0 q 649 -4 682 -4 q 528 99 536 -4 q 294 -17 453 -17 q 109 38 176 -17 q 42 193 42 93 q 307 415 42 388 l 410 426 q 522 525 522 439 q 485 611 522 585 q 361 638 449 638 q 227 606 268 638 q 181 496 186 575 l 69 496 q 361 733 83 733 q 631 525 631 733 l 631 125 q 669 90 631 90 m 300 78 q 456 132 389 78 q 522 283 522 185 l 522 368 q 428 338 492 344 l 324 325 q 195 283 233 314 q 157 196 157 253 q 193 109 157 140 q 300 78 229 78 z "},"Ă":{"ha":967,"x_min":21,"x_max":946,"o":"m 479 1042 q 328 1098 388 1042 q 265 1249 269 1154 l 361 1249 q 397 1162 365 1192 q 479 1132 428 1132 q 562 1162 531 1132 q 597 1249 593 1192 l 693 1249 q 628 1098 686 1154 q 479 1042 569 1042 m 946 0 l 822 0 l 707 288 l 257 288 l 143 0 l 21 0 l 415 989 l 546 989 l 946 0 m 303 404 l 299 393 l 665 393 l 660 406 q 479 863 625 490 q 303 404 381 599 z "},"ă":{"ha":724,"x_min":42,"x_max":710,"o":"m 361 818 q 210 874 269 818 q 147 1025 151 931 l 243 1025 q 278 938 247 968 q 361 908 310 908 q 444 938 413 908 q 479 1025 475 968 l 575 1025 q 510 874 568 931 q 361 818 451 818 m 669 90 l 710 90 l 710 0 q 649 -4 682 -4 q 528 99 536 -4 q 294 -17 453 -17 q 109 38 176 -17 q 42 193 42 93 q 307 415 42 388 l 410 426 q 522 525 522 439 q 485 611 522 585 q 361 638 449 638 q 227 606 268 638 q 181 496 186 575 l 69 496 q 361 733 83 733 q 631 525 631 733 l 631 125 q 669 90 631 90 m 300 78 q 456 132 389 78 q 522 283 522 185 l 522 368 q 428 338 492 344 l 324 325 q 195 283 233 314 q 157 196 157 253 q 193 109 157 140 q 300 78 229 78 z "},"Ą":{"ha":967,"x_min":21,"x_max":946,"o":"m 801 -139 q 821 -182 801 -167 q 871 -197 840 -197 q 946 -183 913 -197 l 946 -274 q 851 -289 908 -289 q 740 -254 785 -289 q 696 -160 696 -219 q 735 -68 696 -112 q 840 0 775 -24 l 822 0 l 707 288 l 257 288 l 143 0 l 21 0 l 415 989 l 546 989 l 946 0 q 801 -139 801 -71 m 303 404 l 299 393 l 665 393 l 660 406 q 479 863 625 490 q 303 404 381 599 z "},"ą":{"ha":724,"x_min":42,"x_max":710,"o":"m 710 90 l 710 0 q 565 -140 565 -71 q 585 -183 565 -168 q 635 -197 604 -197 q 710 -183 676 -197 l 710 -274 q 615 -289 672 -289 q 505 -254 550 -289 q 460 -162 460 -219 q 601 1 460 -61 q 528 99 533 21 q 294 -17 453 -17 q 109 38 176 -17 q 42 193 42 93 q 307 415 42 388 l 410 426 q 522 525 522 439 q 485 611 522 585 q 361 638 449 638 q 227 606 268 638 q 181 496 186 575 l 69 496 q 361 733 83 733 q 631 525 631 733 l 631 125 q 669 90 631 90 l 710 90 m 300 78 q 456 132 389 78 q 522 283 522 185 l 522 368 q 428 338 492 344 l 324 325 q 195 283 233 314 q 157 196 157 253 q 193 109 157 140 q 300 78 229 78 z "},"Ć":{"ha":974,"x_min":49,"x_max":932,"o":"m 554 1071 l 456 1071 l 575 1271 l 725 1271 l 554 1071 m 506 -22 q 176 118 304 -22 q 49 494 49 258 q 176 871 49 731 q 506 1011 304 1011 q 778 924 665 1011 q 926 671 890 838 l 808 671 q 506 904 746 904 q 263 796 354 904 q 171 494 171 686 q 263 194 171 303 q 506 85 354 85 q 708 156 619 85 q 815 360 796 224 l 932 360 q 792 78 913 175 q 506 -22 669 -22 z "},"ć":{"ha":724,"x_min":49,"x_max":689,"o":"m 433 825 l 335 825 l 454 1025 l 604 1025 l 433 825 m 381 -17 q 140 86 232 -17 q 49 358 49 189 q 140 632 49 531 q 381 733 229 733 q 590 664 508 733 q 689 474 672 594 l 574 474 q 508 592 561 550 q 381 633 454 633 q 224 562 282 633 q 165 358 165 490 q 224 156 165 228 q 381 83 283 83 q 508 126 454 83 q 575 246 563 169 l 689 246 q 587 54 671 125 q 381 -17 503 -17 z "},"Ĉ":{"ha":974,"x_min":49,"x_max":932,"o":"m 636 1071 l 506 1206 l 375 1071 l 264 1071 l 422 1271 l 589 1271 l 747 1071 l 636 1071 m 815 360 l 932 360 q 792 78 913 175 q 506 -22 669 -22 q 176 118 304 -22 q 49 494 49 258 q 176 871 49 731 q 506 1011 304 1011 q 778 924 665 1011 q 926 671 890 838 l 808 671 q 506 904 746 904 q 263 796 354 904 q 171 494 171 686 q 263 194 171 303 q 506 85 354 85 q 708 156 619 85 q 815 360 796 224 z "},"ĉ":{"ha":724,"x_min":49,"x_max":689,"o":"m 511 825 l 381 960 l 250 825 l 139 825 l 297 1025 l 464 1025 l 622 825 l 511 825 m 381 83 q 508 126 454 83 q 575 246 563 169 l 689 246 q 587 54 671 125 q 381 -17 503 -17 q 140 86 232 -17 q 49 358 49 189 q 140 632 49 531 q 381 733 229 733 q 590 664 508 733 q 689 474 672 594 l 574 474 q 508 592 561 550 q 381 633 454 633 q 224 562 282 633 q 165 358 165 490 q 224 156 165 228 q 381 83 283 83 z "},"Ċ":{"ha":974,"x_min":49,"x_max":932,"o":"m 564 1071 l 444 1071 l 444 1207 l 564 1207 l 564 1071 m 506 -22 q 176 118 304 -22 q 49 494 49 258 q 176 871 49 731 q 506 1011 304 1011 q 778 924 665 1011 q 926 671 890 838 l 808 671 q 506 904 746 904 q 263 796 354 904 q 171 494 171 686 q 263 194 171 303 q 506 85 354 85 q 708 156 619 85 q 815 360 796 224 l 932 360 q 792 78 913 175 q 506 -22 669 -22 z "},"ċ":{"ha":724,"x_min":49,"x_max":689,"o":"m 439 825 l 319 825 l 319 961 l 439 961 l 439 825 m 381 -17 q 140 86 232 -17 q 49 358 49 189 q 140 632 49 531 q 381 733 229 733 q 590 664 508 733 q 689 474 672 594 l 574 474 q 508 592 561 550 q 381 633 454 633 q 224 562 282 633 q 165 358 165 490 q 224 156 165 228 q 381 83 283 83 q 508 126 454 83 q 575 246 563 169 l 689 246 q 587 54 671 125 q 381 -17 503 -17 z "},"Č":{"ha":974,"x_min":49,"x_max":932,"o":"m 747 1271 l 589 1071 l 422 1071 l 264 1271 l 375 1271 l 506 1136 l 636 1271 l 747 1271 m 815 360 l 932 360 q 792 78 913 175 q 506 -22 669 -22 q 176 118 304 -22 q 49 494 49 258 q 176 871 49 731 q 506 1011 304 1011 q 778 924 665 1011 q 926 671 890 838 l 808 671 q 506 904 746 904 q 263 796 354 904 q 171 494 171 686 q 263 194 171 303 q 506 85 354 85 q 708 156 619 85 q 815 360 796 224 z "},"č":{"ha":724,"x_min":49,"x_max":689,"o":"m 622 1024 l 464 824 l 297 824 l 139 1024 l 250 1024 l 381 889 l 511 1024 l 622 1024 m 381 83 q 508 126 454 83 q 575 246 563 169 l 689 246 q 587 54 671 125 q 381 -17 503 -17 q 140 86 232 -17 q 49 358 49 189 q 140 632 49 531 q 381 733 229 733 q 590 664 508 733 q 689 474 672 594 l 574 474 q 508 592 561 550 q 381 633 454 633 q 224 562 282 633 q 165 358 165 490 q 224 156 165 228 q 381 83 283 83 z "},"Ď":{"ha":957,"x_min":90,"x_max":908,"o":"m 707 1249 l 549 1049 l 382 1049 l 224 1249 l 335 1249 l 465 1114 l 596 1249 l 707 1249 m 90 989 l 424 989 q 779 858 649 989 q 908 494 908 728 q 779 132 908 264 q 424 0 647 0 l 90 0 l 90 989 m 207 106 l 424 106 q 692 208 599 106 q 786 494 786 311 q 692 781 786 678 q 424 883 599 883 l 207 883 l 207 106 z "},"ď":{"ha":954,"x_min":49,"x_max":968,"o":"m 622 614 l 622 989 l 733 989 l 733 0 l 628 0 l 628 111 q 382 -17 542 -17 q 140 86 231 -17 q 49 358 49 189 q 140 632 49 531 q 382 733 229 733 q 622 614 536 733 m 786 758 l 839 989 l 968 989 l 871 758 l 786 758 m 165 353 q 228 154 165 225 q 396 83 290 83 q 564 157 501 83 q 626 358 626 229 q 564 560 626 486 q 396 633 501 633 q 228 558 292 633 q 165 353 165 482 z "},"Đ":{"ha":983,"x_min":0,"x_max":935,"o":"m 117 989 l 450 989 q 806 858 675 989 q 935 494 935 728 q 806 132 935 264 q 450 0 674 0 l 117 0 l 117 464 l 0 464 l 0 554 l 117 554 l 117 989 m 233 106 l 450 106 q 719 208 625 106 q 813 494 813 311 q 719 781 813 678 q 450 883 625 883 l 233 883 l 233 554 l 507 554 l 507 464 l 233 464 l 233 106 z "},"đ":{"ha":851,"x_min":49,"x_max":851,"o":"m 733 899 l 851 899 l 851 808 l 733 808 l 733 0 l 628 0 l 628 111 q 382 -17 542 -17 q 140 86 231 -17 q 49 358 49 189 q 140 632 49 531 q 382 733 229 733 q 622 614 536 733 l 622 808 l 461 808 l 461 899 l 622 899 l 622 989 l 733 989 l 733 899 m 165 353 q 228 154 165 225 q 396 83 290 83 q 564 157 501 83 q 626 358 626 229 q 564 560 626 486 q 396 633 501 633 q 228 558 292 633 q 165 353 165 482 z "},"Ē":{"ha":813,"x_min":90,"x_max":778,"o":"m 233 1142 l 636 1142 l 636 1049 l 233 1049 l 233 1142 m 778 989 l 778 883 l 207 883 l 207 568 l 722 568 l 722 463 l 207 463 l 207 106 l 772 106 l 772 0 l 90 0 l 90 989 l 778 989 z "},"ē":{"ha":757,"x_min":49,"x_max":708,"o":"m 178 918 l 581 918 l 581 825 l 178 825 l 178 918 m 708 358 l 708 319 l 164 319 q 229 144 172 203 q 385 85 286 85 q 575 218 533 85 l 690 218 q 582 47 661 110 q 382 -17 503 -17 q 142 85 233 -17 q 49 358 49 186 q 140 631 49 528 q 379 733 231 733 q 621 626 533 733 q 708 358 708 519 m 379 632 q 236 577 292 632 q 167 419 181 522 l 589 419 q 525 573 581 514 q 379 632 469 632 z "},"Ĕ":{"ha":813,"x_min":90,"x_max":778,"o":"m 435 1042 q 284 1098 343 1042 q 221 1249 225 1154 l 317 1249 q 352 1162 321 1192 q 435 1132 383 1132 q 517 1162 486 1132 q 553 1249 549 1192 l 649 1249 q 583 1098 642 1154 q 435 1042 525 1042 m 778 989 l 778 883 l 207 883 l 207 568 l 722 568 l 722 463 l 207 463 l 207 106 l 772 106 l 772 0 l 90 0 l 90 989 l 778 989 z "},"ĕ":{"ha":757,"x_min":49,"x_max":708,"o":"m 379 818 q 228 874 288 818 q 165 1025 169 931 l 261 1025 q 297 938 265 968 q 379 908 328 908 q 462 938 431 908 q 497 1025 493 968 l 593 1025 q 528 874 586 931 q 379 818 469 818 m 708 358 l 708 319 l 164 319 q 229 144 172 203 q 385 85 286 85 q 575 218 533 85 l 690 218 q 582 47 661 110 q 382 -17 503 -17 q 142 85 233 -17 q 49 358 49 186 q 140 631 49 528 q 379 733 231 733 q 621 626 533 733 q 708 358 708 519 m 379 632 q 236 577 292 632 q 167 419 181 522 l 589 419 q 525 573 581 514 q 379 632 469 632 z "},"Ė":{"ha":813,"x_min":90,"x_max":778,"o":"m 374 1185 l 493 1185 l 493 1049 l 374 1049 l 374 1185 m 778 989 l 778 883 l 207 883 l 207 568 l 722 568 l 722 463 l 207 463 l 207 106 l 772 106 l 772 0 l 90 0 l 90 989 l 778 989 z "},"ė":{"ha":757,"x_min":49,"x_max":708,"o":"m 318 961 l 438 961 l 438 825 l 318 825 l 318 961 m 708 358 l 708 319 l 164 319 q 229 144 172 203 q 385 85 286 85 q 575 218 533 85 l 690 218 q 582 47 661 110 q 382 -17 503 -17 q 142 85 233 -17 q 49 358 49 186 q 140 631 49 528 q 379 733 231 733 q 621 626 533 733 q 708 358 708 519 m 379 632 q 236 577 292 632 q 167 419 181 522 l 589 419 q 525 573 581 514 q 379 632 469 632 z "},"Ę":{"ha":813,"x_min":90,"x_max":778,"o":"m 778 989 l 778 883 l 207 883 l 207 568 l 722 568 l 722 463 l 207 463 l 207 106 l 772 106 l 772 0 q 628 -139 628 -71 q 647 -182 628 -167 q 697 -197 667 -197 q 772 -183 739 -197 l 772 -274 q 678 -289 735 -289 q 567 -254 611 -289 q 522 -160 522 -219 q 562 -68 522 -112 q 667 0 601 -24 l 90 0 l 90 989 l 778 989 z "},"ę":{"ha":757,"x_min":49,"x_max":708,"o":"m 708 358 l 708 319 l 164 319 q 229 144 172 203 q 385 85 286 85 q 575 218 533 85 l 690 218 q 492 -1 646 47 q 349 -139 349 -69 q 368 -182 349 -167 q 418 -197 388 -197 q 493 -183 460 -197 l 493 -274 q 399 -289 456 -289 q 288 -254 332 -289 q 243 -160 243 -219 q 272 -81 243 -119 q 351 -15 301 -42 q 132 96 215 -4 q 49 358 49 196 q 140 631 49 528 q 379 733 231 733 q 621 626 533 733 q 708 358 708 519 m 379 632 q 236 577 292 632 q 167 419 181 522 l 589 419 q 525 573 581 514 q 379 632 469 632 z "},"Ě":{"ha":813,"x_min":90,"x_max":778,"o":"m 676 1249 l 518 1049 l 351 1049 l 193 1249 l 304 1249 l 435 1114 l 565 1249 l 676 1249 m 778 989 l 778 883 l 207 883 l 207 568 l 722 568 l 722 463 l 207 463 l 207 106 l 772 106 l 772 0 l 90 0 l 90 989 l 778 989 z "},"ě":{"ha":757,"x_min":49,"x_max":708,"o":"m 621 1024 l 463 824 l 296 824 l 138 1024 l 249 1024 l 379 889 l 510 1024 l 621 1024 m 708 358 l 708 319 l 164 319 q 229 144 172 203 q 385 85 286 85 q 575 218 533 85 l 690 218 q 582 47 661 110 q 382 -17 503 -17 q 142 85 233 -17 q 49 358 49 186 q 140 631 49 528 q 379 733 231 733 q 621 626 533 733 q 708 358 708 519 m 379 632 q 236 577 292 632 q 167 419 181 522 l 589 419 q 525 573 581 514 q 379 632 469 632 z "},"Ĝ":{"ha":1038,"x_min":49,"x_max":961,"o":"m 649 1071 l 518 1206 l 388 1071 l 276 1071 l 435 1271 l 601 1271 l 760 1071 l 649 1071 m 540 403 l 540 508 l 961 508 l 961 0 l 865 0 l 840 133 q 517 -22 731 -22 q 178 121 304 -22 q 49 494 49 263 q 176 869 49 725 q 518 1011 303 1011 q 810 917 694 1011 q 950 665 925 822 l 829 665 q 724 840 811 775 q 518 904 639 904 q 265 793 360 904 q 171 494 171 682 q 265 196 171 307 q 518 85 360 85 q 757 175 658 85 q 856 403 856 265 l 540 403 z "},"ĝ":{"ha":817,"x_min":49,"x_max":733,"o":"m 526 825 l 396 960 l 265 825 l 154 825 l 313 1025 l 479 1025 l 638 825 l 526 825 m 628 613 l 628 717 l 733 717 l 733 28 q 647 -204 733 -119 q 400 -289 561 -289 q 186 -228 267 -289 q 94 -58 106 -167 l 206 -58 q 400 -194 226 -194 q 622 28 622 -194 l 622 97 q 382 -17 538 -17 q 140 86 231 -17 q 49 358 49 189 q 140 632 49 531 q 382 733 229 733 q 628 613 542 733 m 396 83 q 564 157 501 83 q 626 358 626 231 q 564 560 626 486 q 396 633 501 633 q 228 558 292 633 q 165 358 165 483 q 228 158 165 233 q 396 83 292 83 z "},"Ğ":{"ha":1038,"x_min":49,"x_max":961,"o":"m 518 1064 q 367 1120 426 1064 q 304 1271 308 1176 l 400 1271 q 435 1184 404 1214 q 518 1154 467 1154 q 601 1184 569 1154 q 636 1271 632 1214 l 732 1271 q 667 1120 725 1176 q 518 1064 608 1064 m 540 403 l 540 508 l 961 508 l 961 0 l 865 0 l 840 133 q 517 -22 731 -22 q 178 121 304 -22 q 49 494 49 263 q 176 869 49 725 q 518 1011 303 1011 q 810 917 694 1011 q 950 665 925 822 l 829 665 q 724 840 811 775 q 518 904 639 904 q 265 793 360 904 q 171 494 171 682 q 265 196 171 307 q 518 85 360 85 q 757 175 658 85 q 856 403 856 265 l 540 403 z "},"ğ":{"ha":817,"x_min":49,"x_max":733,"o":"m 396 818 q 245 874 304 818 q 182 1025 186 931 l 278 1025 q 313 938 282 968 q 396 908 344 908 q 478 938 447 908 q 514 1025 510 968 l 610 1025 q 544 874 603 931 q 396 818 486 818 m 628 613 l 628 717 l 733 717 l 733 28 q 647 -204 733 -119 q 400 -289 561 -289 q 186 -228 267 -289 q 94 -58 106 -167 l 206 -58 q 400 -194 226 -194 q 622 28 622 -194 l 622 97 q 382 -17 538 -17 q 140 86 231 -17 q 49 358 49 189 q 140 632 49 531 q 382 733 229 733 q 628 613 542 733 m 396 83 q 564 157 501 83 q 626 358 626 231 q 564 560 626 486 q 396 633 501 633 q 228 558 292 633 q 165 358 165 483 q 228 158 165 233 q 396 83 292 83 z "},"Ġ":{"ha":1038,"x_min":49,"x_max":961,"o":"m 457 1207 l 576 1207 l 576 1071 l 457 1071 l 457 1207 m 540 403 l 540 508 l 961 508 l 961 0 l 865 0 l 840 133 q 517 -22 731 -22 q 178 121 304 -22 q 49 494 49 263 q 176 869 49 725 q 518 1011 303 1011 q 810 917 694 1011 q 950 665 925 822 l 829 665 q 724 840 811 775 q 518 904 639 904 q 265 793 360 904 q 171 494 171 682 q 265 196 171 307 q 518 85 360 85 q 757 175 658 85 q 856 403 856 265 l 540 403 z "},"ġ":{"ha":817,"x_min":49,"x_max":733,"o":"m 335 961 l 454 961 l 454 825 l 335 825 l 335 961 m 628 613 l 628 717 l 733 717 l 733 28 q 647 -204 733 -119 q 400 -289 561 -289 q 186 -228 267 -289 q 94 -58 106 -167 l 206 -58 q 400 -194 226 -194 q 622 28 622 -194 l 622 97 q 382 -17 538 -17 q 140 86 231 -17 q 49 358 49 189 q 140 632 49 531 q 382 733 229 733 q 628 613 542 733 m 396 83 q 564 157 501 83 q 626 358 626 231 q 564 560 626 486 q 396 633 501 633 q 228 558 292 633 q 165 358 165 483 q 228 158 165 233 q 396 83 292 83 z "},"Ģ":{"ha":1038,"x_min":49,"x_max":961,"o":"m 540 403 l 540 508 l 961 508 l 961 0 l 865 0 l 840 133 q 517 -22 731 -22 q 178 121 304 -22 q 49 494 49 263 q 176 869 49 725 q 518 1011 303 1011 q 810 917 694 1011 q 950 665 925 822 l 829 665 q 724 840 811 775 q 518 904 639 904 q 265 793 360 904 q 171 494 171 682 q 265 196 171 307 q 518 85 360 85 q 757 175 658 85 q 856 403 856 265 l 540 403 m 535 -196 l 464 -196 l 464 -79 l 600 -79 l 600 -222 q 573 -303 600 -276 q 483 -335 546 -331 l 464 -336 l 464 -276 l 479 -275 q 535 -226 535 -271 l 535 -196 z "},"ģ":{"ha":817,"x_min":49,"x_max":733,"o":"m 394 942 l 465 942 l 465 825 l 329 825 l 329 968 q 356 1049 329 1022 q 446 1081 383 1076 l 465 1082 l 465 1022 l 450 1021 q 394 972 394 1017 l 394 942 m 628 613 l 628 717 l 733 717 l 733 28 q 647 -204 733 -119 q 400 -289 561 -289 q 186 -228 267 -289 q 94 -58 106 -167 l 206 -58 q 400 -194 226 -194 q 622 28 622 -194 l 622 97 q 382 -17 538 -17 q 140 86 231 -17 q 49 358 49 189 q 140 632 49 531 q 382 733 229 733 q 628 613 542 733 m 396 83 q 564 157 501 83 q 626 358 626 231 q 564 560 626 486 q 396 633 501 633 q 228 558 292 633 q 165 358 165 483 q 228 158 165 233 q 396 83 292 83 z "},"Ĥ":{"ha":965,"x_min":90,"x_max":875,"o":"m 614 1049 l 483 1183 l 353 1049 l 242 1049 l 400 1249 l 567 1249 l 725 1049 l 614 1049 m 758 564 l 758 989 l 875 989 l 875 0 l 758 0 l 758 456 l 207 456 l 207 0 l 90 0 l 90 989 l 207 989 l 207 564 l 758 564 z "},"ĥ":{"ha":750,"x_min":-71,"x_max":667,"o":"m 349 1049 l 244 1049 l 138 1185 l 33 1049 l -71 1049 l 60 1249 l 218 1249 l 349 1049 m 414 733 q 600 668 533 733 q 667 485 667 603 l 667 0 l 556 0 l 556 474 q 392 633 556 633 q 254 575 314 633 q 194 406 194 517 l 194 0 l 83 0 l 83 989 l 194 989 l 194 618 q 414 733 276 733 z "},"Ħ":{"ha":1018,"x_min":0,"x_max":1018,"o":"m 903 828 l 1018 828 l 1018 738 l 903 738 l 903 0 l 786 0 l 786 456 l 235 456 l 235 0 l 118 0 l 118 738 l 0 738 l 0 828 l 118 828 l 118 989 l 235 989 l 235 828 l 786 828 l 786 989 l 903 989 l 903 828 m 235 564 l 786 564 l 786 738 l 235 738 l 235 564 z "},"ħ":{"ha":785,"x_min":0,"x_max":701,"o":"m 449 733 q 635 668 568 733 q 701 485 701 603 l 701 0 l 590 0 l 590 474 q 426 633 590 633 q 289 575 350 633 q 229 406 229 517 l 229 0 l 118 0 l 118 808 l 0 808 l 0 899 l 118 899 l 118 989 l 229 989 l 229 899 l 390 899 l 390 808 l 229 808 l 229 618 q 449 733 311 733 z "},"Ĩ":{"ha":297,"x_min":-44,"x_max":342,"o":"m 33 1049 l -44 1049 q 58 1215 -44 1215 q 160 1178 94 1215 q 231 1149 208 1149 q 264 1215 264 1149 l 342 1215 q 239 1049 342 1049 q 135 1088 207 1049 q 67 1115 83 1115 q 33 1049 33 1115 m 207 0 l 90 0 l 90 989 l 207 989 l 207 0 z "},"ĩ":{"ha":278,"x_min":-54,"x_max":332,"o":"m 24 825 l -54 825 q 49 992 -54 992 q 150 954 86 992 q 221 925 197 925 q 254 992 254 925 l 332 992 q 229 825 332 825 q 125 864 197 825 q 57 892 74 892 q 24 825 24 892 m 194 0 l 83 0 l 83 717 l 194 717 l 194 0 z "},"Ī":{"ha":297,"x_min":-11,"x_max":308,"o":"m 308 1049 l -11 1049 l -11 1142 l 308 1142 l 308 1049 m 207 0 l 90 0 l 90 989 l 207 989 l 207 0 z "},"ī":{"ha":278,"x_min":-21,"x_max":299,"o":"m 299 825 l -21 825 l -21 918 l 299 918 l 299 825 m 194 0 l 83 0 l 83 717 l 194 717 l 194 0 z "},"Ĭ":{"ha":297,"x_min":-51,"x_max":349,"o":"m 289 1097 q 149 1042 238 1042 q 7 1097 61 1042 q -51 1235 -50 1151 l 44 1235 q 75 1160 47 1188 q 149 1132 103 1132 q 222 1160 194 1132 q 253 1235 250 1188 l 349 1235 q 289 1097 343 1153 m 207 0 l 90 0 l 90 989 l 207 989 l 207 0 z "},"ĭ":{"ha":278,"x_min":-61,"x_max":339,"o":"m 279 874 q 139 818 228 818 q -4 874 51 818 q -61 1011 -60 929 l 35 1011 q 65 936 38 964 q 139 908 93 908 q 213 936 185 908 q 243 1011 240 964 l 339 1011 q 279 874 333 929 m 194 0 l 83 0 l 83 717 l 194 717 l 194 0 z "},"Į":{"ha":297,"x_min":33,"x_max":228,"o":"m 179 -200 q 228 -189 208 -200 l 228 -275 q 163 -289 201 -289 q 69 -256 106 -289 q 33 -164 33 -224 q 60 -71 33 -118 q 124 0 86 -24 l 90 0 l 90 989 l 207 989 l 207 0 q 121 -136 121 -61 q 179 -200 121 -200 z "},"į":{"ha":278,"x_min":21,"x_max":215,"o":"m 79 961 l 197 961 l 197 825 l 79 825 l 79 961 m 167 -200 q 215 -189 196 -200 l 215 -275 q 150 -289 189 -289 q 57 -256 93 -289 q 21 -164 21 -224 q 47 -71 21 -118 q 111 0 74 -24 l 83 0 l 83 717 l 194 717 l 194 0 q 108 -136 108 -61 q 167 -200 108 -200 z "},"İ":{"ha":297,"x_min":89,"x_max":207,"o":"m 207 1049 l 89 1049 l 89 1185 l 207 1185 l 207 1049 m 207 0 l 90 0 l 90 989 l 207 989 l 207 0 z "},"ı":{"ha":278,"x_min":83,"x_max":194,"o":"m 194 0 l 83 0 l 83 717 l 194 717 l 194 0 z "},"Ĳ":{"ha":1018,"x_min":90,"x_max":942,"o":"m 207 0 l 90 0 l 90 989 l 207 989 l 207 0 m 861 60 q 639 -22 779 -22 q 418 60 497 -22 q 339 281 339 142 l 339 346 l 453 346 l 453 281 q 501 134 453 185 q 639 83 550 83 q 776 134 728 83 q 825 281 825 185 l 825 989 l 942 989 l 942 281 q 861 60 942 140 z "},"ĳ":{"ha":556,"x_min":79,"x_max":475,"o":"m 197 825 l 79 825 l 79 961 l 197 961 l 197 825 m 475 825 l 357 825 l 357 961 l 475 961 l 475 825 m 194 0 l 83 0 l 83 717 l 194 717 l 194 0 m 307 -276 q 247 -275 263 -276 l 247 -179 l 293 -179 q 361 -118 361 -179 l 361 717 l 472 717 l 472 -128 q 307 -276 472 -276 z "},"Ĵ":{"ha":721,"x_min":42,"x_max":796,"o":"m 507 1249 l 665 1249 l 796 1049 l 692 1049 l 585 1185 l 481 1049 l 376 1049 l 507 1249 m 528 281 l 528 989 l 644 989 l 644 281 q 564 59 644 140 q 342 -22 483 -22 q 121 58 200 -22 q 42 281 42 139 l 42 346 l 156 346 l 156 281 q 204 134 156 185 q 342 83 253 83 q 479 134 431 83 q 528 281 528 185 z "},"ĵ":{"ha":278,"x_min":-71,"x_max":349,"o":"m 60 1025 l 218 1025 l 349 825 l 244 825 l 138 961 l 33 825 l -71 825 l 60 1025 m 83 -118 l 83 717 l 194 717 l 194 -128 q 29 -276 194 -276 q -31 -275 -15 -276 l -31 -179 l 15 -179 q 83 -118 83 -179 z "},"Ķ":{"ha":922,"x_min":90,"x_max":901,"o":"m 747 989 l 901 989 l 479 586 l 901 0 l 758 0 l 394 508 l 207 329 l 207 0 l 90 0 l 90 989 l 207 989 l 207 469 l 747 989 m 476 -176 l 406 -176 l 406 -60 l 542 -60 l 542 -203 q 515 -284 542 -257 q 425 -315 488 -311 l 406 -317 l 406 -257 l 421 -256 q 476 -207 476 -251 l 476 -176 z "},"ķ":{"ha":700,"x_min":83,"x_max":693,"o":"m 674 717 l 401 458 l 693 0 l 564 0 l 322 385 l 194 265 l 194 0 l 83 0 l 83 989 l 194 989 l 194 396 l 526 717 l 674 717 m 379 -225 l 308 -225 l 308 -108 l 444 -108 l 444 -251 q 417 -333 444 -306 q 328 -364 390 -360 l 308 -365 l 308 -306 l 324 -304 q 379 -256 379 -300 l 379 -225 z "},"ĸ":{"ha":700,"x_min":83,"x_max":693,"o":"m 693 0 l 564 0 l 322 385 l 194 265 l 194 0 l 83 0 l 83 717 l 194 717 l 194 396 l 526 717 l 674 717 l 401 458 l 693 0 z "},"Ĺ":{"ha":732,"x_min":90,"x_max":704,"o":"m 218 1249 l 368 1249 l 197 1049 l 99 1049 l 218 1249 m 207 989 l 207 106 l 704 106 l 704 0 l 90 0 l 90 989 l 207 989 z "},"ĺ":{"ha":278,"x_min":83,"x_max":308,"o":"m 308 1249 l 185 1049 l 94 1049 l 172 1249 l 308 1249 m 194 0 l 83 0 l 83 989 l 194 989 l 194 0 z "},"Ļ":{"ha":732,"x_min":90,"x_max":704,"o":"m 207 989 l 207 106 l 704 106 l 704 0 l 90 0 l 90 989 l 207 989 m 401 -176 l 331 -176 l 331 -60 l 467 -60 l 467 -203 q 440 -284 467 -257 q 350 -315 413 -311 l 331 -317 l 331 -257 l 346 -256 q 401 -207 401 -251 l 401 -176 z "},"ļ":{"ha":278,"x_min":72,"x_max":208,"o":"m 83 989 l 194 989 l 194 0 l 83 0 l 83 989 m 72 -225 l 72 -108 l 208 -108 l 208 -251 q 181 -333 208 -306 q 92 -364 154 -360 l 72 -365 l 72 -306 l 88 -304 q 143 -256 143 -300 l 143 -225 l 72 -225 z "},"Ľ":{"ha":732,"x_min":90,"x_max":704,"o":"m 207 989 l 207 106 l 704 106 l 704 0 l 90 0 l 90 989 l 207 989 m 365 989 l 494 989 l 397 758 l 313 758 l 365 989 z "},"ľ":{"ha":415,"x_min":83,"x_max":429,"o":"m 194 0 l 83 0 l 83 989 l 194 989 l 194 0 m 332 758 l 247 758 l 300 989 l 429 989 l 332 758 z "},"Ŀ":{"ha":732,"x_min":90,"x_max":704,"o":"m 207 989 l 207 106 l 704 106 l 704 0 l 90 0 l 90 989 l 207 989 m 446 582 l 586 582 l 586 443 l 446 443 l 446 582 z "},"ŀ":{"ha":549,"x_min":83,"x_max":486,"o":"m 194 0 l 83 0 l 83 989 l 194 989 l 194 0 m 486 422 l 346 422 l 346 561 l 486 561 l 486 422 z "},"Ł":{"ha":758,"x_min":0,"x_max":731,"o":"m 233 519 l 233 106 l 731 106 l 731 0 l 117 0 l 117 467 l 0 414 l 0 515 l 117 568 l 117 989 l 233 989 l 233 621 l 493 738 l 493 636 l 233 519 z "},"ł":{"ha":346,"x_min":0,"x_max":346,"o":"m 229 581 l 346 646 l 346 540 l 229 475 l 229 0 l 118 0 l 118 413 l 0 346 l 0 451 l 118 518 l 118 989 l 229 989 l 229 581 z "},"Ń":{"ha":967,"x_min":90,"x_max":876,"o":"m 553 1249 l 703 1249 l 532 1049 l 433 1049 l 553 1249 m 761 656 l 761 989 l 876 989 l 876 0 l 735 0 l 407 510 q 201 844 265 735 q 206 333 206 650 l 206 0 l 90 0 l 90 989 l 232 989 l 560 479 q 765 144 701 254 q 761 656 761 339 z "},"ń":{"ha":750,"x_min":83,"x_max":667,"o":"m 451 1025 l 601 1025 l 431 825 l 332 825 l 451 1025 m 414 733 q 600 668 533 733 q 667 485 667 603 l 667 0 l 556 0 l 556 474 q 392 633 556 633 q 254 575 314 633 q 194 406 194 517 l 194 0 l 83 0 l 83 717 l 189 717 l 189 610 q 414 733 271 733 z "},"Ņ":{"ha":967,"x_min":90,"x_max":876,"o":"m 761 656 l 761 989 l 876 989 l 876 0 l 735 0 l 407 510 q 201 844 265 735 q 206 333 206 650 l 206 0 l 90 0 l 90 989 l 232 989 l 560 479 q 765 144 701 254 q 761 656 761 339 m 488 -176 l 417 -176 l 417 -60 l 553 -60 l 553 -203 q 526 -284 553 -257 q 436 -315 499 -311 l 417 -317 l 417 -257 l 432 -256 q 488 -207 488 -251 l 488 -176 z "},"ņ":{"ha":750,"x_min":83,"x_max":667,"o":"m 414 733 q 600 668 533 733 q 667 485 667 603 l 667 0 l 556 0 l 556 474 q 392 633 556 633 q 254 575 314 633 q 194 406 194 517 l 194 0 l 83 0 l 83 717 l 189 717 l 189 610 q 414 733 271 733 m 376 -225 l 306 -225 l 306 -108 l 442 -108 l 442 -251 q 415 -333 442 -306 q 325 -364 388 -360 l 306 -365 l 306 -306 l 321 -304 q 376 -256 376 -300 l 376 -225 z "},"Ň":{"ha":967,"x_min":90,"x_max":876,"o":"m 725 1249 l 567 1049 l 400 1049 l 242 1249 l 353 1249 l 483 1114 l 614 1249 l 725 1249 m 761 656 l 761 989 l 876 989 l 876 0 l 735 0 l 407 510 q 201 844 265 735 q 206 333 206 650 l 206 0 l 90 0 l 90 989 l 232 989 l 560 479 q 765 144 701 254 q 761 656 761 339 z "},"ň":{"ha":750,"x_min":83,"x_max":667,"o":"m 619 1024 l 461 824 l 294 824 l 136 1024 l 247 1024 l 378 889 l 508 1024 l 619 1024 m 414 733 q 600 668 533 733 q 667 485 667 603 l 667 0 l 556 0 l 556 474 q 392 633 556 633 q 254 575 314 633 q 194 406 194 517 l 194 0 l 83 0 l 83 717 l 189 717 l 189 610 q 414 733 271 733 z "},"ŉ":{"ha":950,"x_min":63,"x_max":867,"o":"m 122 853 l 63 853 l 63 989 l 200 989 l 200 840 q 76 664 200 676 l 63 663 l 63 736 l 72 738 q 122 831 122 744 l 122 853 m 614 733 q 800 668 733 733 q 867 485 867 603 l 867 0 l 756 0 l 756 474 q 592 633 756 633 q 454 575 514 633 q 394 406 394 517 l 394 0 l 283 0 l 283 717 l 389 717 l 389 610 q 614 733 471 733 z "},"Ŋ":{"ha":967,"x_min":90,"x_max":876,"o":"m 761 656 l 761 989 l 876 989 l 876 0 q 807 -208 876 -139 q 593 -276 738 -276 q 522 -272 558 -276 l 522 -175 q 586 -179 556 -179 q 765 0 765 -179 l 424 510 q 201 856 285 713 q 206 333 206 658 l 206 0 l 90 0 l 90 989 l 232 989 l 576 479 q 656 356 593 453 q 765 188 718 260 q 761 656 761 364 z "},"ŋ":{"ha":750,"x_min":83,"x_max":667,"o":"m 414 733 q 600 668 533 733 q 667 485 667 603 l 667 -128 q 501 -276 667 -276 q 442 -275 457 -276 l 442 -179 l 488 -179 q 556 -118 556 -179 l 556 474 q 392 633 556 633 q 254 575 314 633 q 194 406 194 517 l 194 0 l 83 0 l 83 717 l 189 717 l 189 610 q 414 733 271 733 z "},"Ō":{"ha":1044,"x_min":49,"x_max":996,"o":"m 724 1071 l 321 1071 l 321 1164 l 724 1164 l 724 1071 m 867 121 q 522 -22 736 -22 q 179 121 308 -22 q 49 494 49 261 q 179 869 49 726 q 522 1011 308 1011 q 867 869 736 1011 q 996 494 996 725 q 867 121 996 263 m 267 196 q 522 85 363 85 q 778 196 682 85 q 874 494 874 306 q 778 793 874 683 q 522 904 682 904 q 267 793 363 904 q 171 494 171 683 q 267 196 171 306 z "},"ō":{"ha":792,"x_min":49,"x_max":743,"o":"m 597 825 l 194 825 l 194 918 l 597 918 l 597 825 m 646 86 q 396 -17 547 -17 q 146 86 244 -17 q 49 358 49 188 q 146 631 49 529 q 396 733 244 733 q 646 631 547 733 q 743 358 743 529 q 646 86 743 188 m 228 157 q 396 83 290 83 q 564 157 501 83 q 626 358 626 229 q 564 561 626 489 q 396 633 501 633 q 228 561 290 633 q 165 358 165 489 q 228 157 165 229 z "},"Ŏ":{"ha":1044,"x_min":49,"x_max":996,"o":"m 522 1064 q 372 1120 431 1064 q 308 1271 313 1176 l 404 1271 q 440 1184 408 1214 q 522 1154 471 1154 q 605 1184 574 1154 q 640 1271 636 1214 l 736 1271 q 671 1120 729 1176 q 522 1064 613 1064 m 867 121 q 522 -22 736 -22 q 179 121 308 -22 q 49 494 49 261 q 179 869 49 726 q 522 1011 308 1011 q 867 869 736 1011 q 996 494 996 725 q 867 121 996 263 m 267 196 q 522 85 363 85 q 778 196 682 85 q 874 494 874 306 q 778 793 874 683 q 522 904 682 904 q 267 793 363 904 q 171 494 171 683 q 267 196 171 306 z "},"ŏ":{"ha":792,"x_min":49,"x_max":743,"o":"m 396 818 q 245 874 304 818 q 182 1025 186 931 l 278 1025 q 313 938 282 968 q 396 908 344 908 q 478 938 447 908 q 514 1025 510 968 l 610 1025 q 544 874 603 931 q 396 818 486 818 m 646 86 q 396 -17 547 -17 q 146 86 244 -17 q 49 358 49 188 q 146 631 49 529 q 396 733 244 733 q 646 631 547 733 q 743 358 743 529 q 646 86 743 188 m 228 157 q 396 83 290 83 q 564 157 501 83 q 626 358 626 229 q 564 561 626 489 q 396 633 501 633 q 228 561 290 633 q 165 358 165 489 q 228 157 165 229 z "},"Ő":{"ha":1044,"x_min":49,"x_max":996,"o":"m 451 1071 l 358 1071 l 478 1271 l 622 1271 l 451 1071 m 679 1071 l 586 1071 l 706 1271 l 850 1271 l 679 1071 m 867 121 q 522 -22 736 -22 q 179 121 308 -22 q 49 494 49 261 q 179 869 49 726 q 522 1011 308 1011 q 867 869 736 1011 q 996 494 996 725 q 867 121 996 263 m 267 196 q 522 85 363 85 q 778 196 682 85 q 874 494 874 306 q 778 793 874 683 q 522 904 682 904 q 267 793 363 904 q 171 494 171 683 q 267 196 171 306 z "},"ő":{"ha":792,"x_min":49,"x_max":743,"o":"m 340 825 l 247 825 l 367 1025 l 511 1025 l 340 825 m 568 825 l 475 825 l 594 1025 l 739 1025 l 568 825 m 646 86 q 396 -17 547 -17 q 146 86 244 -17 q 49 358 49 188 q 146 631 49 529 q 396 733 244 733 q 646 631 547 733 q 743 358 743 529 q 646 86 743 188 m 228 157 q 396 83 290 83 q 564 157 501 83 q 626 358 626 229 q 564 561 626 489 q 396 633 501 633 q 228 561 290 633 q 165 358 165 489 q 228 157 165 229 z "},"Œ":{"ha":1596,"x_min":49,"x_max":1561,"o":"m 1561 989 l 1561 883 l 990 883 l 990 568 l 1506 568 l 1506 463 l 990 463 l 990 106 l 1556 106 l 1556 0 l 874 0 l 874 149 q 522 -22 756 -22 q 179 121 308 -22 q 49 494 49 261 q 179 869 49 726 q 522 1011 308 1011 q 874 840 756 1011 l 874 989 l 1561 989 m 267 196 q 522 85 363 85 q 778 196 682 85 q 874 494 874 306 q 778 793 874 683 q 522 904 682 904 q 267 793 363 904 q 171 494 171 683 q 267 196 171 306 z "},"œ":{"ha":1336,"x_min":49,"x_max":1288,"o":"m 1288 358 l 1288 319 l 743 319 q 808 144 751 203 q 964 85 865 85 q 1154 218 1113 85 l 1269 218 q 1161 47 1240 110 q 961 -17 1082 -17 q 683 140 771 -17 q 396 -17 592 -17 q 146 86 244 -17 q 49 358 49 188 q 146 631 49 529 q 396 733 244 733 q 683 576 592 733 q 958 733 771 733 q 1200 626 1113 733 q 1288 358 1288 521 m 228 157 q 396 83 290 83 q 564 157 501 83 q 626 358 626 229 q 564 561 626 489 q 396 633 501 633 q 228 561 290 633 q 165 358 165 489 q 228 157 165 229 m 958 632 q 815 577 871 632 q 746 419 760 522 l 1168 419 q 1104 573 1160 514 q 958 632 1049 632 z "},"Ŕ":{"ha":897,"x_min":90,"x_max":863,"o":"m 510 1249 l 660 1249 l 489 1049 l 390 1049 l 510 1249 m 817 286 l 826 126 q 863 0 833 43 l 742 0 q 710 132 711 44 l 706 238 q 661 380 701 338 q 529 422 621 422 l 207 422 l 207 0 l 90 0 l 90 989 l 508 989 q 752 918 661 989 q 843 719 843 847 q 799 567 843 629 q 681 481 756 506 q 817 286 806 442 m 207 528 l 522 528 q 669 576 615 528 q 722 713 722 624 q 666 840 722 797 q 508 883 610 883 l 207 883 l 207 528 z "},"ŕ":{"ha":492,"x_min":83,"x_max":463,"o":"m 326 1025 l 463 1025 l 339 825 l 249 825 l 326 1025 m 189 717 l 189 590 q 419 728 261 728 q 457 726 447 728 l 457 619 l 429 619 q 256 565 318 619 q 194 408 194 510 l 194 0 l 83 0 l 83 717 l 189 717 z "},"Ŗ":{"ha":897,"x_min":90,"x_max":863,"o":"m 817 286 l 826 126 q 863 0 833 43 l 742 0 q 710 132 711 44 l 706 238 q 661 380 701 338 q 529 422 621 422 l 207 422 l 207 0 l 90 0 l 90 989 l 508 989 q 752 918 661 989 q 843 719 843 847 q 799 567 843 629 q 681 481 756 506 q 817 286 806 442 m 207 528 l 522 528 q 669 576 615 528 q 722 713 722 624 q 666 840 722 797 q 508 883 610 883 l 207 883 l 207 528 m 481 -176 l 410 -176 l 410 -60 l 546 -60 l 546 -203 q 519 -284 546 -257 q 429 -315 492 -311 l 410 -317 l 410 -257 l 425 -256 q 481 -207 481 -251 l 481 -176 z "},"ŗ":{"ha":492,"x_min":72,"x_max":457,"o":"m 419 728 q 457 726 447 728 l 457 619 l 429 619 q 256 565 318 619 q 194 408 194 510 l 194 0 l 83 0 l 83 717 l 189 717 l 189 590 q 419 728 261 728 m 143 -225 l 72 -225 l 72 -108 l 208 -108 l 208 -251 q 181 -333 208 -306 q 92 -364 154 -360 l 72 -365 l 72 -306 l 88 -304 q 143 -256 143 -300 l 143 -225 z "},"Ř":{"ha":897,"x_min":90,"x_max":863,"o":"m 682 1249 l 524 1049 l 357 1049 l 199 1249 l 310 1249 l 440 1114 l 571 1249 l 682 1249 m 817 286 l 826 126 q 863 0 833 43 l 742 0 q 710 132 711 44 l 706 238 q 661 380 701 338 q 529 422 621 422 l 207 422 l 207 0 l 90 0 l 90 989 l 508 989 q 752 918 661 989 q 843 719 843 847 q 799 567 843 629 q 681 481 756 506 q 817 286 806 442 m 207 528 l 522 528 q 669 576 615 528 q 722 713 722 624 q 666 840 722 797 q 508 883 610 883 l 207 883 l 207 528 z "},"ř":{"ha":492,"x_min":82,"x_max":501,"o":"m 501 1024 l 371 824 l 213 824 l 82 1024 l 186 1024 l 290 888 l 397 1024 l 501 1024 m 189 717 l 189 590 q 419 728 261 728 q 457 726 447 728 l 457 619 l 429 619 q 256 565 318 619 q 194 408 194 510 l 194 0 l 83 0 l 83 717 l 189 717 z "},"Ś":{"ha":858,"x_min":42,"x_max":824,"o":"m 465 1071 l 367 1071 l 486 1271 l 636 1271 l 465 1071 m 453 -22 q 151 65 260 -22 q 42 326 43 153 l 163 326 q 453 83 167 83 q 638 131 574 83 q 703 268 703 178 q 649 378 703 339 q 463 447 596 418 l 375 467 q 150 567 225 501 q 75 753 75 633 q 167 941 75 871 q 413 1011 258 1011 q 594 986 517 1011 q 714 916 671 961 q 777 818 757 871 q 799 701 797 765 l 679 701 q 610 856 671 807 q 413 906 550 906 q 252 865 308 906 q 196 753 196 825 q 244 640 196 681 q 428 569 292 600 l 515 550 q 751 447 679 514 q 824 268 824 379 q 725 56 824 133 q 453 -22 626 -22 z "},"ś":{"ha":649,"x_min":32,"x_max":621,"o":"m 376 825 l 278 825 l 397 1025 l 547 1025 l 376 825 m 336 -17 q 32 228 49 -17 l 144 228 q 198 113 154 147 q 336 79 242 79 q 508 190 508 79 q 473 264 508 239 q 344 307 438 289 l 278 319 q 54 531 54 361 q 124 678 54 624 q 315 733 194 733 q 607 496 600 733 l 496 496 q 449 606 492 574 q 315 638 406 638 q 204 610 243 638 q 165 532 165 582 q 199 461 165 485 q 310 421 232 438 l 374 408 q 563 333 506 382 q 621 197 621 285 q 545 40 621 96 q 336 -17 469 -17 z "},"Ŝ":{"ha":858,"x_min":42,"x_max":824,"o":"m 547 1071 l 417 1206 l 286 1071 l 175 1071 l 333 1271 l 500 1271 l 658 1071 l 547 1071 m 428 569 l 515 550 q 751 447 679 514 q 824 268 824 379 q 725 56 824 133 q 453 -22 626 -22 q 151 65 260 -22 q 42 326 43 153 l 163 326 q 453 83 167 83 q 638 131 574 83 q 703 268 703 178 q 649 378 703 339 q 463 447 596 418 l 375 467 q 150 567 225 501 q 75 753 75 633 q 167 941 75 871 q 413 1011 258 1011 q 594 986 517 1011 q 714 916 671 961 q 777 818 757 871 q 799 701 797 765 l 679 701 q 610 856 671 807 q 413 906 550 906 q 252 865 308 906 q 196 753 196 825 q 244 640 196 681 q 428 569 292 600 z "},"ŝ":{"ha":649,"x_min":32,"x_max":621,"o":"m 454 825 l 324 960 l 193 825 l 82 825 l 240 1025 l 407 1025 l 565 825 l 454 825 m 310 421 l 374 408 q 563 333 506 382 q 621 197 621 285 q 545 40 621 96 q 336 -17 469 -17 q 32 228 49 -17 l 144 228 q 198 113 154 147 q 336 79 242 79 q 508 190 508 79 q 473 264 508 239 q 344 307 438 289 l 278 319 q 54 531 54 361 q 124 678 54 624 q 315 733 194 733 q 607 496 600 733 l 496 496 q 449 606 492 574 q 315 638 406 638 q 204 610 243 638 q 165 532 165 582 q 199 461 165 485 q 310 421 232 438 z "},"Ş":{"ha":858,"x_min":42,"x_max":824,"o":"m 824 268 q 739 67 824 143 q 501 -21 654 -10 l 447 -82 l 460 -82 q 551 -112 517 -82 q 585 -192 585 -143 q 394 -325 585 -325 q 310 -317 351 -325 l 310 -253 q 390 -258 349 -258 q 454 -242 431 -258 q 478 -194 478 -225 q 399 -137 478 -137 q 360 -139 372 -137 l 360 -86 l 411 -21 q 140 76 238 -12 q 42 326 43 164 l 163 326 q 453 83 167 83 q 638 131 574 83 q 703 268 703 178 q 649 378 703 339 q 463 447 596 418 l 375 467 q 150 567 225 501 q 75 753 75 633 q 167 941 75 871 q 413 1011 258 1011 q 594 986 517 1011 q 714 916 671 961 q 777 818 757 871 q 799 701 797 765 l 679 701 q 610 856 671 807 q 413 906 550 906 q 252 865 308 906 q 196 753 196 825 q 244 640 196 681 q 428 569 292 600 l 515 550 q 751 447 679 514 q 824 268 824 379 z "},"ş":{"ha":649,"x_min":32,"x_max":621,"o":"m 621 197 q 559 51 621 106 q 385 -14 497 -4 l 331 -76 l 343 -76 q 434 -107 400 -76 q 468 -186 468 -137 q 278 -319 468 -319 q 193 -311 235 -319 l 193 -247 q 274 -253 232 -253 q 338 -236 314 -253 q 361 -189 361 -219 q 282 -132 361 -132 q 243 -133 256 -132 l 243 -81 l 294 -15 q 32 228 46 4 l 144 228 q 198 113 154 147 q 336 79 242 79 q 508 190 508 79 q 473 264 508 239 q 344 307 438 289 l 278 319 q 54 531 54 361 q 124 678 54 624 q 315 733 194 733 q 607 496 600 733 l 496 496 q 449 606 492 574 q 315 638 406 638 q 204 610 243 638 q 165 532 165 582 q 199 461 165 485 q 310 421 232 438 l 374 408 q 563 333 506 382 q 621 197 621 285 z "},"Š":{"ha":858,"x_min":42,"x_max":824,"o":"m 658 1271 l 500 1071 l 333 1071 l 175 1271 l 286 1271 l 417 1136 l 547 1271 l 658 1271 m 428 569 l 515 550 q 751 447 679 514 q 824 268 824 379 q 725 56 824 133 q 453 -22 626 -22 q 151 65 260 -22 q 42 326 43 153 l 163 326 q 453 83 167 83 q 638 131 574 83 q 703 268 703 178 q 649 378 703 339 q 463 447 596 418 l 375 467 q 150 567 225 501 q 75 753 75 633 q 167 941 75 871 q 413 1011 258 1011 q 594 986 517 1011 q 714 916 671 961 q 777 818 757 871 q 799 701 797 765 l 679 701 q 610 856 671 807 q 413 906 550 906 q 252 865 308 906 q 196 753 196 825 q 244 640 196 681 q 428 569 292 600 z "},"š":{"ha":649,"x_min":32,"x_max":621,"o":"m 565 1024 l 407 824 l 240 824 l 82 1024 l 193 1024 l 324 889 l 454 1024 l 565 1024 m 310 421 l 374 408 q 563 333 506 382 q 621 197 621 285 q 545 40 621 96 q 336 -17 469 -17 q 32 228 49 -17 l 144 228 q 198 113 154 147 q 336 79 242 79 q 508 190 508 79 q 473 264 508 239 q 344 307 438 289 l 278 319 q 54 531 54 361 q 124 678 54 624 q 315 733 194 733 q 607 496 600 733 l 496 496 q 449 606 492 574 q 315 638 406 638 q 204 610 243 638 q 165 532 165 582 q 199 461 165 485 q 310 421 232 438 z "},"Ţ":{"ha":849,"x_min":28,"x_max":821,"o":"m 485 883 l 485 0 l 471 0 l 418 -60 l 431 -60 q 522 -90 488 -60 q 556 -169 556 -121 q 365 -303 556 -303 q 281 -294 322 -303 l 281 -231 q 361 -236 319 -236 q 425 -219 401 -236 q 449 -172 449 -203 q 369 -115 449 -115 q 331 -117 343 -115 l 331 -64 l 381 0 l 364 0 l 364 883 l 28 883 l 28 989 l 821 989 l 821 883 l 485 883 z "},"ţ":{"ha":432,"x_min":21,"x_max":400,"o":"m 263 -60 l 275 -60 q 366 -90 332 -60 q 400 -169 400 -121 q 210 -303 400 -303 q 125 -294 167 -303 l 125 -231 q 206 -236 164 -236 q 269 -219 246 -236 q 293 -172 293 -203 q 214 -115 293 -115 q 175 -117 188 -115 l 175 -64 l 231 7 q 139 144 139 33 l 139 619 l 21 619 l 21 717 l 139 717 l 139 919 l 250 919 l 250 717 l 397 717 l 397 619 l 250 619 l 250 154 q 332 93 250 93 l 397 93 l 397 0 q 318 -4 351 -4 l 311 -4 l 263 -60 z "},"Ť":{"ha":849,"x_min":28,"x_max":821,"o":"m 667 1249 l 508 1049 l 342 1049 l 183 1249 l 294 1249 l 425 1114 l 556 1249 l 667 1249 m 28 989 l 821 989 l 821 883 l 485 883 l 485 0 l 364 0 l 364 883 l 28 883 l 28 989 z "},"ť":{"ha":432,"x_min":21,"x_max":475,"o":"m 346 989 l 475 989 l 378 758 l 293 758 l 346 989 m 139 919 l 250 919 l 250 717 l 397 717 l 397 619 l 250 619 l 250 154 q 332 93 250 93 l 397 93 l 397 0 q 318 -4 351 -4 q 139 144 139 -4 l 139 619 l 21 619 l 21 717 l 139 717 l 139 919 z "},"Ŧ":{"ha":849,"x_min":28,"x_max":821,"o":"m 821 989 l 821 883 l 485 883 l 485 547 l 678 547 l 678 457 l 485 457 l 485 0 l 364 0 l 364 457 l 171 457 l 171 547 l 364 547 l 364 883 l 28 883 l 28 989 l 821 989 z "},"ŧ":{"ha":432,"x_min":21,"x_max":397,"o":"m 397 717 l 397 619 l 250 619 l 250 414 l 396 414 l 396 324 l 250 324 l 250 154 q 332 93 250 93 l 397 93 l 397 0 q 318 -4 351 -4 q 139 144 139 -4 l 139 324 l 22 324 l 22 414 l 139 414 l 139 619 l 21 619 l 21 717 l 139 717 l 139 919 l 250 919 l 250 717 l 397 717 z "},"Ũ":{"ha":931,"x_min":76,"x_max":854,"o":"m 325 1049 l 231 1049 q 356 1219 231 1219 q 476 1181 400 1219 q 564 1150 533 1150 q 603 1219 603 1150 l 697 1219 q 572 1049 697 1049 q 446 1089 533 1049 q 364 1118 386 1118 q 325 1049 325 1118 m 854 367 q 753 81 854 182 q 465 -21 651 -21 q 178 81 279 -21 q 76 367 76 182 l 76 989 l 193 989 l 193 367 q 465 85 193 85 q 738 367 738 85 l 738 989 l 854 989 l 854 367 z "},"ũ":{"ha":750,"x_min":83,"x_max":667,"o":"m 267 894 q 228 825 228 894 l 133 825 q 258 996 133 996 q 379 957 303 996 q 467 926 436 926 q 506 996 506 926 l 600 996 q 475 825 600 825 q 349 865 436 825 q 267 894 289 894 m 556 311 l 556 717 l 667 717 l 667 0 l 561 0 l 561 107 q 336 -17 479 -17 q 150 49 217 -17 q 83 232 83 114 l 83 717 l 194 717 l 194 243 q 358 83 194 83 q 496 142 436 83 q 556 311 556 200 z "},"Ū":{"ha":931,"x_min":76,"x_max":854,"o":"m 667 1049 l 264 1049 l 264 1142 l 667 1142 l 667 1049 m 854 367 q 753 81 854 182 q 465 -21 651 -21 q 178 81 279 -21 q 76 367 76 182 l 76 989 l 193 989 l 193 367 q 465 85 193 85 q 738 367 738 85 l 738 989 l 854 989 l 854 367 z "},"ū":{"ha":750,"x_min":83,"x_max":667,"o":"m 167 918 l 569 918 l 569 825 l 167 825 l 167 918 m 556 311 l 556 717 l 667 717 l 667 0 l 561 0 l 561 107 q 336 -17 479 -17 q 150 49 217 -17 q 83 232 83 114 l 83 717 l 194 717 l 194 243 q 358 83 194 83 q 496 142 436 83 q 556 311 556 200 z "},"Ŭ":{"ha":931,"x_min":76,"x_max":854,"o":"m 465 1042 q 315 1098 374 1042 q 251 1249 256 1154 l 347 1249 q 383 1162 351 1192 q 465 1132 414 1132 q 548 1162 517 1132 q 583 1249 579 1192 l 679 1249 q 614 1098 672 1154 q 465 1042 556 1042 m 854 367 q 753 81 854 182 q 465 -21 651 -21 q 178 81 279 -21 q 76 367 76 182 l 76 989 l 193 989 l 193 367 q 465 85 193 85 q 738 367 738 85 l 738 989 l 854 989 l 854 367 z "},"ŭ":{"ha":750,"x_min":83,"x_max":667,"o":"m 368 818 q 217 874 276 818 q 154 1025 158 931 l 250 1025 q 285 938 254 968 q 368 908 317 908 q 451 938 419 908 q 486 1025 482 968 l 582 1025 q 517 874 575 931 q 368 818 458 818 m 556 311 l 556 717 l 667 717 l 667 0 l 561 0 l 561 107 q 336 -17 479 -17 q 150 49 217 -17 q 83 232 83 114 l 83 717 l 194 717 l 194 243 q 358 83 194 83 q 496 142 436 83 q 556 311 556 200 z "},"Ů":{"ha":931,"x_min":76,"x_max":854,"o":"m 592 957 q 465 908 539 908 q 340 957 392 908 q 289 1078 289 1004 q 340 1199 289 1151 q 465 1247 392 1247 q 592 1199 539 1247 q 642 1078 642 1150 q 592 957 642 1006 m 401 1015 q 465 989 428 989 q 529 1015 503 989 q 556 1078 556 1040 q 529 1142 556 1115 q 465 1167 503 1167 q 401 1142 428 1167 q 375 1078 375 1115 q 401 1015 375 1040 m 854 367 q 753 81 854 182 q 465 -21 651 -21 q 178 81 279 -21 q 76 367 76 182 l 76 989 l 193 989 l 193 367 q 465 85 193 85 q 738 367 738 85 l 738 989 l 854 989 l 854 367 z "},"ů":{"ha":750,"x_min":83,"x_max":667,"o":"m 494 867 q 368 818 442 818 q 243 867 294 818 q 192 988 192 914 q 243 1108 192 1061 q 368 1157 294 1157 q 494 1108 442 1157 q 544 988 544 1061 q 494 867 544 914 m 432 1051 q 368 1076 406 1076 q 304 1051 331 1076 q 278 988 278 1025 q 304 925 278 950 q 368 899 331 899 q 432 925 406 899 q 458 988 458 950 q 432 1051 458 1025 m 556 311 l 556 717 l 667 717 l 667 0 l 561 0 l 561 107 q 336 -17 479 -17 q 150 49 217 -17 q 83 232 83 114 l 83 717 l 194 717 l 194 243 q 358 83 194 83 q 496 142 436 83 q 556 311 556 200 z "},"Ű":{"ha":931,"x_min":76,"x_max":854,"o":"m 394 1049 l 301 1049 l 421 1249 l 565 1249 l 394 1049 m 622 1049 l 529 1049 l 649 1249 l 793 1249 l 622 1049 m 854 367 q 753 81 854 182 q 465 -21 651 -21 q 178 81 279 -21 q 76 367 76 182 l 76 989 l 193 989 l 193 367 q 465 85 193 85 q 738 367 738 85 l 738 989 l 854 989 l 854 367 z "},"ű":{"ha":750,"x_min":83,"x_max":711,"o":"m 339 1025 l 483 1025 l 313 825 l 219 825 l 339 1025 m 711 1025 l 540 825 l 447 825 l 567 1025 l 711 1025 m 556 311 l 556 717 l 667 717 l 667 0 l 561 0 l 561 107 q 336 -17 479 -17 q 150 49 217 -17 q 83 232 83 114 l 83 717 l 194 717 l 194 243 q 358 83 194 83 q 496 142 436 83 q 556 311 556 200 z "},"Ų":{"ha":931,"x_min":76,"x_max":854,"o":"m 738 367 l 738 989 l 854 989 l 854 367 q 792 131 854 225 q 615 0 731 36 q 471 -139 471 -71 q 490 -182 471 -167 q 540 -197 510 -197 q 615 -183 582 -197 l 615 -274 q 521 -289 578 -289 q 410 -254 454 -289 q 365 -160 365 -219 q 392 -84 365 -121 q 464 -21 418 -47 q 178 81 279 -21 q 76 367 76 182 l 76 989 l 193 989 l 193 367 q 465 85 193 85 q 738 367 738 85 z "},"ų":{"ha":750,"x_min":83,"x_max":667,"o":"m 667 717 l 667 0 q 522 -139 522 -71 q 542 -182 522 -167 q 592 -197 561 -197 q 667 -183 633 -197 l 667 -274 q 572 -289 629 -289 q 461 -254 506 -289 q 417 -160 417 -219 q 456 -68 417 -112 q 561 0 496 -24 l 561 107 q 336 -17 479 -17 q 150 49 217 -17 q 83 232 83 114 l 83 717 l 194 717 l 194 243 q 358 83 194 83 q 496 142 436 83 q 556 311 556 200 l 556 717 l 667 717 z "},"Ŵ":{"ha":1328,"x_min":21,"x_max":1307,"o":"m 794 1049 l 664 1183 l 533 1049 l 422 1049 l 581 1249 l 747 1249 l 906 1049 l 794 1049 m 1051 501 l 1186 989 l 1307 989 l 1026 0 l 896 0 l 754 504 q 664 839 694 718 q 574 504 633 718 l 432 0 l 301 0 l 21 989 l 142 989 l 276 501 q 369 147 340 275 q 464 504 418 333 l 599 989 l 729 989 l 864 504 q 958 147 911 333 q 1051 501 988 275 z "},"ŵ":{"ha":1081,"x_min":7,"x_max":1074,"o":"m 671 825 l 540 960 l 410 825 l 299 825 l 457 1025 l 624 1025 l 782 825 l 671 825 m 853 393 l 954 717 l 1074 717 l 835 0 l 718 0 l 613 332 q 540 575 558 508 q 467 332 508 461 l 363 0 l 246 0 l 7 717 l 126 717 l 228 393 q 306 132 265 275 q 382 393 350 290 l 482 717 l 599 717 l 699 393 q 776 135 775 139 q 853 393 788 178 z "},"Ŷ":{"ha":914,"x_min":21,"x_max":893,"o":"m 588 1049 l 457 1183 l 326 1049 l 215 1049 l 374 1249 l 540 1249 l 699 1049 l 588 1049 m 617 758 l 761 989 l 893 989 l 515 397 l 515 0 l 399 0 l 399 397 l 21 989 l 154 989 l 300 757 q 458 501 394 610 q 617 758 547 651 z "},"ŷ":{"ha":665,"x_min":7,"x_max":658,"o":"m 464 825 l 333 960 l 203 825 l 92 825 l 250 1025 l 417 1025 l 575 825 l 464 825 m 436 419 l 538 717 l 658 717 l 356 -112 q 268 -240 324 -203 q 122 -276 213 -276 q 56 -272 92 -276 l 56 -179 l 121 -179 q 251 -90 217 -179 l 276 -24 l 7 717 l 129 717 l 231 418 q 333 108 285 260 q 436 419 374 238 z "},"Ÿ":{"ha":914,"x_min":21,"x_max":893,"o":"m 275 1185 l 393 1185 l 393 1049 l 275 1049 l 275 1185 m 518 1185 l 636 1185 l 636 1049 l 518 1049 l 518 1185 m 617 758 l 761 989 l 893 989 l 515 397 l 515 0 l 399 0 l 399 397 l 21 989 l 154 989 l 300 757 q 458 501 394 610 q 617 758 547 651 z "},"Ź":{"ha":833,"x_min":35,"x_max":799,"o":"m 493 1249 l 643 1249 l 472 1049 l 374 1049 l 493 1249 m 460 106 l 799 106 l 799 0 l 35 0 l 35 106 l 471 665 q 644 886 496 699 q 361 883 519 883 l 60 883 l 60 989 l 789 989 l 789 883 l 350 324 q 176 103 325 290 q 460 106 301 106 z "},"ź":{"ha":676,"x_min":49,"x_max":628,"o":"m 413 1025 l 563 1025 l 392 825 l 293 825 l 413 1025 m 340 97 l 628 97 l 628 0 l 49 0 l 49 83 l 376 506 q 432 575 400 535 q 469 622 464 615 q 317 619 400 619 l 63 619 l 63 717 l 608 717 l 608 633 l 281 211 q 225 142 257 182 q 188 94 193 101 q 340 97 257 97 z "},"Ż":{"ha":833,"x_min":35,"x_max":799,"o":"m 363 1185 l 482 1185 l 482 1049 l 363 1049 l 363 1185 m 460 106 l 799 106 l 799 0 l 35 0 l 35 106 l 471 665 q 644 886 496 699 q 361 883 519 883 l 60 883 l 60 989 l 789 989 l 789 883 l 350 324 q 176 103 325 290 q 460 106 301 106 z "},"ż":{"ha":676,"x_min":49,"x_max":628,"o":"m 278 961 l 397 961 l 397 825 l 278 825 l 278 961 m 340 97 l 628 97 l 628 0 l 49 0 l 49 83 l 376 506 q 432 575 400 535 q 469 622 464 615 q 317 619 400 619 l 63 619 l 63 717 l 608 717 l 608 633 l 281 211 q 225 142 257 182 q 188 94 193 101 q 340 97 257 97 z "},"Ž":{"ha":833,"x_min":35,"x_max":799,"o":"m 665 1249 l 507 1049 l 340 1049 l 182 1249 l 293 1249 l 424 1114 l 554 1249 l 665 1249 m 460 106 l 799 106 l 799 0 l 35 0 l 35 106 l 471 665 q 644 886 496 699 q 361 883 519 883 l 60 883 l 60 989 l 789 989 l 789 883 l 350 324 q 176 103 325 290 q 460 106 301 106 z "},"ž":{"ha":676,"x_min":49,"x_max":628,"o":"m 581 1024 l 422 824 l 256 824 l 97 1024 l 208 1024 l 339 889 l 469 1024 l 581 1024 m 340 97 l 628 97 l 628 0 l 49 0 l 49 83 l 376 506 q 432 575 400 535 q 469 622 464 615 q 317 619 400 619 l 63 619 l 63 717 l 608 717 l 608 633 l 281 211 q 225 142 257 182 q 188 94 193 101 q 340 97 257 97 z "},"Ə":{"ha":1001,"x_min":49,"x_max":953,"o":"m 496 1011 q 829 869 704 1011 q 953 492 953 725 q 831 119 953 260 q 500 -22 708 -22 q 168 124 286 -22 q 49 490 49 268 l 49 529 l 831 529 q 735 808 822 711 q 493 906 647 906 q 298 842 378 906 q 192 671 218 779 l 71 671 q 217 918 107 825 q 496 1011 326 1011 m 500 83 q 729 173 643 83 q 829 429 815 263 l 172 429 q 268 181 183 276 q 500 83 353 83 z "},"ƒ":{"ha":629,"x_min":35,"x_max":594,"o":"m 524 993 q 594 989 558 993 l 594 892 q 538 896 561 896 q 467 872 490 896 q 435 794 443 849 l 397 543 l 529 543 l 529 447 l 383 447 l 306 -86 q 246 -240 289 -193 q 106 -287 203 -287 q 35 -283 69 -287 l 35 -186 q 92 -190 68 -190 q 163 -167 139 -190 q 194 -89 186 -143 l 274 447 l 150 447 l 150 543 l 288 543 l 324 792 q 383 946 340 899 q 524 993 426 993 z "},"Ǵ":{"ha":1038,"x_min":49,"x_max":961,"o":"m 588 1271 l 738 1271 l 567 1071 l 468 1071 l 588 1271 m 540 403 l 540 508 l 961 508 l 961 0 l 865 0 l 840 133 q 517 -22 731 -22 q 178 121 304 -22 q 49 494 49 263 q 176 869 49 725 q 518 1011 303 1011 q 810 917 694 1011 q 950 665 925 822 l 829 665 q 724 840 811 775 q 518 904 639 904 q 265 793 360 904 q 171 494 171 682 q 265 196 171 307 q 518 85 360 85 q 757 175 658 85 q 856 403 856 265 l 540 403 z "},"ǵ":{"ha":817,"x_min":49,"x_max":733,"o":"m 469 1025 l 619 1025 l 449 825 l 350 825 l 469 1025 m 628 613 l 628 717 l 733 717 l 733 28 q 647 -204 733 -119 q 400 -289 561 -289 q 186 -228 267 -289 q 94 -58 106 -167 l 206 -58 q 400 -194 226 -194 q 622 28 622 -194 l 622 97 q 382 -17 538 -17 q 140 86 231 -17 q 49 358 49 189 q 140 632 49 531 q 382 733 229 733 q 628 613 542 733 m 396 83 q 564 157 501 83 q 626 358 626 231 q 564 560 626 486 q 396 633 501 633 q 228 558 292 633 q 165 358 165 483 q 228 158 165 233 q 396 83 292 83 z "},"Ǻ":{"ha":967,"x_min":21,"x_max":946,"o":"m 946 0 l 822 0 l 707 288 l 257 288 l 143 0 l 21 0 l 392 929 q 303 1078 303 976 q 344 1189 303 1143 q 450 1244 386 1235 l 549 1410 l 699 1410 l 549 1235 q 627 1174 599 1215 q 656 1078 656 1132 q 569 931 656 979 l 946 0 m 543 1142 q 479 1167 517 1167 q 415 1142 442 1167 q 389 1078 389 1115 q 415 1015 389 1040 q 479 989 442 989 q 543 1015 517 989 q 569 1078 569 1040 q 543 1142 569 1115 m 303 404 l 299 393 l 665 393 l 660 406 q 479 863 625 490 q 303 404 381 599 z "},"ǻ":{"ha":724,"x_min":42,"x_max":710,"o":"m 435 1451 l 585 1451 l 414 1251 l 315 1251 l 435 1451 m 488 867 q 361 818 435 818 q 236 867 288 818 q 185 988 185 914 q 236 1108 185 1061 q 361 1157 288 1157 q 488 1108 435 1157 q 538 988 538 1061 q 488 867 538 914 m 425 1051 q 361 1076 399 1076 q 297 1051 324 1076 q 271 988 271 1025 q 297 925 271 950 q 361 899 324 899 q 425 925 399 899 q 451 988 451 950 q 425 1051 451 1025 m 669 90 l 710 90 l 710 0 q 649 -4 682 -4 q 528 99 536 -4 q 294 -17 453 -17 q 109 38 176 -17 q 42 193 42 93 q 307 415 42 388 l 410 426 q 522 525 522 439 q 485 611 522 585 q 361 638 449 638 q 227 606 268 638 q 181 496 186 575 l 69 496 q 361 733 83 733 q 631 525 631 733 l 631 125 q 669 90 631 90 m 300 78 q 456 132 389 78 q 522 283 522 185 l 522 368 q 428 338 492 344 l 324 325 q 195 283 233 314 q 157 196 157 253 q 193 109 157 140 q 300 78 229 78 z "},"Ǽ":{"ha":1433,"x_min":21,"x_max":1399,"o":"m 1061 1249 l 1211 1249 l 1040 1049 l 942 1049 l 1061 1249 m 1399 989 l 1399 883 l 869 883 l 869 568 l 1343 568 l 1343 463 l 869 463 l 869 106 l 1393 106 l 1393 0 l 753 0 l 753 288 l 304 288 l 150 0 l 21 0 l 556 989 l 1399 989 m 625 883 l 361 393 l 753 393 l 753 883 l 625 883 z "},"ǽ":{"ha":1199,"x_min":42,"x_max":1150,"o":"m 678 1025 l 828 1025 l 657 825 l 558 825 l 678 1025 m 1150 358 l 1150 319 l 632 319 q 694 144 640 203 q 842 85 749 85 q 1022 218 983 85 l 1132 218 q 1030 47 1107 110 q 839 -17 953 -17 q 576 132 664 -17 q 457 22 531 61 q 294 -17 383 -17 q 109 38 176 -17 q 42 193 42 93 q 307 415 42 388 l 410 426 q 522 525 522 439 q 485 611 522 585 q 361 638 449 638 q 227 606 268 638 q 181 496 186 575 l 69 496 q 361 733 83 733 q 607 628 551 733 q 836 733 694 733 q 1067 626 983 733 q 1150 358 1150 521 m 836 632 q 700 577 753 632 q 635 419 647 522 l 1036 419 q 975 574 1028 515 q 836 632 922 632 m 300 78 q 456 132 389 78 q 522 283 522 185 l 522 368 q 428 338 492 344 l 324 325 q 195 283 233 314 q 157 196 157 253 q 193 109 157 140 q 300 78 229 78 z "},"Ǿ":{"ha":1044,"x_min":22,"x_max":1022,"o":"m 592 1271 l 742 1271 l 571 1071 l 472 1071 l 592 1271 m 949 1049 l 1022 983 l 893 838 q 996 494 996 697 q 867 121 996 263 q 522 -22 736 -22 q 221 79 343 -22 l 96 -61 l 22 4 l 153 151 q 49 494 49 288 q 179 869 49 726 q 522 1011 308 1011 q 825 908 699 1011 l 949 1049 m 171 494 q 233 242 171 343 l 749 824 q 522 904 658 904 q 267 793 363 904 q 171 494 171 683 m 874 494 q 813 746 874 640 l 297 165 q 522 85 388 85 q 778 196 682 85 q 874 494 874 306 z "},"ǿ":{"ha":790,"x_min":28,"x_max":763,"o":"m 469 1025 l 619 1025 l 449 825 l 350 825 l 469 1025 m 693 774 l 763 713 l 668 604 q 743 358 743 503 q 646 86 743 188 q 396 -17 547 -17 q 189 47 275 -17 l 97 -58 l 28 3 l 124 113 q 49 358 49 214 q 146 631 49 529 q 396 733 244 733 q 603 669 517 733 l 693 774 m 165 358 q 199 201 165 264 l 533 589 q 396 633 476 633 q 228 560 290 633 q 165 358 165 486 m 626 358 q 593 517 626 447 l 258 128 q 396 83 315 83 q 564 157 501 83 q 626 358 626 231 z "},"Ș":{"ha":858,"x_min":42,"x_max":824,"o":"m 428 569 l 515 550 q 751 447 679 514 q 824 268 824 379 q 725 56 824 133 q 453 -22 626 -22 q 151 65 260 -22 q 42 326 43 153 l 163 326 q 453 83 167 83 q 638 131 574 83 q 703 268 703 178 q 649 378 703 339 q 463 447 596 418 l 375 467 q 150 567 225 501 q 75 753 75 633 q 167 941 75 871 q 413 1011 258 1011 q 594 986 517 1011 q 714 916 671 961 q 777 818 757 871 q 799 701 797 765 l 679 701 q 610 856 671 807 q 413 906 550 906 q 252 865 308 906 q 196 753 196 825 q 244 640 196 681 q 428 569 292 600 m 458 -199 l 388 -199 l 388 -82 l 524 -82 l 524 -225 q 497 -306 524 -279 q 407 -337 469 -333 l 388 -339 l 388 -279 l 403 -278 q 458 -229 458 -274 l 458 -199 z "},"ș":{"ha":649,"x_min":32,"x_max":621,"o":"m 310 421 l 374 408 q 563 333 506 382 q 621 197 621 285 q 545 40 621 96 q 336 -17 469 -17 q 32 228 49 -17 l 144 228 q 198 113 154 147 q 336 79 242 79 q 508 190 508 79 q 473 264 508 239 q 344 307 438 289 l 278 319 q 54 531 54 361 q 124 678 54 624 q 315 733 194 733 q 607 496 600 733 l 496 496 q 449 606 492 574 q 315 638 406 638 q 204 610 243 638 q 165 532 165 582 q 199 461 165 485 q 310 421 232 438 m 342 -242 l 271 -242 l 271 -125 l 407 -125 l 407 -268 q 380 -349 407 -322 q 290 -381 353 -376 l 271 -382 l 271 -322 l 286 -321 q 342 -272 342 -317 l 342 -242 z "},"Ț":{"ha":849,"x_min":28,"x_max":821,"o":"m 28 883 l 28 989 l 821 989 l 821 883 l 485 883 l 485 0 l 364 0 l 364 883 l 28 883 m 429 -176 l 358 -176 l 358 -60 l 494 -60 l 494 -203 q 467 -284 494 -257 q 378 -315 440 -311 l 358 -317 l 358 -257 l 374 -256 q 429 -207 429 -251 l 429 -176 z "},"ț":{"ha":432,"x_min":21,"x_max":397,"o":"m 397 717 l 397 619 l 250 619 l 250 154 q 332 93 250 93 l 397 93 l 397 0 q 318 -4 351 -4 q 139 144 139 -4 l 139 619 l 21 619 l 21 717 l 139 717 l 139 919 l 250 919 l 250 717 l 397 717 m 274 -225 l 203 -225 l 203 -108 l 339 -108 l 339 -251 q 312 -333 339 -306 q 222 -364 285 -360 l 203 -365 l 203 -306 l 218 -304 q 274 -256 274 -300 l 274 -225 z "},"ȷ":{"ha":278,"x_min":-31,"x_max":194,"o":"m 29 -276 q -31 -275 -15 -276 l -31 -179 l 15 -179 q 83 -118 83 -179 l 83 717 l 194 717 l 194 -128 q 29 -276 194 -276 z "},"ə":{"ha":757,"x_min":49,"x_max":708,"o":"m 375 733 q 617 632 524 733 q 708 358 708 531 q 618 86 708 189 q 378 -17 526 -17 q 136 90 224 -17 q 49 358 49 197 l 49 397 l 593 397 q 528 573 585 514 q 372 632 471 632 q 248 597 299 632 q 178 499 197 563 l 61 499 q 172 670 90 607 q 375 733 254 733 m 378 85 q 521 140 465 85 q 590 297 576 194 l 168 297 q 232 144 176 203 q 378 85 288 85 z "},"ʰ":{"ha":647,"x_min":63,"x_max":585,"o":"m 365 1001 q 527 944 469 1001 q 585 781 585 886 l 585 364 l 475 364 l 475 768 q 338 906 475 906 q 220 855 268 906 q 172 715 172 804 l 172 364 l 63 364 l 63 1224 l 172 1224 l 172 894 q 365 1001 242 1001 z "},"ʳ":{"ha":442,"x_min":63,"x_max":400,"o":"m 367 999 q 400 997 393 999 l 400 893 l 371 893 q 224 844 276 893 q 172 706 172 796 l 172 364 l 63 364 l 63 989 l 168 989 l 168 876 q 367 999 228 999 z "},"ˆ":{"ha":556,"x_min":36,"x_max":519,"o":"m 361 1025 l 519 825 l 408 825 l 278 960 l 147 825 l 36 825 l 194 1025 l 361 1025 z "},"ˇ":{"ha":556,"x_min":36,"x_max":519,"o":"m 278 889 l 408 1024 l 519 1024 l 361 824 l 194 824 l 36 1024 l 147 1024 l 278 889 z "},"ˉ":{"ha":556,"x_min":76,"x_max":479,"o":"m 479 825 l 76 825 l 76 918 l 479 918 l 479 825 z "},"˘":{"ha":556,"x_min":64,"x_max":492,"o":"m 278 818 q 127 874 186 818 q 64 1025 68 931 l 160 1025 q 195 938 164 968 q 278 908 226 908 q 360 938 329 908 q 396 1025 392 968 l 492 1025 q 426 874 485 931 q 278 818 368 818 z "},"˙":{"ha":556,"x_min":218,"x_max":338,"o":"m 338 825 l 218 825 l 218 961 l 338 961 l 338 825 z "},"˚":{"ha":556,"x_min":101,"x_max":454,"o":"m 404 867 q 278 818 351 818 q 153 867 204 818 q 101 988 101 914 q 153 1108 101 1061 q 278 1157 204 1157 q 404 1108 351 1157 q 454 988 454 1061 q 404 867 454 914 m 214 925 q 278 899 240 899 q 342 925 315 899 q 368 988 368 950 q 342 1051 368 1025 q 278 1076 315 1076 q 214 1051 240 1076 q 188 988 188 1025 q 214 925 188 950 z "},"˛":{"ha":556,"x_min":153,"x_max":403,"o":"m 308 -289 q 197 -254 242 -289 q 153 -160 153 -219 q 192 -68 153 -112 q 297 0 232 -24 l 403 0 q 258 -139 258 -71 q 278 -182 258 -167 q 328 -197 297 -197 q 403 -183 369 -197 l 403 -274 q 308 -289 365 -289 z "},"˜":{"ha":556,"x_min":44,"x_max":511,"o":"m 139 825 l 44 825 q 169 996 44 996 q 290 957 214 996 q 378 926 347 926 q 417 996 417 926 l 511 996 q 386 825 511 825 q 260 865 347 825 q 178 894 200 894 q 139 825 139 894 z "},"˝":{"ha":556,"x_min":32,"x_max":524,"o":"m 125 825 l 32 825 l 151 1025 l 296 1025 l 125 825 m 353 825 l 260 825 l 379 1025 l 524 1025 l 353 825 z "},"ˢ":{"ha":594,"x_min":35,"x_max":560,"o":"m 304 349 q 107 401 172 349 q 35 561 42 453 l 144 561 q 187 465 151 493 q 306 436 222 436 q 450 529 450 436 q 419 592 450 571 q 313 626 389 614 l 246 638 q 50 822 50 669 q 113 954 50 907 q 293 1001 176 1001 q 547 796 542 1001 l 440 796 q 400 888 436 860 q 292 915 364 915 q 160 826 160 915 q 189 763 160 785 q 282 731 218 740 l 346 721 q 508 662 456 704 q 560 538 560 619 q 492 398 560 447 q 304 349 424 349 z "},"̀":{"ha":0,"x_min":-135,"x_max":135,"o":"m 135 825 l 36 825 l -135 1025 l 15 1025 l 135 825 z "},"́":{"ha":0,"x_min":-135,"x_max":135,"o":"m -36 825 l -135 825 l -15 1025 l 135 1025 l -36 825 z "},"̂":{"ha":0,"x_min":-242,"x_max":242,"o":"m 83 1025 l 242 825 l 131 825 l 0 960 l -131 825 l -242 825 l -83 1025 l 83 1025 z "},"̃":{"ha":0,"x_min":-233,"x_max":233,"o":"m -139 825 l -233 825 q -108 996 -233 996 q 13 957 -64 996 q 100 926 69 926 q 139 996 139 926 l 233 996 q 108 825 233 825 q -18 865 69 825 q -100 894 -78 894 q -139 825 -139 894 z "},"̄":{"ha":0,"x_min":-201,"x_max":201,"o":"m 201 825 l -201 825 l -201 918 l 201 918 l 201 825 z "},"̆":{"ha":0,"x_min":-428,"x_max":0,"o":"m -214 818 q -365 874 -306 818 q -428 1025 -424 931 l -332 1025 q -297 938 -328 968 q -214 908 -265 908 q -131 938 -162 908 q -96 1025 -100 968 l 0 1025 q -65 874 -7 931 q -214 818 -124 818 z "},"̇":{"ha":0,"x_min":-60,"x_max":60,"o":"m 60 825 l -60 825 l -60 961 l 60 961 l 60 825 z "},"̈":{"ha":0,"x_min":-181,"x_max":181,"o":"m -62 825 l -181 825 l -181 961 l -62 961 l -62 825 m 181 825 l 63 825 l 63 961 l 181 961 l 181 825 z "},"̊":{"ha":0,"x_min":-176,"x_max":176,"o":"m 126 867 q 0 818 74 818 q -126 867 -74 818 q -176 988 -176 914 q -126 1108 -176 1061 q 0 1157 -74 1157 q 126 1108 74 1157 q 176 988 176 1061 q 126 867 176 914 m -64 925 q 0 899 -37 899 q 64 925 38 899 q 90 988 90 950 q 64 1051 90 1025 q 0 1076 38 1076 q -64 1051 -37 1076 q -90 988 -90 1025 q -64 925 -90 950 z "},"̋":{"ha":0,"x_min":-246,"x_max":246,"o":"m -153 825 l -246 825 l -126 1025 l 18 1025 l -153 825 m 75 825 l -18 825 l 101 1025 l 246 1025 l 75 825 z "},"̌":{"ha":0,"x_min":-483,"x_max":0,"o":"m -242 889 l -111 1024 l 0 1024 l -158 824 l -325 824 l -483 1024 l -372 1024 l -242 889 z "},"̒":{"ha":0,"x_min":-68,"x_max":68,"o":"m 68 1022 l 53 1021 q -3 972 -3 1017 l -3 942 l 68 942 l 68 825 l -68 825 l -68 968 q -41 1049 -68 1022 q 49 1081 -14 1076 l 68 1082 l 68 1022 z "},"̓":{"ha":0,"x_min":-68,"x_max":68,"o":"m -68 958 l -68 1075 l 68 1075 l 68 932 q 41 851 68 878 q -49 819 14 824 l -68 818 l -68 878 l -53 879 q 3 928 3 883 l 3 958 l -68 958 z "},"̣":{"ha":0,"x_min":-60,"x_max":60,"o":"m 60 -244 l -60 -244 l -60 -108 l 60 -108 l 60 -244 z "},"̤":{"ha":0,"x_min":-181,"x_max":181,"o":"m -62 -244 l -181 -244 l -181 -108 l -62 -108 l -62 -244 m 181 -244 l 63 -244 l 63 -108 l 181 -108 l 181 -244 z "},"̥":{"ha":0,"x_min":-176,"x_max":176,"o":"m 126 -399 q 0 -447 74 -447 q -126 -399 -74 -447 q -176 -278 -176 -350 q -126 -157 -176 -206 q 0 -108 -74 -108 q 126 -157 74 -108 q 176 -278 176 -206 q 126 -399 176 -350 m -64 -342 q 0 -367 -37 -367 q 64 -342 38 -367 q 90 -278 90 -315 q 64 -215 90 -240 q 0 -189 38 -189 q -64 -215 -37 -189 q -90 -278 -90 -240 q -64 -342 -90 -315 z "},"̦":{"ha":0,"x_min":-68,"x_max":68,"o":"m -68 -225 l -68 -108 l 68 -108 l 68 -251 q 41 -333 68 -306 q -49 -364 14 -360 l -68 -365 l -68 -306 l -53 -304 q 3 -256 3 -300 l 3 -225 l -68 -225 z "},"̧":{"ha":0,"x_min":-275,"x_max":0,"o":"m -137 -60 l -125 -60 q -34 -90 -68 -60 q 0 -169 0 -121 q -190 -303 0 -303 q -275 -294 -233 -303 l -275 -231 q -194 -236 -236 -236 q -131 -219 -154 -236 q -107 -172 -107 -203 q -186 -115 -107 -115 q -225 -117 -212 -115 l -225 -64 l -169 7 l -79 7 l -137 -60 z "},"̨":{"ha":0,"x_min":-125,"x_max":125,"o":"m 31 -289 q -81 -254 -36 -289 q -125 -160 -125 -219 q -85 -68 -125 -112 q 19 0 -46 -24 l 125 0 q -19 -139 -19 -71 q 0 -182 -19 -167 q 50 -197 19 -197 q 125 -183 92 -197 l 125 -274 q 31 -289 88 -289 z "},"̮":{"ha":0,"x_min":-428,"x_max":0,"o":"m -214 -315 q -365 -259 -306 -315 q -428 -108 -424 -203 l -332 -108 q -297 -195 -328 -165 q -214 -225 -265 -225 q -131 -195 -162 -225 q -96 -108 -100 -165 l 0 -108 q -65 -259 -7 -203 q -214 -315 -124 -315 z "},"̱":{"ha":0,"x_min":-201,"x_max":201,"o":"m 201 -201 l -201 -201 l -201 -108 l 201 -108 l 201 -201 z "},"̵":{"ha":0,"x_min":-196,"x_max":196,"o":"m 196 336 l -196 336 l -196 426 l 196 426 l 196 336 z "},"̷":{"ha":0,"x_min":-368,"x_max":368,"o":"m 368 711 l -299 -60 l -368 1 l 299 772 l 368 711 z "},"̸":{"ha":0,"x_min":-500,"x_max":500,"o":"m 500 969 l -426 -75 l -500 -10 l 426 1035 l 500 969 z "},"Δ":{"ha":910,"x_min":35,"x_max":875,"o":"m 388 989 l 518 989 l 875 106 l 875 0 l 35 0 l 35 106 l 388 989 m 451 863 q 275 404 340 567 l 157 106 l 753 106 l 632 406 q 451 863 597 490 z "},"Ω":{"ha":1058,"x_min":49,"x_max":1010,"o":"m 456 0 l 49 0 l 49 104 l 285 104 l 285 107 q 119 290 178 178 q 60 533 60 403 q 190 881 60 754 q 531 1007 318 1007 q 868 881 742 1007 q 994 533 994 754 q 938 289 994 401 q 774 107 881 176 l 774 104 l 1010 104 l 1010 0 l 604 0 l 604 93 q 808 277 739 164 q 876 533 876 390 q 785 808 876 714 q 531 903 693 903 q 272 808 365 903 q 178 533 178 714 q 249 278 178 393 q 456 93 319 164 l 456 0 z "},"μ":{"ha":750,"x_min":83,"x_max":667,"o":"m 556 311 l 556 717 l 667 717 l 667 0 l 561 0 l 561 107 q 336 -17 479 -17 q 194 33 256 -17 l 194 -272 l 83 -272 l 83 717 l 194 717 l 194 243 q 358 83 194 83 q 496 142 436 83 q 556 311 556 200 z "},"π":{"ha":782,"x_min":21,"x_max":747,"o":"m 747 717 l 747 619 l 629 619 l 629 156 q 640 108 629 122 q 683 94 651 94 l 733 94 l 733 0 q 668 -4 692 -4 q 555 31 592 -4 q 518 146 518 67 l 518 619 l 250 619 l 250 0 l 139 0 l 139 619 l 21 619 l 21 717 l 747 717 z "},"ᵈ":{"ha":719,"x_min":56,"x_max":657,"o":"m 547 894 l 547 1224 l 657 1224 l 657 364 l 551 364 l 551 463 q 342 350 481 350 q 133 438 211 350 q 56 675 56 526 q 133 913 56 824 q 342 1001 211 1001 q 547 894 478 1001 m 221 504 q 360 444 272 444 q 499 506 446 444 q 550 675 550 565 q 499 845 550 783 q 360 907 447 907 q 221 844 272 907 q 169 671 169 781 q 221 504 169 561 z "},"ᵗ":{"ha":424,"x_min":42,"x_max":382,"o":"m 382 989 l 382 899 l 253 899 l 253 513 q 269 468 253 482 q 326 454 286 454 l 382 454 l 382 367 q 310 361 349 361 q 143 501 143 361 l 143 899 l 42 899 l 42 989 l 143 989 l 143 1167 l 253 1167 l 253 989 l 382 989 z "},"Ẁ":{"ha":1328,"x_min":21,"x_max":1307,"o":"m 589 1249 l 708 1049 l 610 1049 l 439 1249 l 589 1249 m 1051 501 l 1186 989 l 1307 989 l 1026 0 l 896 0 l 754 504 q 664 839 694 718 q 574 504 633 718 l 432 0 l 301 0 l 21 989 l 142 989 l 276 501 q 369 147 340 275 q 464 504 418 333 l 599 989 l 729 989 l 864 504 q 958 147 911 333 q 1051 501 988 275 z "},"ẁ":{"ha":1081,"x_min":7,"x_max":1074,"o":"m 472 1025 l 592 825 l 493 825 l 322 1025 l 472 1025 m 853 393 l 954 717 l 1074 717 l 835 0 l 718 0 l 613 332 q 540 575 558 508 q 467 332 508 461 l 363 0 l 246 0 l 7 717 l 126 717 l 228 393 q 306 132 265 275 q 382 393 350 290 l 482 717 l 599 717 l 699 393 q 776 135 775 139 q 853 393 788 178 z "},"Ẃ":{"ha":1328,"x_min":21,"x_max":1307,"o":"m 733 1249 l 883 1249 l 713 1049 l 614 1049 l 733 1249 m 1051 501 l 1186 989 l 1307 989 l 1026 0 l 896 0 l 754 504 q 664 839 694 718 q 574 504 633 718 l 432 0 l 301 0 l 21 989 l 142 989 l 276 501 q 369 147 340 275 q 464 504 418 333 l 599 989 l 729 989 l 864 504 q 958 147 911 333 q 1051 501 988 275 z "},"ẃ":{"ha":1081,"x_min":7,"x_max":1074,"o":"m 614 1025 l 764 1025 l 593 825 l 494 825 l 614 1025 m 853 393 l 954 717 l 1074 717 l 835 0 l 718 0 l 613 332 q 540 575 558 508 q 467 332 508 461 l 363 0 l 246 0 l 7 717 l 126 717 l 228 393 q 306 132 265 275 q 382 393 350 290 l 482 717 l 599 717 l 699 393 q 776 135 775 139 q 853 393 788 178 z "},"Ẅ":{"ha":1328,"x_min":21,"x_max":1307,"o":"m 482 1185 l 600 1185 l 600 1049 l 482 1049 l 482 1185 m 725 1185 l 843 1185 l 843 1049 l 725 1049 l 725 1185 m 1051 501 l 1186 989 l 1307 989 l 1026 0 l 896 0 l 754 504 q 664 839 694 718 q 574 504 633 718 l 432 0 l 301 0 l 21 989 l 142 989 l 276 501 q 369 147 340 275 q 464 504 418 333 l 599 989 l 729 989 l 864 504 q 958 147 911 333 q 1051 501 988 275 z "},"ẅ":{"ha":1081,"x_min":7,"x_max":1074,"o":"m 358 961 l 476 961 l 476 825 l 358 825 l 358 961 m 601 961 l 719 961 l 719 825 l 601 825 l 601 961 m 853 393 l 954 717 l 1074 717 l 835 0 l 718 0 l 613 332 q 540 575 558 508 q 467 332 508 461 l 363 0 l 246 0 l 7 717 l 126 717 l 228 393 q 306 132 265 275 q 382 393 350 290 l 482 717 l 599 717 l 699 393 q 776 135 775 139 q 853 393 788 178 z "},"ẞ":{"ha":915,"x_min":76,"x_max":881,"o":"m 836 900 l 561 586 q 795 494 710 574 q 881 288 881 414 q 783 69 881 150 q 515 -14 686 -14 q 328 7 419 -14 l 328 113 q 510 92 415 92 q 699 143 633 92 q 764 288 764 194 q 698 428 764 379 q 508 478 632 478 q 419 474 464 478 l 419 576 l 690 897 q 497 904 600 904 q 263 835 333 904 q 193 622 193 765 l 193 0 l 76 0 l 76 622 q 497 1010 76 1010 q 836 989 682 1010 l 836 900 z "},"Ỳ":{"ha":914,"x_min":21,"x_max":893,"o":"m 382 1249 l 501 1049 l 403 1049 l 232 1249 l 382 1249 m 617 758 l 761 989 l 893 989 l 515 397 l 515 0 l 399 0 l 399 397 l 21 989 l 154 989 l 300 757 q 458 501 394 610 q 617 758 547 651 z "},"ỳ":{"ha":665,"x_min":7,"x_max":658,"o":"m 265 1025 l 385 825 l 286 825 l 115 1025 l 265 1025 m 436 419 l 538 717 l 658 717 l 356 -112 q 268 -240 324 -203 q 122 -276 213 -276 q 56 -272 92 -276 l 56 -179 l 121 -179 q 251 -90 217 -179 l 276 -24 l 7 717 l 129 717 l 231 418 q 333 108 285 260 q 436 419 374 238 z "}," ":{"ha":278,"x_min":0,"x_max":0,"o":""},"‑":{"ha":513,"x_min":56,"x_max":457,"o":"m 457 342 l 56 342 l 56 442 l 457 442 l 457 342 z "},"–":{"ha":735,"x_min":56,"x_max":679,"o":"m 679 342 l 56 342 l 56 442 l 679 442 l 679 342 z "},"—":{"ha":1335,"x_min":56,"x_max":1279,"o":"m 1279 342 l 56 342 l 56 442 l 1279 442 l 1279 342 z "},"‘":{"ha":263,"x_min":63,"x_max":200,"o":"m 200 917 l 190 915 q 140 822 140 908 l 140 800 l 200 800 l 200 664 l 63 664 l 63 813 q 186 989 63 976 l 200 990 l 200 917 z "},"’":{"ha":263,"x_min":63,"x_max":200,"o":"m 63 853 l 63 989 l 200 989 l 200 840 q 76 664 200 676 l 63 663 l 63 736 l 72 738 q 122 831 122 744 l 122 853 l 63 853 z "},"‚":{"ha":263,"x_min":63,"x_max":200,"o":"m 63 0 l 63 136 l 200 136 l 200 -12 q 76 -189 200 -176 l 63 -190 l 63 -117 l 72 -115 q 122 -22 122 -108 l 122 0 l 63 0 z "},"“":{"ha":454,"x_min":63,"x_max":392,"o":"m 63 663 l 63 811 q 186 988 63 975 l 200 989 l 200 915 l 190 914 q 140 821 140 908 l 140 799 l 200 799 l 200 663 l 63 663 m 392 915 l 382 914 q 332 821 332 908 l 332 799 l 392 799 l 392 663 l 254 663 l 254 811 q 378 988 254 975 l 392 989 l 392 915 z "},"”":{"ha":454,"x_min":63,"x_max":392,"o":"m 122 853 l 63 853 l 63 989 l 200 989 l 200 840 q 76 664 200 676 l 63 663 l 63 736 l 72 738 q 122 831 122 744 l 122 853 m 254 853 l 254 989 l 392 989 l 392 840 q 268 664 392 676 l 254 663 l 254 736 l 264 738 q 314 831 314 744 l 314 853 l 254 853 z "},"„":{"ha":454,"x_min":63,"x_max":392,"o":"m 122 0 l 63 0 l 63 136 l 200 136 l 200 -12 q 76 -189 200 -176 l 63 -190 l 63 -117 l 72 -115 q 122 -22 122 -108 l 122 0 m 254 0 l 254 136 l 392 136 l 392 -12 q 268 -189 392 -176 l 254 -190 l 254 -117 l 264 -115 q 314 -22 314 -108 l 314 0 l 254 0 z "},"†":{"ha":793,"x_min":28,"x_max":765,"o":"m 457 717 l 765 717 l 765 611 l 457 611 l 457 -203 l 336 -203 l 336 611 l 28 611 l 28 717 l 336 717 l 336 989 l 457 989 l 457 717 z "},"‡":{"ha":793,"x_min":28,"x_max":765,"o":"m 765 717 l 765 611 l 457 611 l 457 175 l 765 175 l 765 69 l 457 69 l 457 -203 l 336 -203 l 336 69 l 28 69 l 28 175 l 336 175 l 336 611 l 28 611 l 28 717 l 336 717 l 336 989 l 457 989 l 457 717 l 765 717 z "},"•":{"ha":424,"x_min":90,"x_max":333,"o":"m 333 276 l 90 276 l 90 517 l 333 517 l 333 276 z "},"…":{"ha":890,"x_min":63,"x_max":828,"o":"m 203 0 l 63 0 l 63 139 l 203 139 l 203 0 m 522 0 l 382 0 l 382 139 l 522 139 l 522 0 m 828 0 l 688 0 l 688 139 l 828 139 l 828 0 z "},"‰":{"ha":1757,"x_min":28,"x_max":1729,"o":"m 436 483 q 261 403 376 403 q 88 483 146 403 q 28 701 28 561 q 88 923 28 844 q 261 1001 147 1001 q 435 923 375 1001 q 494 701 494 844 q 436 483 494 563 m 407 0 l 300 0 l 828 989 l 935 989 l 407 0 m 135 701 q 261 490 135 490 q 388 701 388 490 q 261 914 388 914 q 135 701 135 914 m 1149 68 q 974 -12 1089 -12 q 800 68 858 -12 q 740 286 740 146 q 800 508 740 429 q 974 586 860 586 q 1147 508 1088 586 q 1207 286 1207 429 q 1149 68 1207 147 m 1671 68 q 1496 -12 1611 -12 q 1322 68 1381 -12 q 1263 286 1263 146 q 1322 508 1263 429 q 1496 586 1382 586 q 1669 508 1610 586 q 1729 286 1729 429 q 1671 68 1729 147 m 847 286 q 974 75 847 75 q 1100 286 1100 75 q 974 499 1100 499 q 847 286 847 499 m 1369 286 q 1496 75 1369 75 q 1622 286 1622 75 q 1496 499 1622 499 q 1369 286 1369 499 z "},"‹":{"ha":417,"x_min":90,"x_max":326,"o":"m 90 422 l 326 615 l 326 486 l 168 358 l 326 229 l 326 100 l 90 293 l 90 422 z "},"›":{"ha":417,"x_min":90,"x_max":326,"o":"m 90 486 l 90 615 l 326 422 l 326 293 l 90 100 l 90 229 l 249 358 l 90 486 z "},"‽":{"ha":704,"x_min":35,"x_max":663,"o":"m 357 1011 q 581 943 500 1011 q 663 749 663 875 q 628 622 663 678 q 517 500 593 565 q 413 382 436 432 q 394 258 397 349 l 301 258 l 293 689 l 293 794 l 414 794 l 414 689 l 407 544 l 422 560 q 508 647 489 619 q 525 674 517 658 q 544 747 544 710 q 361 906 544 906 q 208 855 260 906 q 149 685 156 804 l 35 685 q 121 928 36 844 q 357 1011 206 1011 m 417 0 l 276 0 l 276 139 l 417 139 l 417 0 z "},"⁄":{"ha":413,"x_min":-110,"x_max":522,"o":"m -6 0 l -110 0 l 418 989 l 522 989 l -6 0 z "},"⁰":{"ha":522,"x_min":28,"x_max":494,"o":"m 436 801 q 261 721 376 721 q 88 801 146 721 q 28 1019 28 879 q 88 1241 28 1163 q 261 1319 147 1319 q 435 1241 375 1319 q 494 1019 494 1163 q 436 801 494 881 m 135 1019 q 261 808 135 808 q 388 1019 388 808 q 261 1232 388 1232 q 135 1019 135 1232 z "},"⁴":{"ha":519,"x_min":21,"x_max":499,"o":"m 415 960 l 499 960 l 499 872 l 415 872 l 415 733 l 310 733 l 310 872 l 21 872 l 21 974 l 308 1307 l 415 1307 l 415 960 m 314 960 l 314 1190 l 115 960 l 314 960 z "},"⁵":{"ha":489,"x_min":28,"x_max":461,"o":"m 269 1119 q 408 1063 356 1119 q 461 919 461 1007 q 400 776 461 831 q 246 721 339 721 q 97 767 157 721 q 28 892 38 814 l 128 892 q 246 804 149 804 q 331 837 299 804 q 363 919 363 869 q 331 1005 363 971 q 246 1039 299 1039 q 136 974 165 1039 l 36 974 l 94 1307 l 436 1307 l 436 1219 l 175 1219 l 150 1082 q 269 1119 196 1119 z "},"⁶":{"ha":507,"x_min":35,"x_max":479,"o":"m 278 1119 q 422 1062 365 1119 q 479 919 479 1004 q 419 776 479 831 q 264 721 358 721 q 126 763 183 721 q 35 1006 35 831 q 94 1238 35 1157 q 268 1319 153 1319 q 406 1278 351 1319 q 472 1164 460 1236 l 371 1164 q 268 1236 353 1236 q 132 1053 142 1236 q 278 1119 186 1119 m 264 804 q 349 835 317 804 q 381 917 381 867 q 349 1001 381 968 q 264 1033 317 1033 q 181 1000 214 1033 q 149 917 149 967 q 181 836 149 868 q 264 804 213 804 z "},"⁷":{"ha":443,"x_min":21,"x_max":422,"o":"m 21 1219 l 21 1307 l 422 1307 l 422 1218 q 271 1008 318 1122 q 222 733 224 894 l 113 733 q 169 1001 114 872 q 319 1219 225 1131 l 21 1219 z "},"⁸":{"ha":503,"x_min":28,"x_max":475,"o":"m 375 1038 q 475 890 475 994 q 415 767 475 814 q 251 721 356 721 q 88 767 147 721 q 28 890 28 814 q 128 1036 28 997 q 54 1163 54 1082 q 107 1276 54 1233 q 251 1319 160 1319 q 394 1276 342 1319 q 447 1163 447 1233 q 375 1038 447 1081 m 356 1157 q 356 1177 356 1157 q 326 1221 356 1197 q 251 1244 297 1244 q 176 1221 206 1244 q 147 1157 147 1197 q 176 1093 147 1117 q 251 1068 206 1068 q 326 1093 297 1068 q 356 1157 356 1117 m 129 902 q 129 880 129 902 q 161 831 129 858 q 251 803 193 803 q 343 831 311 803 q 374 902 375 857 q 342 974 374 947 q 251 1000 311 1000 q 161 974 192 1000 q 129 902 129 946 z "},"⁹":{"ha":507,"x_min":28,"x_max":472,"o":"m 381 1278 q 472 1035 472 1208 q 415 802 472 883 q 246 721 357 721 q 103 763 158 721 q 35 876 47 804 l 136 876 q 246 804 157 804 q 375 986 364 804 q 229 921 321 921 q 85 978 142 921 q 28 1121 28 1036 q 88 1265 28 1210 q 243 1319 149 1319 q 381 1278 325 1319 m 243 1007 q 326 1040 293 1007 q 358 1124 358 1074 q 326 1204 358 1172 q 243 1236 294 1236 q 158 1205 190 1236 q 126 1124 126 1174 q 158 1040 126 1072 q 243 1007 190 1007 z "},"⁺":{"ha":411,"x_min":28,"x_max":383,"o":"m 250 1060 l 383 1060 l 383 978 l 250 978 l 250 844 l 160 844 l 160 978 l 28 978 l 28 1060 l 160 1060 l 160 1194 l 250 1194 l 250 1060 z "},"⁻":{"ha":411,"x_min":28,"x_max":383,"o":"m 383 978 l 28 978 l 28 1060 l 383 1060 l 383 978 z "},"⁽":{"ha":219,"x_min":42,"x_max":219,"o":"m 219 625 l 124 625 q 61 814 79 725 q 42 1019 42 904 q 60 1229 42 1143 q 124 1417 79 1319 l 219 1417 q 135 1019 135 1231 q 219 625 135 819 z "},"⁾":{"ha":219,"x_min":0,"x_max":178,"o":"m 96 625 l 0 625 q 85 1019 85 819 q 0 1417 85 1231 l 96 1417 q 160 1229 140 1319 q 178 1019 178 1143 q 160 814 178 899 q 96 625 143 732 z "},"ⁿ":{"ha":647,"x_min":63,"x_max":585,"o":"m 365 1001 q 527 944 469 1001 q 585 781 585 886 l 585 364 l 475 364 l 475 768 q 338 906 475 906 q 220 855 268 906 q 172 715 172 804 l 172 364 l 63 364 l 63 989 l 168 989 l 168 888 q 365 1001 236 1001 z "},"₀":{"ha":522,"x_min":28,"x_max":494,"o":"m 436 -206 q 261 -285 375 -285 q 88 -206 146 -285 q 28 14 28 -125 q 88 235 28 157 q 261 314 147 314 q 435 235 375 314 q 494 14 494 157 q 436 -206 494 -125 m 135 14 q 261 -197 135 -197 q 388 14 388 -197 q 261 226 388 226 q 135 14 135 226 z "},"₁":{"ha":301,"x_min":21,"x_max":267,"o":"m 178 301 l 267 301 l 267 -272 l 160 -272 l 160 138 l 21 138 l 21 213 q 123 231 89 213 q 178 301 157 250 z "},"₂":{"ha":463,"x_min":14,"x_max":442,"o":"m 125 -185 l 442 -185 l 442 -272 l 14 -272 l 15 -233 q 60 -85 19 -144 q 197 13 101 -26 l 236 28 q 335 139 335 68 q 228 226 335 226 q 148 198 175 226 q 121 122 121 169 l 21 122 q 76 262 22 210 q 231 314 129 314 q 382 265 328 314 q 436 142 436 217 q 278 -53 436 15 l 229 -74 q 156 -119 179 -94 q 125 -185 132 -144 z "},"₃":{"ha":485,"x_min":14,"x_max":460,"o":"m 364 33 q 434 -19 408 18 q 460 -107 460 -56 q 400 -235 460 -186 q 240 -285 340 -285 q 74 -233 133 -285 q 14 -86 15 -181 l 115 -86 q 240 -201 115 -201 q 326 -176 294 -201 q 357 -104 357 -150 q 235 -11 357 -11 l 197 -11 l 197 65 l 238 65 q 346 150 346 65 q 318 209 346 188 q 242 231 290 231 q 135 143 142 231 l 33 143 q 94 269 39 225 q 242 314 149 314 q 391 272 336 314 q 446 160 446 231 q 364 33 446 75 z "},"₄":{"ha":519,"x_min":21,"x_max":499,"o":"m 415 -46 l 499 -46 l 499 -133 l 415 -133 l 415 -272 l 310 -272 l 310 -133 l 21 -133 l 21 -32 l 308 301 l 415 301 l 415 -46 m 314 -46 l 314 185 l 115 -46 l 314 -46 z "},"₅":{"ha":489,"x_min":28,"x_max":461,"o":"m 269 114 q 408 58 356 114 q 461 -86 461 1 q 400 -230 461 -175 q 246 -285 339 -285 q 97 -238 157 -285 q 28 -114 38 -192 l 128 -114 q 246 -201 149 -201 q 331 -169 299 -201 q 363 -86 363 -136 q 331 -1 363 -35 q 246 33 299 33 q 136 -32 165 33 l 36 -32 l 94 301 l 436 301 l 436 214 l 175 214 l 150 76 q 269 114 196 114 z "},"₆":{"ha":507,"x_min":35,"x_max":479,"o":"m 278 114 q 422 56 365 114 q 479 -86 479 -1 q 419 -230 479 -175 q 264 -285 358 -285 q 126 -243 183 -285 q 35 0 35 -174 q 94 233 35 151 q 268 314 153 314 q 406 272 351 314 q 472 158 460 231 l 371 158 q 268 231 353 231 q 132 47 142 231 q 278 114 186 114 m 264 -201 q 349 -170 317 -201 q 381 -89 381 -139 q 349 -5 381 -37 q 264 28 317 28 q 181 -6 214 28 q 149 -89 149 -39 q 181 -169 149 -137 q 264 -201 213 -201 z "},"₇":{"ha":443,"x_min":21,"x_max":422,"o":"m 21 214 l 21 301 l 422 301 l 422 213 q 271 3 318 117 q 222 -272 224 -111 l 113 -272 q 169 -4 114 -133 q 319 214 225 125 l 21 214 z "},"₈":{"ha":503,"x_min":28,"x_max":475,"o":"m 375 32 q 475 -115 475 -12 q 415 -238 475 -192 q 251 -285 356 -285 q 88 -238 147 -285 q 28 -115 28 -192 q 128 31 28 -8 q 54 157 54 76 q 107 271 54 228 q 251 314 160 314 q 394 271 342 314 q 447 157 447 228 q 375 32 447 75 m 356 151 q 356 172 356 151 q 326 215 356 192 q 251 239 297 239 q 176 215 206 239 q 147 151 147 192 q 176 88 147 111 q 251 63 206 63 q 326 88 297 63 q 356 151 356 111 m 161 -176 q 251 -203 192 -203 q 343 -176 313 -203 q 374 -105 375 -150 q 342 -33 374 -60 q 251 -6 310 -6 q 161 -33 193 -6 q 129 -105 129 -61 q 161 -176 129 -149 z "},"₉":{"ha":507,"x_min":28,"x_max":472,"o":"m 381 272 q 472 29 472 203 q 415 -203 472 -122 q 246 -285 357 -285 q 103 -243 158 -285 q 35 -129 47 -201 l 136 -129 q 246 -201 157 -201 q 375 -19 364 -201 q 229 -85 321 -85 q 85 -27 142 -85 q 28 115 28 31 q 88 259 28 204 q 243 314 149 314 q 381 272 325 314 m 243 1 q 326 35 293 1 q 358 118 358 68 q 326 199 358 167 q 243 231 294 231 q 158 199 190 231 q 126 118 126 168 q 158 34 126 67 q 243 1 190 1 z "},"₊":{"ha":411,"x_min":28,"x_max":383,"o":"m 250 54 l 383 54 l 383 -28 l 250 -28 l 250 -161 l 160 -161 l 160 -28 l 28 -28 l 28 54 l 160 54 l 160 189 l 250 189 l 250 54 z "},"₋":{"ha":411,"x_min":28,"x_max":383,"o":"m 383 -28 l 28 -28 l 28 54 l 383 54 l 383 -28 z "},"₌":{"ha":411,"x_min":28,"x_max":383,"o":"m 383 51 l 28 51 l 28 128 l 383 128 l 383 51 m 383 -101 l 28 -101 l 28 -25 l 383 -25 l 383 -101 z "},"₍":{"ha":219,"x_min":42,"x_max":219,"o":"m 219 -382 l 124 -382 q 61 -194 81 -282 q 42 13 42 -101 q 60 222 42 136 q 124 410 79 313 l 219 410 q 135 13 135 224 q 219 -382 135 -187 z "},"₎":{"ha":219,"x_min":0,"x_max":178,"o":"m 96 -383 l 0 -383 q 85 11 85 -189 q 0 408 85 222 l 96 408 q 160 221 140 311 q 178 11 178 135 q 160 -196 178 -110 q 96 -383 142 -278 z "},"ₙ":{"ha":647,"x_min":63,"x_max":585,"o":"m 365 365 q 527 308 469 365 q 585 144 585 250 l 585 -272 l 475 -272 l 475 132 q 338 269 475 269 q 220 219 268 269 q 172 79 172 168 l 172 -272 l 63 -272 l 63 353 l 168 353 l 168 251 q 365 365 236 365 z "},"€":{"ha":947,"x_min":0,"x_max":906,"o":"m 790 332 l 906 332 q 775 71 881 161 q 522 -21 669 -21 q 251 81 360 -21 q 114 363 143 183 l 0 363 l 0 457 l 104 457 q 103 497 103 467 q 106 561 103 506 l 0 561 l 0 657 l 118 657 q 256 918 151 825 q 518 1011 360 1011 q 770 926 672 1011 q 903 692 868 842 l 779 692 q 517 906 717 906 q 337 842 407 906 q 240 657 267 778 l 556 657 l 556 561 l 228 561 q 225 497 225 506 q 226 457 225 465 l 556 457 l 556 363 l 236 363 q 333 156 260 228 q 522 85 406 85 q 790 332 751 85 z "},"₸":{"ha":849,"x_min":28,"x_max":821,"o":"m 28 883 l 28 989 l 821 989 l 821 883 l 28 883 m 364 649 l 28 649 l 28 754 l 821 754 l 821 649 l 485 649 l 485 0 l 364 0 l 364 649 z "},"₹":{"ha":868,"x_min":90,"x_max":821,"o":"m 821 989 l 821 896 l 664 896 q 729 758 717 839 l 821 758 l 821 665 l 729 665 q 624 496 713 556 q 397 436 536 436 l 267 436 l 732 0 l 567 0 l 90 450 l 90 542 l 397 542 q 606 665 578 542 l 90 665 l 90 758 l 606 758 q 397 883 578 883 l 90 883 l 90 989 l 821 989 z "},"₺":{"ha":776,"x_min":0,"x_max":735,"o":"m 613 517 l 735 517 q 593 142 735 283 q 206 0 450 0 l 89 0 l 89 447 l 0 406 l 0 501 l 89 543 l 89 647 l 0 606 l 0 701 l 89 743 l 89 989 l 206 989 l 206 797 l 479 924 l 479 828 l 206 701 l 206 597 l 479 724 l 479 628 l 206 501 l 206 107 q 504 218 396 107 q 613 517 613 328 z "},"₼":{"ha":975,"x_min":76,"x_max":899,"o":"m 542 738 l 544 738 q 813 655 726 738 q 899 401 899 572 l 899 0 l 783 0 l 783 411 q 726 582 783 526 q 546 638 668 638 l 542 638 l 542 140 l 428 140 l 428 638 l 418 638 q 192 411 192 638 l 192 0 l 76 0 l 76 401 q 160 655 76 572 q 417 738 243 738 l 428 738 l 428 989 l 542 989 l 542 738 z "},"₿":{"ha":878,"x_min":90,"x_max":843,"o":"m 843 278 q 767 81 843 154 q 550 0 690 7 l 550 -161 l 447 -161 l 447 0 l 351 0 l 351 -161 l 249 -161 l 249 0 l 90 0 l 90 989 l 249 989 l 249 1150 l 351 1150 l 351 989 l 447 989 l 447 1150 l 550 1150 l 550 986 q 737 905 671 974 q 803 731 803 836 q 672 514 803 582 q 843 278 843 449 m 493 883 l 207 883 l 207 557 l 493 557 q 639 601 589 557 q 689 726 689 646 q 638 842 689 800 q 493 883 588 883 m 207 106 l 517 106 q 673 150 619 106 q 726 278 726 194 q 515 453 726 453 l 207 453 l 207 106 z "},"℅":{"ha":1369,"x_min":28,"x_max":1342,"o":"m 306 403 q 103 485 178 403 q 28 701 28 567 q 102 920 28 839 q 306 1001 176 1001 q 485 941 414 1001 q 571 778 557 881 l 463 778 q 410 874 451 839 q 306 910 368 910 q 183 854 226 910 q 140 701 140 799 q 184 550 140 606 q 306 494 228 494 q 412 533 369 494 q 465 636 454 571 l 571 636 q 487 466 558 529 q 306 403 415 403 m 472 0 l 365 0 l 893 989 l 1000 989 l 472 0 m 1263 69 q 1056 -12 1183 -12 q 850 71 928 -12 q 771 286 771 153 q 850 504 771 421 q 1056 586 928 586 q 1264 504 1185 586 q 1342 286 1342 419 q 1263 69 1342 150 m 931 138 q 1056 81 976 81 q 1182 138 1133 81 q 1229 286 1229 193 q 1182 436 1229 381 q 1056 493 1133 493 q 931 438 976 493 q 883 286 883 382 q 931 138 883 193 z "},"ℓ":{"ha":583,"x_min":28,"x_max":522,"o":"m 325 81 q 438 117 390 81 l 468 24 q 318 -17 403 -17 q 181 33 231 -17 q 131 164 131 82 l 131 283 q 42 271 92 275 l 28 368 q 131 386 78 372 l 131 779 q 182 951 131 890 q 335 1011 233 1011 q 522 778 522 1011 q 450 498 522 618 q 242 319 378 378 l 242 169 q 265 105 242 129 q 325 81 288 81 m 242 782 l 242 435 q 411 775 411 542 q 331 914 411 914 q 242 782 242 914 z "},"№":{"ha":1519,"x_min":90,"x_max":1464,"o":"m 1229 1003 q 1399 932 1333 1003 q 1464 747 1464 861 q 1399 563 1464 633 q 1229 492 1333 492 q 1057 563 1122 492 q 992 747 992 633 q 1057 932 992 861 q 1229 1003 1122 1003 m 761 656 l 761 989 l 876 989 l 876 0 l 735 0 l 407 510 q 201 844 265 735 q 206 333 206 650 l 206 0 l 90 0 l 90 989 l 232 989 l 560 479 q 765 144 701 254 q 761 656 761 339 m 1229 588 q 1326 631 1290 588 q 1363 747 1363 674 q 1326 865 1363 821 q 1229 908 1290 908 q 1130 865 1167 908 q 1093 747 1093 821 q 1129 631 1093 674 q 1229 588 1165 588 z "},"℗":{"ha":1151,"x_min":56,"x_max":1096,"o":"m 204 863 q 575 1013 353 1013 q 947 863 800 1013 q 1096 494 1096 711 q 947 128 1096 276 q 575 -22 800 -22 q 204 128 353 -22 q 56 494 56 276 q 204 863 56 711 m 575 65 q 881 189 760 65 q 1001 494 1001 311 q 881 801 1001 678 q 575 925 760 925 q 271 801 392 925 q 150 494 150 678 q 271 189 150 311 q 575 65 392 65 m 388 790 l 628 790 q 779 740 724 790 q 835 603 835 689 q 779 467 835 517 q 628 417 724 417 l 483 417 l 483 199 l 388 199 l 388 790 m 483 506 l 628 506 q 708 531 679 506 q 738 603 738 557 q 628 700 738 700 l 483 700 l 483 506 z "},"™":{"ha":749,"x_min":35,"x_max":714,"o":"m 147 933 l 35 933 l 35 989 l 321 989 l 321 933 l 208 933 l 208 636 l 147 636 l 147 933 m 568 799 l 644 989 l 714 989 l 714 636 l 654 636 l 654 753 q 656 865 654 836 l 646 842 l 564 636 l 515 636 l 432 842 l 422 867 q 424 753 424 838 l 424 636 l 364 636 l 364 989 l 433 989 l 513 793 q 539 719 514 789 l 568 799 z "},"Ω":{"ha":1058,"x_min":49,"x_max":1010,"o":"m 456 0 l 49 0 l 49 104 l 285 104 l 285 107 q 119 290 178 178 q 60 533 60 403 q 190 881 60 754 q 531 1007 318 1007 q 868 881 742 1007 q 994 533 994 754 q 938 289 994 401 q 774 107 881 176 l 774 104 l 1010 104 l 1010 0 l 604 0 l 604 93 q 808 277 739 164 q 876 533 876 390 q 785 808 876 714 q 531 903 693 903 q 272 808 365 903 q 178 533 178 714 q 249 278 178 393 q 456 93 319 164 l 456 0 z "},"℮":{"ha":1265,"x_min":69,"x_max":1194,"o":"m 224 865 q 633 1011 375 1011 q 1043 858 890 1011 q 1194 481 1194 706 l 297 481 q 278 463 278 481 l 278 218 q 300 153 278 174 q 633 19 436 19 q 830 63 736 19 q 983 179 924 107 l 1085 179 q 906 38 1024 93 q 633 -18 789 -18 q 225 126 381 -18 q 69 494 69 269 q 224 865 69 717 m 633 972 q 300 836 436 972 q 278 775 278 815 l 278 531 q 297 513 278 513 l 965 513 q 985 531 985 513 l 985 775 q 963 836 985 815 q 633 972 824 972 z "},"⅓":{"ha":1090,"x_min":21,"x_max":1065,"o":"m 267 989 l 267 415 l 160 415 l 160 825 l 21 825 l 21 900 q 123 919 89 900 q 178 989 157 938 l 267 989 m 161 0 l 689 989 l 793 989 l 265 0 l 161 0 m 969 306 q 1040 253 1014 290 q 1065 165 1065 217 q 1006 37 1065 86 q 846 -12 946 -12 q 680 40 739 -12 q 619 186 621 92 l 721 186 q 846 71 721 71 q 931 97 900 71 q 963 168 963 122 q 840 261 963 261 l 803 261 l 803 338 l 843 338 q 951 422 951 338 q 924 481 951 460 q 847 503 896 503 q 740 415 747 503 l 639 415 q 699 542 644 497 q 847 586 754 586 q 997 544 942 586 q 1051 432 1051 503 q 969 306 1051 347 z "},"⅔":{"ha":1271,"x_min":14,"x_max":1246,"o":"m 125 503 l 442 503 l 442 415 l 14 415 l 15 454 q 60 602 19 543 q 197 700 101 661 l 236 715 q 335 826 335 756 q 228 914 335 914 q 148 885 175 914 q 121 810 121 857 l 21 810 q 76 949 22 897 q 231 1001 129 1001 q 382 953 328 1001 q 436 829 436 904 q 278 635 436 703 l 229 614 q 156 568 179 593 q 125 503 132 543 m 356 0 l 883 989 l 988 989 l 460 0 l 356 0 m 1150 306 q 1220 253 1194 290 q 1246 165 1246 217 q 1186 37 1246 86 q 1026 -12 1126 -12 q 860 40 919 -12 q 800 186 801 92 l 901 186 q 1026 71 901 71 q 1112 97 1081 71 q 1143 168 1143 122 q 1021 261 1143 261 l 983 261 l 983 338 l 1024 338 q 1132 422 1132 338 q 1104 481 1132 460 q 1028 503 1076 503 q 921 415 928 503 l 819 415 q 880 542 825 497 q 1028 586 935 586 q 1177 544 1122 586 q 1232 432 1232 503 q 1150 306 1232 347 z "},"⅕":{"ha":1054,"x_min":21,"x_max":1026,"o":"m 267 415 l 160 415 l 160 825 l 21 825 l 21 900 q 123 919 89 900 q 178 989 157 938 l 267 989 l 267 415 m 150 0 l 678 989 l 782 989 l 254 0 l 150 0 m 835 386 q 974 330 921 386 q 1026 186 1026 274 q 965 42 1026 97 q 811 -12 904 -12 q 663 34 722 -12 q 593 158 603 81 l 693 158 q 811 71 714 71 q 896 103 864 71 q 928 186 928 136 q 896 272 928 238 q 811 306 864 306 q 701 240 731 306 l 601 240 l 660 574 l 1001 574 l 1001 486 l 740 486 l 715 349 q 835 386 761 386 z "},"⅖":{"ha":1219,"x_min":14,"x_max":1199,"o":"m 125 503 l 442 503 l 442 415 l 14 415 l 15 454 q 60 602 19 543 q 197 700 101 661 l 236 715 q 335 826 335 756 q 228 914 335 914 q 148 885 175 914 q 121 810 121 857 l 21 810 q 76 949 22 897 q 231 1001 129 1001 q 382 953 328 1001 q 436 829 436 904 q 278 635 436 703 l 229 614 q 156 568 179 593 q 125 503 132 543 m 325 0 l 853 989 l 957 989 l 429 0 l 325 0 m 1007 386 q 1146 330 1093 386 q 1199 186 1199 274 q 1138 42 1199 97 q 983 -12 1076 -12 q 835 34 894 -12 q 765 158 775 81 l 865 158 q 983 71 886 71 q 1068 103 1036 71 q 1100 186 1100 136 q 1068 272 1100 238 q 983 306 1036 306 q 874 240 903 306 l 774 240 l 832 574 l 1174 574 l 1174 486 l 913 486 l 888 349 q 1007 386 933 386 z "},"⅗":{"ha":1190,"x_min":14,"x_max":1165,"o":"m 460 581 q 400 452 460 501 q 240 403 340 403 q 74 455 133 403 q 14 601 15 507 l 115 601 q 240 486 115 486 q 326 512 294 486 q 357 583 357 538 q 235 676 357 676 l 197 676 l 197 753 l 238 753 q 346 838 346 753 q 318 897 346 875 q 242 918 290 918 q 135 831 142 918 l 33 831 q 94 957 39 913 q 242 1001 149 1001 q 391 960 336 1001 q 446 847 446 918 q 424 774 446 808 q 364 721 401 740 q 434 669 408 706 q 460 581 460 632 m 292 0 l 819 989 l 924 989 l 396 0 l 292 0 m 974 386 q 1113 330 1060 386 q 1165 186 1165 274 q 1104 42 1165 97 q 950 -12 1043 -12 q 801 34 861 -12 q 732 158 742 81 l 832 158 q 950 71 853 71 q 1035 103 1003 71 q 1067 186 1067 136 q 1035 272 1067 238 q 950 306 1003 306 q 840 240 869 306 l 740 240 l 799 574 l 1140 574 l 1140 486 l 879 486 l 854 349 q 974 386 900 386 z "},"⅘":{"ha":1214,"x_min":21,"x_max":1193,"o":"m 415 554 l 415 415 l 310 415 l 310 554 l 21 554 l 21 656 l 308 989 l 415 989 l 415 642 l 499 642 l 499 554 l 415 554 m 319 0 l 847 989 l 951 989 l 424 0 l 319 0 m 314 642 l 314 872 l 115 642 l 314 642 m 1001 386 q 1140 330 1088 386 q 1193 186 1193 274 q 1132 42 1193 97 q 978 -12 1071 -12 q 829 34 889 -12 q 760 158 769 81 l 860 158 q 978 71 881 71 q 1063 103 1031 71 q 1094 186 1094 136 q 1063 272 1094 238 q 978 306 1031 306 q 868 240 897 306 l 768 240 l 826 574 l 1168 574 l 1168 486 l 907 486 l 882 349 q 1001 386 928 386 z "},"⅙":{"ha":1061,"x_min":21,"x_max":1033,"o":"m 267 415 l 160 415 l 160 825 l 21 825 l 21 900 q 123 919 89 900 q 178 989 157 938 l 267 989 l 267 415 m 150 0 l 678 989 l 782 989 l 254 0 l 150 0 m 832 386 q 976 328 919 386 q 1033 186 1033 271 q 973 42 1033 97 q 818 -12 913 -12 q 681 29 736 -12 q 589 272 589 97 q 648 505 589 424 q 822 586 707 586 q 960 544 906 586 q 1026 431 1014 503 l 925 431 q 822 503 907 503 q 686 319 697 503 q 832 386 740 386 m 818 71 q 903 102 871 71 q 935 183 935 133 q 903 267 935 235 q 818 300 871 300 q 735 267 768 300 q 703 183 703 233 q 735 103 703 135 q 818 71 767 71 z "},"⅚":{"ha":1200,"x_min":28,"x_max":1172,"o":"m 461 601 q 400 458 461 513 q 246 403 339 403 q 97 449 157 403 q 28 574 38 496 l 128 574 q 246 486 149 486 q 331 519 299 486 q 363 601 363 551 q 331 687 363 653 q 246 721 299 721 q 136 656 165 721 l 36 656 l 94 989 l 436 989 l 436 901 l 175 901 l 150 764 q 269 801 196 801 q 408 745 356 801 q 461 601 461 689 m 289 0 l 817 989 l 921 989 l 393 0 l 289 0 m 971 386 q 1115 328 1058 386 q 1172 186 1172 271 q 1112 42 1172 97 q 957 -12 1051 -12 q 819 29 875 -12 q 728 272 728 97 q 787 505 728 424 q 961 586 846 586 q 1099 544 1044 586 q 1165 431 1153 503 l 1064 431 q 961 503 1046 503 q 825 319 836 503 q 971 386 879 386 m 957 71 q 1042 102 1010 71 q 1074 183 1074 133 q 1042 267 1074 235 q 957 300 1010 300 q 874 267 907 300 q 842 183 842 233 q 874 103 842 135 q 957 71 906 71 z "},"⅛":{"ha":1092,"x_min":21,"x_max":1064,"o":"m 267 989 l 267 415 l 160 415 l 160 825 l 21 825 l 21 900 q 123 919 89 900 q 178 989 157 938 l 267 989 m 161 0 l 689 989 l 793 989 l 265 0 l 161 0 m 964 304 q 1064 157 1064 260 q 1004 34 1064 81 q 840 -12 944 -12 q 676 34 736 -12 q 617 157 617 81 q 717 303 617 264 q 643 429 643 349 q 696 543 643 500 q 840 586 749 586 q 983 543 931 586 q 1036 429 1036 500 q 964 304 1036 347 m 944 424 q 944 444 944 424 q 915 488 944 464 q 840 511 886 511 q 765 488 794 511 q 736 424 736 464 q 765 360 736 383 q 840 335 794 335 q 915 360 886 335 q 944 424 944 383 m 718 169 q 718 147 718 169 q 750 97 718 125 q 840 69 782 69 q 932 97 900 69 q 963 169 964 124 q 931 240 963 214 q 840 267 900 267 q 750 240 781 267 q 718 169 718 213 z "},"⅜":{"ha":1228,"x_min":14,"x_max":1200,"o":"m 460 581 q 400 452 460 501 q 240 403 340 403 q 74 455 133 403 q 14 601 15 507 l 115 601 q 240 486 115 486 q 326 512 294 486 q 357 583 357 538 q 235 676 357 676 l 197 676 l 197 753 l 238 753 q 346 838 346 753 q 318 897 346 875 q 242 918 290 918 q 135 831 142 918 l 33 831 q 94 957 39 913 q 242 1001 149 1001 q 391 960 336 1001 q 446 847 446 918 q 424 774 446 808 q 364 721 401 740 q 434 669 408 706 q 460 581 460 632 m 297 0 l 825 989 l 929 989 l 401 0 l 297 0 m 1100 304 q 1200 157 1200 260 q 1140 34 1200 81 q 976 -12 1081 -12 q 813 34 872 -12 q 753 157 753 81 q 853 303 753 264 q 779 429 779 349 q 832 543 779 500 q 976 586 885 586 q 1119 543 1067 586 q 1172 429 1172 500 q 1100 304 1172 347 m 1081 424 q 1081 444 1081 424 q 1051 488 1081 464 q 976 511 1022 511 q 901 488 931 511 q 872 424 872 464 q 901 360 872 383 q 976 335 931 335 q 1051 360 1022 335 q 1081 424 1081 383 m 854 169 q 854 147 854 169 q 886 97 854 125 q 976 69 918 69 q 1068 97 1036 69 q 1099 169 1100 124 q 1067 240 1099 214 q 976 267 1036 267 q 886 240 917 267 q 854 169 854 213 z "},"⅝":{"ha":1231,"x_min":28,"x_max":1203,"o":"m 461 601 q 400 458 461 513 q 246 403 339 403 q 97 449 157 403 q 28 574 38 496 l 128 574 q 246 486 149 486 q 331 519 299 486 q 363 601 363 551 q 331 687 363 653 q 246 721 299 721 q 136 656 165 721 l 36 656 l 94 989 l 436 989 l 436 901 l 175 901 l 150 764 q 269 801 196 801 q 408 745 356 801 q 461 601 461 689 m 300 0 l 828 989 l 932 989 l 404 0 l 300 0 m 1103 304 q 1203 157 1203 260 q 1143 34 1203 81 q 979 -12 1083 -12 q 815 34 875 -12 q 756 157 756 81 q 856 303 756 264 q 782 429 782 349 q 835 543 782 500 q 979 586 888 586 q 1122 543 1069 586 q 1175 429 1175 500 q 1103 304 1175 347 m 1083 424 q 1083 444 1083 424 q 1054 488 1083 464 q 979 511 1025 511 q 904 488 933 511 q 875 424 875 464 q 904 360 875 383 q 979 335 933 335 q 1054 360 1025 335 q 1083 424 1083 383 m 857 169 q 857 147 857 169 q 889 97 857 125 q 979 69 921 69 q 1071 97 1039 69 q 1102 169 1103 124 q 1069 240 1101 214 q 979 267 1039 267 q 889 240 919 267 q 857 169 857 213 z "},"⅞":{"ha":1071,"x_min":21,"x_max":1043,"o":"m 222 415 l 113 415 q 169 683 114 554 q 319 901 225 813 l 21 901 l 21 989 l 422 989 l 422 900 q 271 690 318 804 q 222 415 224 576 m 140 0 l 668 989 l 772 989 l 244 0 l 140 0 m 943 304 q 1043 157 1043 260 q 983 34 1043 81 q 819 -12 924 -12 q 656 34 715 -12 q 596 157 596 81 q 696 303 596 264 q 622 429 622 349 q 675 543 622 500 q 819 586 728 586 q 963 543 910 586 q 1015 429 1015 500 q 943 304 1015 347 m 924 424 q 924 444 924 424 q 894 488 924 464 q 819 511 865 511 q 744 488 774 511 q 715 424 715 464 q 744 360 715 383 q 819 335 774 335 q 894 360 865 335 q 924 424 924 383 m 697 169 q 697 147 697 169 q 729 97 697 125 q 819 69 761 69 q 911 97 879 69 q 942 169 943 124 q 910 240 942 214 q 819 267 879 267 q 729 240 760 267 q 697 169 697 213 z "},"←":{"ha":1328,"x_min":158,"x_max":1169,"o":"m 338 549 l 1169 549 l 1169 443 l 336 443 q 500 229 407 353 l 675 0 l 532 0 l 158 494 l 532 989 l 675 989 l 500 760 q 478 731 497 756 q 419 655 458 706 q 338 549 381 604 z "},"↑":{"ha":1328,"x_min":169,"x_max":1158,"o":"m 169 638 l 664 1011 l 1158 638 l 1158 497 l 929 671 q 719 832 781 785 l 719 0 l 606 0 l 606 829 l 399 671 l 169 497 l 169 638 z "},"→":{"ha":1328,"x_min":158,"x_max":1169,"o":"m 653 989 l 796 989 l 1169 494 l 796 0 l 653 0 l 828 229 q 992 443 921 353 l 158 443 l 158 549 l 990 549 q 908 655 947 604 q 850 731 869 706 q 828 760 831 756 l 653 989 z "},"↓":{"ha":1328,"x_min":169,"x_max":1158,"o":"m 929 318 l 1158 492 l 1158 351 l 664 -22 l 169 351 l 169 492 l 399 318 l 606 160 l 606 989 l 719 989 l 719 157 q 929 318 781 204 z "},"↔":{"ha":1328,"x_min":0,"x_max":1328,"o":"m 810 989 l 954 989 l 1328 494 l 954 0 l 810 0 l 985 229 q 1149 443 1078 353 l 179 443 q 343 229 250 353 l 518 0 l 374 0 l 0 494 l 374 989 l 518 989 l 343 760 q 321 731 340 756 q 263 655 301 706 q 181 549 224 604 l 1147 549 q 1065 655 1104 604 q 1007 731 1026 706 q 985 760 988 756 l 810 989 z "},"↕":{"ha":1328,"x_min":169,"x_max":1158,"o":"m 719 1029 l 719 -40 q 929 121 781 7 l 1158 294 l 1158 154 l 664 -219 l 169 154 l 169 294 l 399 121 l 606 -37 l 606 1026 l 399 868 l 169 694 l 169 835 l 664 1208 l 1158 835 l 1158 694 l 929 868 q 719 1029 781 982 z "},"↖":{"ha":1328,"x_min":215,"x_max":1113,"o":"m 1113 814 l 696 814 q 404 815 469 814 l 1113 131 l 1033 44 l 328 729 q 329 439 329 664 l 329 47 l 215 153 l 215 919 l 1013 919 l 1113 814 z "},"↗":{"ha":1328,"x_min":215,"x_max":1113,"o":"m 215 814 l 315 919 l 1113 919 l 1113 153 l 999 47 l 999 439 q 1000 729 999 664 l 294 44 l 215 131 l 924 815 q 632 814 858 814 l 215 814 z "},"↘":{"ha":1328,"x_min":215,"x_max":1113,"o":"m 999 544 l 999 936 l 1113 831 l 1113 64 l 315 64 l 215 169 l 632 169 q 924 168 858 169 l 215 853 l 294 939 l 1000 254 q 999 544 999 319 z "},"↙":{"ha":1328,"x_min":215,"x_max":1113,"o":"m 1113 835 l 404 150 q 696 151 469 151 l 1113 151 l 1013 46 l 215 46 l 215 813 l 329 918 l 329 526 q 328 236 329 301 l 1033 921 l 1113 835 z "},"∂":{"ha":874,"x_min":63,"x_max":804,"o":"m 519 1011 q 730 928 656 1011 q 804 697 804 846 q 736 306 804 485 q 542 39 667 124 q 340 -22 449 -22 q 139 50 215 -22 q 63 242 63 122 q 178 528 63 408 q 447 644 292 644 q 586 607 526 644 q 669 507 646 569 q 686 692 686 590 q 643 853 686 800 q 508 906 600 906 q 388 863 446 906 q 296 744 329 819 l 178 744 q 315 940 224 869 q 519 1011 406 1011 m 343 83 q 524 174 449 83 q 599 374 599 264 q 557 494 599 450 q 443 539 515 539 q 264 451 342 539 q 186 249 186 363 q 228 128 186 174 q 343 83 271 83 z "},"∆":{"ha":910,"x_min":35,"x_max":875,"o":"m 388 989 l 518 989 l 875 106 l 875 0 l 35 0 l 35 106 l 388 989 m 451 863 q 275 404 340 567 l 157 106 l 753 106 l 632 406 q 451 863 597 490 z "},"∏":{"ha":965,"x_min":90,"x_max":875,"o":"m 90 -272 l 90 989 l 875 989 l 875 -272 l 758 -272 l 758 883 l 207 883 l 207 -272 l 90 -272 z "},"∑":{"ha":799,"x_min":35,"x_max":764,"o":"m 463 -167 l 764 -167 l 764 -272 l 35 -272 l 35 -167 l 447 358 l 35 883 l 35 989 l 750 989 l 750 883 l 463 883 q 179 886 304 883 l 353 665 l 571 386 l 571 331 l 353 51 q 179 -169 328 18 q 463 -167 304 -167 z "},"−":{"ha":735,"x_min":56,"x_max":679,"o":"m 679 444 l 56 444 l 56 544 l 679 544 l 679 444 z "},"∕":{"ha":735,"x_min":56,"x_max":679,"o":"m 175 0 l 56 0 l 560 989 l 679 989 l 175 0 z "},"∙":{"ha":732,"x_min":282,"x_max":450,"o":"m 450 411 l 282 411 l 282 578 l 450 578 l 450 411 z "},"√":{"ha":985,"x_min":21,"x_max":964,"o":"m 550 149 l 846 989 l 964 989 l 513 -272 l 385 -272 l 174 308 l 21 308 l 21 411 l 254 411 l 347 147 q 449 -144 413 -35 q 465 -97 453 -132 q 502 10 478 -61 q 550 149 526 82 z "},"∞":{"ha":1103,"x_min":56,"x_max":1047,"o":"m 803 761 q 981 688 915 761 q 1047 494 1047 615 q 981 301 1047 374 q 803 228 915 228 q 551 390 661 228 q 300 228 442 228 q 122 301 188 228 q 56 494 56 374 q 122 688 56 615 q 300 761 188 761 q 551 597 442 761 q 803 761 661 761 m 300 324 q 500 494 403 324 q 300 665 403 665 q 204 618 243 665 q 165 494 165 571 q 204 371 165 418 q 300 324 243 324 m 803 324 q 899 371 860 324 q 938 494 938 418 q 899 618 938 571 q 803 665 860 665 q 603 494 700 665 q 803 324 700 324 z "},"∫":{"ha":542,"x_min":56,"x_max":486,"o":"m 126 -276 q 56 -272 92 -276 l 56 -175 q 119 -179 89 -179 q 215 -78 215 -179 l 215 792 q 415 993 215 993 q 486 989 450 993 l 486 892 q 422 896 453 896 q 326 794 326 896 l 326 -75 q 126 -276 326 -276 z "},"≈":{"ha":735,"x_min":56,"x_max":679,"o":"m 153 518 l 56 518 q 111 646 63 597 q 233 694 160 694 q 388 656 292 694 q 501 625 465 625 q 582 701 569 625 l 679 701 q 624 574 672 622 q 501 525 575 525 q 353 563 449 525 q 233 594 272 594 q 153 518 165 594 m 153 268 l 56 268 q 111 396 63 347 q 233 444 160 444 q 388 406 292 444 q 501 375 465 375 q 582 451 569 375 l 679 451 q 624 324 672 372 q 501 275 575 275 q 353 313 449 275 q 233 344 272 344 q 153 268 165 344 z "},"≠":{"ha":735,"x_min":56,"x_max":679,"o":"m 679 664 l 679 571 l 447 571 l 390 418 l 679 418 l 679 325 l 356 325 l 300 175 l 206 206 l 250 325 l 56 325 l 56 418 l 285 418 l 342 571 l 56 571 l 56 664 l 376 664 l 433 817 l 526 785 l 482 664 l 679 664 z "},"≤":{"ha":735,"x_min":56,"x_max":679,"o":"m 679 821 l 679 701 l 476 621 q 179 510 314 556 q 476 397 294 468 l 679 317 l 679 197 l 56 451 l 56 567 l 679 821 m 679 0 l 56 0 l 56 100 l 679 100 l 679 0 z "},"≥":{"ha":735,"x_min":56,"x_max":679,"o":"m 56 701 l 56 821 l 679 567 l 679 451 l 56 197 l 56 317 l 258 397 q 556 510 440 468 q 258 621 421 556 l 56 701 m 679 0 l 56 0 l 56 100 l 679 100 l 679 0 z "},"①":{"ha":1328,"x_min":0,"x_max":1328,"o":"m 193 951 q 664 1138 386 1138 q 1136 951 942 1138 q 1328 494 1328 764 q 1136 39 1328 225 q 664 -149 942 -149 q 193 39 385 -149 q 0 494 0 224 q 193 951 0 764 m 271 111 q 664 -46 432 -46 q 1057 111 896 -46 q 1217 494 1217 267 q 1057 879 1217 724 q 664 1035 897 1035 q 271 879 431 1035 q 111 494 111 724 q 271 111 111 267 m 649 811 l 746 811 l 746 179 l 633 179 l 633 654 q 476 631 586 631 l 476 713 q 591 736 554 717 q 649 811 628 756 z "},"②":{"ha":1328,"x_min":0,"x_max":1328,"o":"m 193 951 q 664 1138 386 1138 q 1136 951 942 1138 q 1328 494 1328 764 q 1136 39 1328 225 q 664 -149 942 -149 q 193 39 385 -149 q 0 494 0 224 q 193 951 0 764 m 271 111 q 664 -46 432 -46 q 1057 111 896 -46 q 1217 494 1217 267 q 1057 879 1217 724 q 664 1035 897 1035 q 271 879 431 1035 q 111 494 111 724 q 271 111 111 267 m 713 450 l 660 428 q 578 376 604 403 q 544 306 551 349 l 893 306 l 893 208 l 422 208 l 424 251 q 473 416 428 351 q 624 522 518 481 l 667 539 q 775 661 775 583 q 657 757 775 757 q 570 726 600 757 q 540 643 540 694 l 431 643 q 490 797 432 739 q 661 854 549 854 q 826 801 767 854 q 886 664 886 747 q 713 450 886 525 z "},"③":{"ha":1328,"x_min":0,"x_max":1328,"o":"m 193 951 q 664 1138 386 1138 q 1136 951 942 1138 q 1328 494 1328 764 q 1136 39 1328 225 q 664 -149 942 -149 q 193 39 385 -149 q 0 494 0 224 q 193 951 0 764 m 271 111 q 664 -46 432 -46 q 1057 111 896 -46 q 1217 494 1217 267 q 1057 879 1217 724 q 664 1035 897 1035 q 271 879 431 1035 q 111 494 111 724 q 271 111 111 267 m 801 517 q 879 459 851 500 q 907 361 907 418 q 842 220 907 274 q 665 167 776 167 q 483 224 547 167 q 417 385 418 281 l 528 385 q 665 258 528 258 q 760 287 725 258 q 794 365 794 315 q 660 467 794 467 l 618 467 l 618 551 l 663 551 q 782 644 782 551 q 751 709 782 685 q 667 733 719 733 q 550 636 556 733 l 438 636 q 503 776 443 728 q 667 825 563 825 q 831 778 769 825 q 892 656 892 732 q 867 574 892 611 q 801 517 843 536 z "},"④":{"ha":1328,"x_min":0,"x_max":1328,"o":"m 193 951 q 664 1138 386 1138 q 1136 951 942 1138 q 1328 494 1328 764 q 1136 39 1328 225 q 664 -149 942 -149 q 193 39 385 -149 q 0 494 0 224 q 193 951 0 764 m 271 111 q 664 -46 432 -46 q 1057 111 896 -46 q 1217 494 1217 267 q 1057 879 1217 724 q 664 1035 897 1035 q 271 879 431 1035 q 111 494 111 724 q 271 111 111 267 m 683 825 l 801 825 l 801 443 l 893 443 l 893 346 l 801 346 l 801 193 l 685 193 l 685 346 l 368 346 l 368 458 l 683 825 m 690 443 l 690 696 l 469 443 l 690 443 z "},"⑤":{"ha":1328,"x_min":0,"x_max":1328,"o":"m 193 951 q 664 1138 386 1138 q 1136 951 942 1138 q 1328 494 1328 764 q 1136 39 1328 225 q 664 -149 942 -149 q 193 39 385 -149 q 0 494 0 224 q 193 951 0 764 m 271 111 q 664 -46 432 -46 q 1057 111 896 -46 q 1217 494 1217 267 q 1057 879 1217 724 q 664 1035 897 1035 q 271 879 431 1035 q 111 494 111 724 q 271 111 111 267 m 689 604 q 842 543 785 604 q 900 385 900 482 q 833 226 900 286 q 664 167 767 167 q 501 217 567 167 q 424 354 435 268 l 533 354 q 577 284 543 310 q 664 258 611 258 q 757 294 722 258 q 792 385 792 329 q 756 478 792 442 q 664 515 721 515 q 542 444 574 515 l 432 444 l 497 811 l 872 811 l 872 714 l 586 714 l 558 563 q 689 604 606 604 z "},"⑥":{"ha":1328,"x_min":0,"x_max":1328,"o":"m 193 951 q 664 1138 386 1138 q 1136 951 942 1138 q 1328 494 1328 764 q 1136 39 1328 225 q 664 -149 942 -149 q 193 39 385 -149 q 0 494 0 224 q 193 951 0 764 m 271 111 q 664 -46 432 -46 q 1057 111 896 -46 q 1217 494 1217 267 q 1057 879 1217 724 q 664 1035 897 1035 q 271 879 431 1035 q 111 494 111 724 q 271 111 111 267 m 679 604 q 840 542 778 604 q 901 385 901 476 q 835 226 901 286 q 664 167 768 167 q 513 213 575 167 q 413 479 413 288 q 477 736 413 647 q 668 825 542 825 q 819 779 760 825 q 893 653 879 733 l 782 653 q 668 733 760 733 q 561 684 597 733 q 518 531 525 635 q 679 604 579 604 m 572 293 q 664 258 607 258 q 757 293 722 258 q 792 382 792 328 q 756 474 792 438 q 664 510 721 510 q 592 489 624 513 q 547 431 560 465 q 539 357 533 396 q 572 293 544 318 z "},"⑦":{"ha":1328,"x_min":0,"x_max":1328,"o":"m 193 951 q 664 1138 386 1138 q 1136 951 942 1138 q 1328 494 1328 764 q 1136 39 1328 225 q 664 -149 942 -149 q 193 39 385 -149 q 0 494 0 224 q 193 951 0 764 m 271 111 q 664 -46 432 -46 q 1057 111 896 -46 q 1217 494 1217 267 q 1057 879 1217 724 q 664 1035 897 1035 q 271 879 431 1035 q 111 494 111 724 q 271 111 111 267 m 778 697 l 451 697 l 451 794 l 892 794 l 892 696 q 726 465 778 590 q 672 163 674 340 l 551 163 q 614 460 553 315 q 778 697 674 599 z "},"⑧":{"ha":1328,"x_min":0,"x_max":1328,"o":"m 193 951 q 664 1138 386 1138 q 1136 951 942 1138 q 1328 494 1328 764 q 1136 39 1328 225 q 664 -149 942 -149 q 193 39 385 -149 q 0 494 0 224 q 193 951 0 764 m 271 111 q 664 -46 432 -46 q 1057 111 896 -46 q 1217 494 1217 267 q 1057 879 1217 724 q 664 1035 897 1035 q 271 879 431 1035 q 111 494 111 724 q 271 111 111 267 m 800 514 q 910 353 910 467 q 844 218 910 269 q 664 167 779 167 q 484 218 550 167 q 418 353 418 269 q 528 514 418 467 q 447 651 447 561 q 506 777 447 729 q 664 825 564 825 q 822 777 764 825 q 879 651 879 729 q 800 514 879 561 m 747 715 q 620 733 697 757 q 550 646 543 710 q 582 575 550 601 q 664 549 614 549 q 747 575 715 549 q 779 646 779 601 q 747 715 779 688 m 564 286 q 664 256 599 256 q 764 286 729 256 q 799 365 799 315 q 763 444 799 415 q 664 474 728 474 q 565 444 600 474 q 529 365 529 415 q 564 286 529 315 z "},"⑨":{"ha":1328,"x_min":0,"x_max":1328,"o":"m 193 951 q 664 1138 386 1138 q 1136 951 942 1138 q 1328 494 1328 764 q 1136 39 1328 225 q 664 -149 942 -149 q 193 39 385 -149 q 0 494 0 224 q 193 951 0 764 m 271 111 q 664 -46 432 -46 q 1057 111 896 -46 q 1217 494 1217 267 q 1057 879 1217 724 q 664 1035 897 1035 q 271 879 431 1035 q 111 494 111 724 q 271 111 111 267 m 817 779 q 918 511 918 703 q 855 256 918 346 q 669 167 792 167 q 513 212 574 167 q 438 338 451 257 l 547 338 q 669 258 569 258 q 811 460 799 258 q 651 386 753 386 q 492 450 551 386 q 429 606 429 513 q 496 765 429 704 q 667 825 563 825 q 817 779 756 825 m 574 517 q 592 499 574 517 q 667 481 610 481 q 758 517 724 481 q 793 610 793 554 q 758 699 793 664 q 667 733 724 733 q 573 699 608 733 q 538 610 538 664 q 574 517 538 554 z "},"⓪":{"ha":1328,"x_min":0,"x_max":1328,"o":"m 1136 39 q 664 -149 942 -149 q 193 39 385 -149 q 0 494 0 224 q 193 951 0 764 q 664 1138 386 1138 q 1136 951 942 1138 q 1328 494 1328 764 q 1136 39 1328 225 m 271 111 q 664 -46 432 -46 q 1057 111 896 -46 q 1217 494 1217 267 q 1057 879 1217 724 q 664 1035 897 1035 q 271 879 431 1035 q 111 494 111 724 q 271 111 111 267 m 856 254 q 664 167 792 167 q 472 254 536 167 q 407 494 407 343 q 473 738 407 650 q 664 825 539 825 q 855 738 789 825 q 921 494 921 650 q 856 254 921 343 m 525 494 q 664 263 525 263 q 803 494 803 263 q 664 728 803 728 q 525 494 525 728 z "},"⓿":{"ha":1328,"x_min":0,"x_max":1328,"o":"m 1240 171 q 1000 -64 1151 21 q 664 -149 849 -149 q 328 -64 479 -149 q 88 171 176 21 q 0 494 0 319 q 88 819 0 672 q 328 1053 175 967 q 664 1138 479 1138 q 1000 1053 849 1138 q 1240 819 1153 967 q 1328 494 1328 672 q 1240 171 1328 319 m 476 253 q 664 168 543 168 q 851 253 785 168 q 918 494 918 339 q 853 738 918 651 q 664 822 786 822 q 476 738 540 822 q 410 494 410 653 q 476 253 410 339 m 806 494 q 664 260 806 260 q 522 494 522 260 q 664 731 522 731 q 806 494 806 731 z "},"■":{"ha":1328,"x_min":33,"x_max":1294,"o":"m 1294 -122 l 33 -122 l 33 1111 l 1294 1111 l 1294 -122 z "},"□":{"ha":1328,"x_min":33,"x_max":1294,"o":"m 1294 -122 l 33 -122 l 33 1111 l 1294 1111 l 1294 -122 m 144 1011 l 144 -22 l 1183 -22 l 1183 1011 l 144 1011 z "},"◊":{"ha":789,"x_min":35,"x_max":754,"o":"m 336 989 l 453 989 l 754 494 l 453 0 l 336 0 l 35 494 l 336 989 m 165 494 l 394 111 l 624 494 l 394 878 l 165 494 z "},"○":{"ha":1328,"x_min":0,"x_max":1328,"o":"m 1136 39 q 664 -149 942 -149 q 193 39 385 -149 q 0 494 0 224 q 193 951 0 764 q 664 1138 386 1138 q 1136 951 942 1138 q 1328 494 1328 764 q 1136 39 1328 225 m 271 111 q 664 -46 432 -46 q 1057 111 896 -46 q 1217 494 1217 267 q 1057 879 1217 724 q 664 1035 897 1035 q 271 879 431 1035 q 111 494 111 724 q 271 111 111 267 z "},"●":{"ha":1328,"x_min":0,"x_max":1328,"o":"m 1240 171 q 1000 -64 1151 21 q 664 -149 849 -149 q 328 -64 479 -149 q 88 171 176 21 q 0 494 0 319 q 88 819 0 672 q 328 1053 175 967 q 664 1138 479 1138 q 1000 1053 849 1138 q 1240 819 1153 967 q 1328 494 1328 672 q 1240 171 1328 319 z "},"❶":{"ha":1328,"x_min":0,"x_max":1328,"o":"m 1240 171 q 1000 -64 1151 21 q 664 -149 849 -149 q 328 -64 479 -149 q 88 171 176 21 q 0 494 0 319 q 88 819 0 672 q 328 1053 175 967 q 664 1138 479 1138 q 1000 1053 849 1138 q 1240 819 1153 967 q 1328 494 1328 672 q 1240 171 1328 319 m 626 631 l 626 179 l 744 179 l 744 811 l 646 811 q 587 733 625 754 q 474 713 549 713 l 474 631 l 626 631 z "},"❷":{"ha":1328,"x_min":0,"x_max":1328,"o":"m 1240 171 q 1000 -64 1151 21 q 664 -149 849 -149 q 328 -64 479 -149 q 88 171 176 21 q 0 494 0 319 q 88 819 0 672 q 328 1053 175 967 q 664 1138 479 1138 q 1000 1053 849 1138 q 1240 819 1153 967 q 1328 494 1328 672 q 1240 171 1328 319 m 432 238 l 431 197 l 896 197 l 896 289 l 549 289 q 664 417 557 372 l 717 439 q 847 527 806 476 q 889 650 889 578 q 831 785 889 732 q 667 838 772 838 q 498 782 556 838 q 438 632 440 726 l 543 632 q 576 716 544 686 q 663 746 607 746 q 783 647 783 746 q 674 522 783 565 l 631 506 q 481 399 526 464 q 432 238 436 335 z "},"❸":{"ha":1328,"x_min":0,"x_max":1328,"o":"m 1240 171 q 1000 -64 1151 21 q 664 -149 849 -149 q 328 -64 479 -149 q 88 171 176 21 q 0 494 0 319 q 88 819 0 672 q 328 1053 175 967 q 664 1138 479 1138 q 1000 1053 849 1138 q 1240 819 1153 967 q 1328 494 1328 672 q 1240 171 1328 319 m 665 168 q 839 221 774 168 q 904 361 904 274 q 874 460 904 418 q 793 517 844 501 q 862 572 836 535 q 888 656 888 610 q 828 777 888 732 q 667 822 769 822 q 506 774 565 822 q 442 639 447 726 l 546 639 q 667 736 556 736 q 753 711 721 736 q 785 644 785 686 q 663 549 785 549 l 621 549 l 621 469 l 660 469 q 797 364 797 469 q 761 284 797 314 q 665 254 725 254 q 525 382 528 254 l 419 382 q 485 224 421 279 q 665 168 549 168 z "},"❹":{"ha":1328,"x_min":0,"x_max":1328,"o":"m 1240 171 q 1000 -64 1151 21 q 664 -149 849 -149 q 328 -64 479 -149 q 88 171 176 21 q 0 494 0 319 q 88 819 0 672 q 328 1053 175 967 q 664 1138 479 1138 q 1000 1053 849 1138 q 1240 819 1153 967 q 1328 494 1328 672 q 1240 171 1328 319 m 688 349 l 688 196 l 799 196 l 799 349 l 890 349 l 890 440 l 799 440 l 799 822 l 685 822 l 371 457 l 371 349 l 688 349 m 693 440 l 465 440 l 693 703 l 693 440 z "},"❺":{"ha":1328,"x_min":0,"x_max":1328,"o":"m 1240 171 q 1000 -64 1151 21 q 664 -149 849 -149 q 328 -64 479 -149 q 88 171 176 21 q 0 494 0 319 q 88 819 0 672 q 328 1053 175 967 q 664 1138 479 1138 q 1000 1053 849 1138 q 1240 819 1153 967 q 1328 494 1328 672 q 1240 171 1328 319 m 665 168 q 832 228 767 168 q 899 385 899 286 q 842 541 899 481 q 692 601 785 601 q 556 556 603 601 l 585 717 l 872 717 l 872 808 l 501 808 l 436 447 l 543 447 q 665 518 578 518 q 760 481 724 518 q 796 385 796 443 q 760 291 796 328 q 665 254 724 254 q 533 351 558 254 l 428 351 q 505 218 440 268 q 665 168 569 168 z "},"❻":{"ha":1328,"x_min":0,"x_max":1328,"o":"m 1240 171 q 1000 -64 1151 21 q 664 -149 849 -149 q 328 -64 479 -149 q 88 171 176 21 q 0 494 0 319 q 88 819 0 672 q 328 1053 175 967 q 664 1138 479 1138 q 1000 1053 849 1138 q 1240 819 1153 967 q 1328 494 1328 672 q 1240 171 1328 319 m 664 168 q 833 228 768 168 q 899 385 899 288 q 838 540 899 479 q 679 601 774 601 q 517 528 579 601 l 517 536 q 669 736 529 736 q 785 656 763 736 l 890 656 q 817 778 876 733 q 669 822 758 822 q 480 735 544 822 q 415 479 415 647 q 514 214 415 289 q 664 168 575 168 m 664 254 q 571 290 607 254 q 535 382 535 325 q 572 476 535 439 q 664 513 608 513 q 758 476 721 513 q 796 382 796 439 q 759 290 796 326 q 664 254 722 254 z "},"❼":{"ha":1328,"x_min":0,"x_max":1328,"o":"m 1240 171 q 1000 -64 1151 21 q 664 -149 849 -149 q 328 -64 479 -149 q 88 171 176 21 q 0 494 0 319 q 88 819 0 672 q 328 1053 175 967 q 664 1138 479 1138 q 1000 1053 849 1138 q 1240 819 1153 967 q 1328 494 1328 672 q 1240 171 1328 319 m 554 165 l 669 165 q 723 467 671 342 q 889 697 775 592 l 889 792 l 454 792 l 454 700 l 786 700 q 619 464 682 607 q 554 165 556 318 z "},"❽":{"ha":1328,"x_min":0,"x_max":1328,"o":"m 1240 171 q 1000 -64 1151 21 q 664 -149 849 -149 q 328 -64 479 -149 q 88 171 176 21 q 0 494 0 319 q 88 819 0 672 q 328 1053 175 967 q 664 1138 479 1138 q 1000 1053 849 1138 q 1240 819 1153 967 q 1328 494 1328 672 q 1240 171 1328 319 m 488 219 q 664 168 551 168 q 842 219 776 168 q 907 353 907 269 q 794 514 907 467 q 876 651 876 563 q 819 776 876 729 q 664 822 761 822 q 508 776 567 822 q 450 651 450 729 q 473 572 450 608 q 535 514 496 535 q 421 353 421 468 q 488 219 421 269 m 750 574 q 664 546 715 546 q 579 574 611 546 q 547 646 547 601 q 579 717 547 690 q 664 743 610 743 q 750 717 718 743 q 782 646 782 689 q 750 574 782 601 m 765 282 q 664 253 728 253 q 564 282 600 253 q 526 364 526 311 q 564 447 526 417 q 664 476 600 476 q 765 447 728 476 q 801 364 801 415 q 765 282 801 311 z "},"❾":{"ha":1328,"x_min":0,"x_max":1328,"o":"m 1240 171 q 1000 -64 1151 21 q 664 -149 849 -149 q 328 -64 479 -149 q 88 171 176 21 q 0 494 0 319 q 88 819 0 672 q 328 1053 175 967 q 664 1138 479 1138 q 1000 1053 849 1138 q 1240 819 1153 967 q 1328 494 1328 672 q 1240 171 1328 319 m 661 168 q 851 256 786 168 q 915 511 915 343 q 815 776 915 700 q 667 822 757 822 q 497 763 563 822 q 432 606 432 703 q 494 450 432 511 q 651 389 556 389 q 807 456 753 389 l 814 464 l 814 458 q 770 304 807 354 q 661 254 733 254 q 546 335 568 254 l 440 335 q 513 213 454 257 q 661 168 572 168 m 667 478 q 572 515 608 478 q 535 610 535 553 q 572 701 535 665 q 667 736 608 736 q 760 701 724 736 q 796 610 796 665 q 759 515 796 553 q 667 478 722 478 z "},"⸘":{"ha":704,"x_min":42,"x_max":669,"o":"m 288 814 l 428 814 l 428 675 l 288 675 l 288 814 m 556 129 l 669 129 q 583 -114 668 -31 q 347 -197 499 -197 q 123 -129 204 -197 q 42 65 42 -61 q 76 192 42 136 q 188 314 111 249 q 292 432 268 382 q 310 556 307 465 l 403 556 l 411 125 l 411 19 l 290 19 l 290 125 l 297 269 l 282 254 q 271 244 278 250 q 190 157 211 190 l 181 140 q 160 67 160 104 q 343 -92 160 -92 q 497 -41 444 -92 q 556 129 549 10 z "},"":{"ha":1022,"x_min":90,"x_max":932,"o":"m 329 851 l 329 671 l 281 671 l 281 1110 l 329 1110 l 329 944 q 426 997 365 997 q 510 968 481 997 q 539 886 539 939 l 539 671 l 490 671 l 490 882 q 417 953 490 953 q 355 926 381 953 q 329 851 329 899 m 883 671 l 883 1110 l 932 1110 l 932 671 l 883 671 m 714 664 q 607 710 647 664 q 567 831 567 756 q 607 951 567 906 q 713 997 647 997 q 820 950 781 997 q 860 831 860 903 l 860 813 l 617 813 q 715 708 625 708 q 800 768 782 708 l 851 768 q 714 664 824 664 m 713 951 q 618 857 631 951 l 807 857 q 778 926 803 900 q 713 951 753 951 m 785 665 q 892 618 853 665 q 932 499 932 571 l 932 481 l 689 481 q 788 376 697 376 q 872 436 854 376 l 924 436 q 786 332 896 332 q 679 378 719 332 q 639 499 639 424 q 679 619 639 574 q 785 665 719 665 m 657 657 l 531 339 l 479 339 l 354 657 l 408 657 l 461 515 q 506 390 479 469 q 551 517 521 435 l 603 657 l 657 657 m 785 619 q 690 525 703 619 l 879 525 q 850 594 875 568 q 785 619 825 619 m 335 367 l 282 367 l 282 428 l 335 428 l 335 367 m 142 407 l 192 407 l 192 317 l 257 317 l 257 274 l 192 274 l 192 67 q 228 40 192 40 l 257 40 l 257 -1 q 222 -3 247 -3 q 142 63 142 -3 l 142 274 l 90 274 l 90 317 l 142 317 l 142 407 m 919 233 l 919 83 q 928 0 919 28 l 878 0 q 872 42 872 36 q 769 -7 839 -7 q 687 17 717 -7 q 657 86 657 42 q 775 185 657 175 l 821 189 q 871 233 871 193 q 800 283 871 283 q 740 269 758 283 q 718 221 721 256 l 669 221 q 800 326 675 326 q 919 233 919 326 m 507 36 q 563 55 539 36 q 593 108 586 74 l 644 108 q 599 23 636 54 q 507 -8 561 -8 q 400 37 440 -8 q 360 158 360 82 q 400 280 360 235 q 507 325 440 325 q 599 294 563 325 q 643 210 636 263 l 592 210 q 563 262 586 243 q 507 281 540 281 q 438 249 464 281 q 411 158 411 217 q 438 68 411 100 q 507 36 464 36 m 333 0 l 285 0 l 285 318 l 333 318 l 333 0 m 772 35 q 842 59 813 35 q 871 126 871 83 l 871 163 q 829 150 856 153 l 783 144 q 708 88 708 136 q 772 35 708 35 z "},"ﬁ":{"ha":708,"x_min":21,"x_max":628,"o":"m 139 717 l 139 790 q 339 992 139 992 q 410 989 365 992 l 410 894 l 346 894 q 250 793 250 894 l 250 717 l 403 717 l 403 619 l 250 619 l 250 0 l 139 0 l 139 619 l 21 619 l 21 717 l 139 717 m 510 825 l 510 961 l 628 961 l 628 825 l 510 825 m 625 0 l 514 0 l 514 717 l 625 717 l 625 0 z "},"ﬂ":{"ha":694,"x_min":21,"x_max":611,"o":"m 139 717 l 139 790 q 339 992 139 992 q 410 989 365 992 l 410 894 l 346 894 q 250 793 250 894 l 250 717 l 403 717 l 403 619 l 250 619 l 250 0 l 139 0 l 139 619 l 21 619 l 21 717 l 139 717 m 500 0 l 500 989 l 611 989 l 611 0 l 500 0 z "},"﻿":{"ha":0,"x_min":0,"x_max":0,"o":""}}}
